%TF.GenerationSoftware,KiCad,Pcbnew,6.0.11+dfsg-1*%
%TF.CreationDate,2024-03-29T12:04:07-05:00*%
%TF.ProjectId,xerox-floppy-34,7865726f-782d-4666-9c6f-7070792d3334,rev?*%
%TF.SameCoordinates,Original*%
%TF.FileFunction,Soldermask,Bot*%
%TF.FilePolarity,Negative*%
%FSLAX46Y46*%
G04 Gerber Fmt 4.6, Leading zero omitted, Abs format (unit mm)*
G04 Created by KiCad (PCBNEW 6.0.11+dfsg-1) date 2024-03-29 12:04:07*
%MOMM*%
%LPD*%
G01*
G04 APERTURE LIST*
G04 Aperture macros list*
%AMRoundRect*
0 Rectangle with rounded corners*
0 $1 Rounding radius*
0 $2 $3 $4 $5 $6 $7 $8 $9 X,Y pos of 4 corners*
0 Add a 4 corners polygon primitive as box body*
4,1,4,$2,$3,$4,$5,$6,$7,$8,$9,$2,$3,0*
0 Add four circle primitives for the rounded corners*
1,1,$1+$1,$2,$3*
1,1,$1+$1,$4,$5*
1,1,$1+$1,$6,$7*
1,1,$1+$1,$8,$9*
0 Add four rect primitives between the rounded corners*
20,1,$1+$1,$2,$3,$4,$5,0*
20,1,$1+$1,$4,$5,$6,$7,0*
20,1,$1+$1,$6,$7,$8,$9,0*
20,1,$1+$1,$8,$9,$2,$3,0*%
G04 Aperture macros list end*
%ADD10C,1.600000*%
%ADD11R,1.600000X1.600000*%
%ADD12C,4.000000*%
%ADD13RoundRect,0.250000X-0.600000X-0.725000X0.600000X-0.725000X0.600000X0.725000X-0.600000X0.725000X0*%
%ADD14O,1.700000X1.950000*%
%ADD15R,1.700000X1.700000*%
%ADD16O,1.700000X1.700000*%
G04 APERTURE END LIST*
D10*
%TO.C,J3*%
X131189669Y-82495000D03*
X131189669Y-85265000D03*
X131189669Y-88035000D03*
X131189669Y-90805000D03*
X131189669Y-93575000D03*
X131189669Y-96345000D03*
X131189669Y-99115000D03*
X131189669Y-101885000D03*
X131189669Y-104655000D03*
X131189669Y-107425000D03*
X131189669Y-110195000D03*
X131189669Y-112965000D03*
X131189669Y-115735000D03*
X131189669Y-118505000D03*
X131189669Y-121275000D03*
X131189669Y-124045000D03*
X131189669Y-126815000D03*
X131189669Y-129585000D03*
X128349669Y-81110000D03*
X128349669Y-83880000D03*
X128349669Y-86650000D03*
X128349669Y-89420000D03*
X128349669Y-92190000D03*
X128349669Y-94960000D03*
X128349669Y-97730000D03*
X128349669Y-100500000D03*
X128349669Y-103270000D03*
X128349669Y-106040000D03*
X128349669Y-108810000D03*
X128349669Y-111580000D03*
X128349669Y-114350000D03*
X128349669Y-117120000D03*
X128349669Y-119890000D03*
X128349669Y-122660000D03*
X128349669Y-125430000D03*
X128349669Y-128200000D03*
D11*
X128349669Y-130970000D03*
D12*
X129769669Y-137790000D03*
X129769669Y-74290000D03*
%TD*%
D13*
%TO.C,J4*%
X104775000Y-76200000D03*
D14*
X107275000Y-76200000D03*
X109775000Y-76200000D03*
X112275000Y-76200000D03*
%TD*%
D15*
%TO.C,J2*%
X113665000Y-127635000D03*
D16*
X111125000Y-127635000D03*
X113665000Y-125095000D03*
X111125000Y-125095000D03*
X113665000Y-122555000D03*
X111125000Y-122555000D03*
X113665000Y-120015000D03*
X111125000Y-120015000D03*
X113665000Y-117475000D03*
X111125000Y-117475000D03*
X113665000Y-114935000D03*
X111125000Y-114935000D03*
X113665000Y-112395000D03*
X111125000Y-112395000D03*
X113665000Y-109855000D03*
X111125000Y-109855000D03*
X113665000Y-107315000D03*
X111125000Y-107315000D03*
X113665000Y-104775000D03*
X111125000Y-104775000D03*
X113665000Y-102235000D03*
X111125000Y-102235000D03*
X113665000Y-99695000D03*
X111125000Y-99695000D03*
X113665000Y-97155000D03*
X111125000Y-97155000D03*
X113665000Y-94615000D03*
X111125000Y-94615000D03*
X113665000Y-92075000D03*
X111125000Y-92075000D03*
X113665000Y-89535000D03*
X111125000Y-89535000D03*
X113665000Y-86995000D03*
X111125000Y-86995000D03*
%TD*%
D15*
%TO.C,J1*%
X103440000Y-127640000D03*
D16*
X100900000Y-127640000D03*
X103440000Y-125100000D03*
X100900000Y-125100000D03*
X103440000Y-122560000D03*
X100900000Y-122560000D03*
X103440000Y-120020000D03*
X100900000Y-120020000D03*
X103440000Y-117480000D03*
X100900000Y-117480000D03*
X103440000Y-114940000D03*
X100900000Y-114940000D03*
X103440000Y-112400000D03*
X100900000Y-112400000D03*
X103440000Y-109860000D03*
X100900000Y-109860000D03*
X103440000Y-107320000D03*
X100900000Y-107320000D03*
X103440000Y-104780000D03*
X100900000Y-104780000D03*
X103440000Y-102240000D03*
X100900000Y-102240000D03*
X103440000Y-99700000D03*
X100900000Y-99700000D03*
X103440000Y-97160000D03*
X100900000Y-97160000D03*
X103440000Y-94620000D03*
X100900000Y-94620000D03*
X103440000Y-92080000D03*
X100900000Y-92080000D03*
X103440000Y-89540000D03*
X100900000Y-89540000D03*
X103440000Y-87000000D03*
X100900000Y-87000000D03*
%TD*%
M02*
