G04 #@! TF.GenerationSoftware,KiCad,Pcbnew,6.0.11+dfsg-1*
G04 #@! TF.CreationDate,2024-03-29T12:06:11-05:00*
G04 #@! TF.ProjectId,xerox-floppy-34,7865726f-782d-4666-9c6f-7070792d3334,rev?*
G04 #@! TF.SameCoordinates,Original*
G04 #@! TF.FileFunction,Copper,L1,Top*
G04 #@! TF.FilePolarity,Positive*
%FSLAX46Y46*%
G04 Gerber Fmt 4.6, Leading zero omitted, Abs format (unit mm)*
G04 Created by KiCad (PCBNEW 6.0.11+dfsg-1) date 2024-03-29 12:06:11*
%MOMM*%
%LPD*%
G01*
G04 APERTURE LIST*
G04 Aperture macros list*
%AMRoundRect*
0 Rectangle with rounded corners*
0 $1 Rounding radius*
0 $2 $3 $4 $5 $6 $7 $8 $9 X,Y pos of 4 corners*
0 Add a 4 corners polygon primitive as box body*
4,1,4,$2,$3,$4,$5,$6,$7,$8,$9,$2,$3,0*
0 Add four circle primitives for the rounded corners*
1,1,$1+$1,$2,$3*
1,1,$1+$1,$4,$5*
1,1,$1+$1,$6,$7*
1,1,$1+$1,$8,$9*
0 Add four rect primitives between the rounded corners*
20,1,$1+$1,$2,$3,$4,$5,0*
20,1,$1+$1,$4,$5,$6,$7,0*
20,1,$1+$1,$6,$7,$8,$9,0*
20,1,$1+$1,$8,$9,$2,$3,0*%
G04 Aperture macros list end*
G04 #@! TA.AperFunction,ComponentPad*
%ADD10C,1.600000*%
G04 #@! TD*
G04 #@! TA.AperFunction,ComponentPad*
%ADD11R,1.600000X1.600000*%
G04 #@! TD*
G04 #@! TA.AperFunction,ComponentPad*
%ADD12C,4.000000*%
G04 #@! TD*
G04 #@! TA.AperFunction,ComponentPad*
%ADD13RoundRect,0.250000X-0.600000X-0.725000X0.600000X-0.725000X0.600000X0.725000X-0.600000X0.725000X0*%
G04 #@! TD*
G04 #@! TA.AperFunction,ComponentPad*
%ADD14O,1.700000X1.950000*%
G04 #@! TD*
G04 #@! TA.AperFunction,ComponentPad*
%ADD15R,1.700000X1.700000*%
G04 #@! TD*
G04 #@! TA.AperFunction,ComponentPad*
%ADD16O,1.700000X1.700000*%
G04 #@! TD*
G04 #@! TA.AperFunction,ViaPad*
%ADD17C,0.800000*%
G04 #@! TD*
G04 #@! TA.AperFunction,Conductor*
%ADD18C,0.250000*%
G04 #@! TD*
G04 APERTURE END LIST*
D10*
X131189669Y-82495000D03*
X131189669Y-85265000D03*
X131189669Y-88035000D03*
X131189669Y-90805000D03*
X131189669Y-93575000D03*
X131189669Y-96345000D03*
X131189669Y-99115000D03*
X131189669Y-101885000D03*
X131189669Y-104655000D03*
X131189669Y-107425000D03*
X131189669Y-110195000D03*
X131189669Y-112965000D03*
X131189669Y-115735000D03*
X131189669Y-118505000D03*
X131189669Y-121275000D03*
X131189669Y-124045000D03*
X131189669Y-126815000D03*
X131189669Y-129585000D03*
X128349669Y-81110000D03*
X128349669Y-83880000D03*
X128349669Y-86650000D03*
X128349669Y-89420000D03*
X128349669Y-92190000D03*
X128349669Y-94960000D03*
X128349669Y-97730000D03*
X128349669Y-100500000D03*
X128349669Y-103270000D03*
X128349669Y-106040000D03*
X128349669Y-108810000D03*
X128349669Y-111580000D03*
X128349669Y-114350000D03*
X128349669Y-117120000D03*
X128349669Y-119890000D03*
X128349669Y-122660000D03*
X128349669Y-125430000D03*
X128349669Y-128200000D03*
D11*
X128349669Y-130970000D03*
D12*
X129769669Y-137790000D03*
X129769669Y-74290000D03*
D13*
X104775000Y-76200000D03*
D14*
X107275000Y-76200000D03*
X109775000Y-76200000D03*
X112275000Y-76200000D03*
D15*
X113665000Y-127635000D03*
D16*
X111125000Y-127635000D03*
X113665000Y-125095000D03*
X111125000Y-125095000D03*
X113665000Y-122555000D03*
X111125000Y-122555000D03*
X113665000Y-120015000D03*
X111125000Y-120015000D03*
X113665000Y-117475000D03*
X111125000Y-117475000D03*
X113665000Y-114935000D03*
X111125000Y-114935000D03*
X113665000Y-112395000D03*
X111125000Y-112395000D03*
X113665000Y-109855000D03*
X111125000Y-109855000D03*
X113665000Y-107315000D03*
X111125000Y-107315000D03*
X113665000Y-104775000D03*
X111125000Y-104775000D03*
X113665000Y-102235000D03*
X111125000Y-102235000D03*
X113665000Y-99695000D03*
X111125000Y-99695000D03*
X113665000Y-97155000D03*
X111125000Y-97155000D03*
X113665000Y-94615000D03*
X111125000Y-94615000D03*
X113665000Y-92075000D03*
X111125000Y-92075000D03*
X113665000Y-89535000D03*
X111125000Y-89535000D03*
X113665000Y-86995000D03*
X111125000Y-86995000D03*
D15*
X103440000Y-127640000D03*
D16*
X100900000Y-127640000D03*
X103440000Y-125100000D03*
X100900000Y-125100000D03*
X103440000Y-122560000D03*
X100900000Y-122560000D03*
X103440000Y-120020000D03*
X100900000Y-120020000D03*
X103440000Y-117480000D03*
X100900000Y-117480000D03*
X103440000Y-114940000D03*
X100900000Y-114940000D03*
X103440000Y-112400000D03*
X100900000Y-112400000D03*
X103440000Y-109860000D03*
X100900000Y-109860000D03*
X103440000Y-107320000D03*
X100900000Y-107320000D03*
X103440000Y-104780000D03*
X100900000Y-104780000D03*
X103440000Y-102240000D03*
X100900000Y-102240000D03*
X103440000Y-99700000D03*
X100900000Y-99700000D03*
X103440000Y-97160000D03*
X100900000Y-97160000D03*
X103440000Y-94620000D03*
X100900000Y-94620000D03*
X103440000Y-92080000D03*
X100900000Y-92080000D03*
X103440000Y-89540000D03*
X100900000Y-89540000D03*
X103440000Y-87000000D03*
X100900000Y-87000000D03*
D17*
X107315000Y-84455000D03*
X107315000Y-127635000D03*
X107315000Y-125095000D03*
X107315000Y-122555000D03*
X107315000Y-120015000D03*
X107315000Y-117475000D03*
X107315000Y-114935000D03*
X107315000Y-112395000D03*
X107315000Y-109855000D03*
X107315000Y-107315000D03*
X107315000Y-104775000D03*
X107315000Y-102235000D03*
X107315000Y-99695000D03*
X107315000Y-97155000D03*
X107315000Y-94615000D03*
X107315000Y-92075000D03*
X107315000Y-89535000D03*
X107315000Y-86995000D03*
X120650000Y-90805000D03*
D18*
X120650000Y-90805000D02*
X120650000Y-106650331D01*
X120650000Y-106650331D02*
X128349669Y-114350000D01*
X113665000Y-125095000D02*
X118110000Y-125095000D01*
X118110000Y-125095000D02*
X119380000Y-123825000D01*
X119380000Y-123825000D02*
X119380000Y-89535000D01*
X119495000Y-89420000D02*
X128349669Y-89420000D01*
X119380000Y-89535000D02*
X119495000Y-89420000D01*
X113665000Y-112395000D02*
X111125000Y-112395000D01*
X113665000Y-114935000D02*
X111125000Y-114935000D01*
X113665000Y-117475000D02*
X111125000Y-117475000D01*
X113665000Y-120015000D02*
X111125000Y-120015000D01*
X113665000Y-122555000D02*
X111125000Y-122555000D01*
X113665000Y-125095000D02*
X111125000Y-125095000D01*
X113665000Y-127635000D02*
X111125000Y-127635000D01*
X113665000Y-109855000D02*
X111125000Y-109855000D01*
X113665000Y-107315000D02*
X111125000Y-107315000D01*
X113665000Y-104775000D02*
X111125000Y-104775000D01*
X113665000Y-102235000D02*
X111125000Y-102235000D01*
X113665000Y-99695000D02*
X111125000Y-99695000D01*
X113665000Y-97155000D02*
X111125000Y-97155000D01*
X113665000Y-94615000D02*
X111125000Y-94615000D01*
X113665000Y-92075000D02*
X111125000Y-92075000D01*
X113665000Y-89535000D02*
X111125000Y-89535000D01*
X113665000Y-86995000D02*
X111125000Y-86995000D01*
G04 #@! TA.AperFunction,Conductor*
G36*
X129121407Y-71648502D02*
G01*
X129167900Y-71702158D01*
X129178004Y-71772432D01*
X129148510Y-71837012D01*
X129084621Y-71876541D01*
X128996964Y-71899047D01*
X128989439Y-71901492D01*
X128703376Y-72014753D01*
X128696241Y-72018110D01*
X128426630Y-72166330D01*
X128419950Y-72170570D01*
X128196846Y-72332664D01*
X128188423Y-72343587D01*
X128195327Y-72356448D01*
X129756857Y-73917978D01*
X129770801Y-73925592D01*
X129772634Y-73925461D01*
X129779249Y-73921210D01*
X131344335Y-72356124D01*
X131350948Y-72344013D01*
X131342121Y-72332395D01*
X131119388Y-72170570D01*
X131112708Y-72166330D01*
X130843097Y-72018110D01*
X130835962Y-72014753D01*
X130549899Y-71901492D01*
X130542374Y-71899047D01*
X130454717Y-71876541D01*
X130393711Y-71840227D01*
X130362022Y-71776695D01*
X130369712Y-71706116D01*
X130414339Y-71650898D01*
X130486052Y-71628500D01*
X138557500Y-71628500D01*
X138625621Y-71648502D01*
X138672114Y-71702158D01*
X138683500Y-71754500D01*
X138683500Y-140335500D01*
X138663498Y-140403621D01*
X138609842Y-140450114D01*
X138557500Y-140461500D01*
X130447105Y-140461500D01*
X130378984Y-140441498D01*
X130332491Y-140387842D01*
X130322387Y-140317568D01*
X130351881Y-140252988D01*
X130415770Y-140213459D01*
X130542374Y-140180953D01*
X130549899Y-140178508D01*
X130835962Y-140065247D01*
X130843097Y-140061890D01*
X131112708Y-139913670D01*
X131119388Y-139909430D01*
X131342492Y-139747336D01*
X131350915Y-139736413D01*
X131344011Y-139723552D01*
X129782481Y-138162022D01*
X129768537Y-138154408D01*
X129766704Y-138154539D01*
X129760089Y-138158790D01*
X128195003Y-139723876D01*
X128188390Y-139735987D01*
X128197217Y-139747605D01*
X128419950Y-139909430D01*
X128426630Y-139913670D01*
X128696241Y-140061890D01*
X128703376Y-140065247D01*
X128989439Y-140178508D01*
X128996964Y-140180953D01*
X129123568Y-140213459D01*
X129184574Y-140249773D01*
X129216263Y-140313306D01*
X129208573Y-140383884D01*
X129163946Y-140439102D01*
X129092233Y-140461500D01*
X100379367Y-140461500D01*
X100359982Y-140460000D01*
X100345148Y-140457690D01*
X100345145Y-140457690D01*
X100336276Y-140456309D01*
X100326341Y-140457608D01*
X100325254Y-140457750D01*
X100296569Y-140458207D01*
X100223259Y-140450987D01*
X100193788Y-140448084D01*
X100169568Y-140443267D01*
X100050454Y-140407134D01*
X100027645Y-140397685D01*
X99917876Y-140339013D01*
X99897345Y-140325295D01*
X99801124Y-140246329D01*
X99783671Y-140228876D01*
X99704705Y-140132655D01*
X99690987Y-140112124D01*
X99632315Y-140002355D01*
X99622866Y-139979546D01*
X99586733Y-139860432D01*
X99581916Y-139836212D01*
X99572711Y-139742755D01*
X99572607Y-139719151D01*
X99572768Y-139717354D01*
X99573576Y-139712552D01*
X99573729Y-139700000D01*
X99569773Y-139672376D01*
X99568500Y-139654514D01*
X99568500Y-137793958D01*
X127256959Y-137793958D01*
X127276276Y-138100994D01*
X127277269Y-138108855D01*
X127334915Y-138411046D01*
X127336886Y-138418723D01*
X127431953Y-138711309D01*
X127434868Y-138718672D01*
X127565858Y-138997041D01*
X127569670Y-139003974D01*
X127734520Y-139263736D01*
X127739164Y-139270129D01*
X127814166Y-139360790D01*
X127826683Y-139369245D01*
X127837421Y-139363038D01*
X129397647Y-137802812D01*
X129404025Y-137791132D01*
X130134077Y-137791132D01*
X130134208Y-137792965D01*
X130138459Y-137799580D01*
X131700814Y-139361935D01*
X131714076Y-139369177D01*
X131724181Y-139361988D01*
X131800174Y-139270129D01*
X131804818Y-139263736D01*
X131969668Y-139003974D01*
X131973480Y-138997041D01*
X132104470Y-138718672D01*
X132107385Y-138711309D01*
X132202452Y-138418723D01*
X132204423Y-138411046D01*
X132262069Y-138108855D01*
X132263062Y-138100994D01*
X132282379Y-137793958D01*
X132282379Y-137786042D01*
X132263062Y-137479006D01*
X132262069Y-137471145D01*
X132204423Y-137168954D01*
X132202452Y-137161277D01*
X132107385Y-136868691D01*
X132104470Y-136861328D01*
X131973480Y-136582959D01*
X131969668Y-136576026D01*
X131804818Y-136316264D01*
X131800174Y-136309871D01*
X131725172Y-136219210D01*
X131712655Y-136210755D01*
X131701917Y-136216962D01*
X130141691Y-137777188D01*
X130134077Y-137791132D01*
X129404025Y-137791132D01*
X129405261Y-137788868D01*
X129405130Y-137787035D01*
X129400879Y-137780420D01*
X127838524Y-136218065D01*
X127825262Y-136210823D01*
X127815157Y-136218012D01*
X127739164Y-136309871D01*
X127734520Y-136316264D01*
X127569670Y-136576026D01*
X127565858Y-136582959D01*
X127434868Y-136861328D01*
X127431953Y-136868691D01*
X127336886Y-137161277D01*
X127334915Y-137168954D01*
X127277269Y-137471145D01*
X127276276Y-137479006D01*
X127256959Y-137786042D01*
X127256959Y-137793958D01*
X99568500Y-137793958D01*
X99568500Y-135843587D01*
X128188423Y-135843587D01*
X128195327Y-135856448D01*
X129756857Y-137417978D01*
X129770801Y-137425592D01*
X129772634Y-137425461D01*
X129779249Y-137421210D01*
X131344335Y-135856124D01*
X131350948Y-135844013D01*
X131342121Y-135832395D01*
X131119388Y-135670570D01*
X131112708Y-135666330D01*
X130843097Y-135518110D01*
X130835962Y-135514753D01*
X130549899Y-135401492D01*
X130542373Y-135399047D01*
X130244390Y-135322538D01*
X130236619Y-135321055D01*
X129931391Y-135282497D01*
X129923500Y-135282000D01*
X129615838Y-135282000D01*
X129607947Y-135282497D01*
X129302719Y-135321055D01*
X129294948Y-135322538D01*
X128996965Y-135399047D01*
X128989439Y-135401492D01*
X128703376Y-135514753D01*
X128696241Y-135518110D01*
X128426630Y-135666330D01*
X128419950Y-135670570D01*
X128196846Y-135832664D01*
X128188423Y-135843587D01*
X99568500Y-135843587D01*
X99568500Y-128513582D01*
X99588502Y-128445461D01*
X99642158Y-128398968D01*
X99712432Y-128388864D01*
X99777012Y-128418358D01*
X99796175Y-128439163D01*
X99797288Y-128440684D01*
X99799987Y-128445088D01*
X99803369Y-128448992D01*
X99803371Y-128448995D01*
X99856833Y-128510713D01*
X99946250Y-128613938D01*
X100021213Y-128676173D01*
X100108123Y-128748327D01*
X100118126Y-128756632D01*
X100311000Y-128869338D01*
X100519692Y-128949030D01*
X100524760Y-128950061D01*
X100524763Y-128950062D01*
X100617970Y-128969025D01*
X100738597Y-128993567D01*
X100743772Y-128993757D01*
X100743774Y-128993757D01*
X100956673Y-129001564D01*
X100956677Y-129001564D01*
X100961837Y-129001753D01*
X100966957Y-129001097D01*
X100966959Y-129001097D01*
X101178288Y-128974025D01*
X101178289Y-128974025D01*
X101183416Y-128973368D01*
X101200082Y-128968368D01*
X101392429Y-128910661D01*
X101392434Y-128910659D01*
X101397384Y-128909174D01*
X101597994Y-128810896D01*
X101779860Y-128681173D01*
X101806903Y-128654225D01*
X101888479Y-128572933D01*
X101950851Y-128539017D01*
X102021658Y-128544205D01*
X102078419Y-128586851D01*
X102095401Y-128617954D01*
X102136676Y-128728054D01*
X102145214Y-128743649D01*
X102221715Y-128845724D01*
X102234276Y-128858285D01*
X102336351Y-128934786D01*
X102351946Y-128943324D01*
X102472394Y-128988478D01*
X102487649Y-128992105D01*
X102538514Y-128997631D01*
X102545328Y-128998000D01*
X103167885Y-128998000D01*
X103183124Y-128993525D01*
X103184329Y-128992135D01*
X103186000Y-128984452D01*
X103186000Y-128979884D01*
X103694000Y-128979884D01*
X103698475Y-128995123D01*
X103699865Y-128996328D01*
X103707548Y-128997999D01*
X104334669Y-128997999D01*
X104341490Y-128997629D01*
X104392352Y-128992105D01*
X104407604Y-128988479D01*
X104528054Y-128943324D01*
X104543649Y-128934786D01*
X104645724Y-128858285D01*
X104658285Y-128845724D01*
X104734786Y-128743649D01*
X104743324Y-128728054D01*
X104788478Y-128607606D01*
X104792105Y-128592351D01*
X104797631Y-128541486D01*
X104798000Y-128534672D01*
X104798000Y-127912115D01*
X104793525Y-127896876D01*
X104792135Y-127895671D01*
X104784452Y-127894000D01*
X103712115Y-127894000D01*
X103696876Y-127898475D01*
X103695671Y-127899865D01*
X103694000Y-127907548D01*
X103694000Y-128979884D01*
X103186000Y-128979884D01*
X103186000Y-127601695D01*
X109762251Y-127601695D01*
X109762548Y-127606848D01*
X109762548Y-127606851D01*
X109768299Y-127706590D01*
X109775110Y-127824715D01*
X109776247Y-127829761D01*
X109776248Y-127829767D01*
X109798402Y-127928069D01*
X109824222Y-128042639D01*
X109908266Y-128249616D01*
X109910965Y-128254020D01*
X110014275Y-128422607D01*
X110024987Y-128440088D01*
X110028367Y-128443990D01*
X110034499Y-128451069D01*
X110171250Y-128608938D01*
X110343126Y-128751632D01*
X110536000Y-128864338D01*
X110540825Y-128866180D01*
X110540826Y-128866181D01*
X110553920Y-128871181D01*
X110744692Y-128944030D01*
X110749760Y-128945061D01*
X110749763Y-128945062D01*
X110857017Y-128966883D01*
X110963597Y-128988567D01*
X110968772Y-128988757D01*
X110968774Y-128988757D01*
X111181673Y-128996564D01*
X111181677Y-128996564D01*
X111186837Y-128996753D01*
X111191957Y-128996097D01*
X111191959Y-128996097D01*
X111403288Y-128969025D01*
X111403289Y-128969025D01*
X111408416Y-128968368D01*
X111469433Y-128950062D01*
X111617429Y-128905661D01*
X111617434Y-128905659D01*
X111622384Y-128904174D01*
X111822994Y-128805896D01*
X112004860Y-128676173D01*
X112113091Y-128568319D01*
X112175462Y-128534404D01*
X112246268Y-128539592D01*
X112303030Y-128582238D01*
X112320012Y-128613341D01*
X112331481Y-128643933D01*
X112364385Y-128731705D01*
X112451739Y-128848261D01*
X112568295Y-128935615D01*
X112704684Y-128986745D01*
X112766866Y-128993500D01*
X114563134Y-128993500D01*
X114625316Y-128986745D01*
X114761705Y-128935615D01*
X114878261Y-128848261D01*
X114965615Y-128731705D01*
X115016745Y-128595316D01*
X115023500Y-128533134D01*
X115023500Y-126736866D01*
X115016745Y-126674684D01*
X114965615Y-126538295D01*
X114878261Y-126421739D01*
X114761705Y-126334385D01*
X114699630Y-126311114D01*
X114643203Y-126289960D01*
X114586439Y-126247318D01*
X114561739Y-126180756D01*
X114576947Y-126111408D01*
X114598493Y-126082727D01*
X114603999Y-126077240D01*
X114703096Y-125978489D01*
X114762594Y-125895689D01*
X114830435Y-125801277D01*
X114833453Y-125797077D01*
X114835746Y-125792437D01*
X114837446Y-125789608D01*
X114889674Y-125741518D01*
X114945451Y-125728500D01*
X118031233Y-125728500D01*
X118042416Y-125729027D01*
X118049909Y-125730702D01*
X118057835Y-125730453D01*
X118057836Y-125730453D01*
X118117986Y-125728562D01*
X118121945Y-125728500D01*
X118149856Y-125728500D01*
X118153791Y-125728003D01*
X118153856Y-125727995D01*
X118165693Y-125727062D01*
X118197951Y-125726048D01*
X118201970Y-125725922D01*
X118209889Y-125725673D01*
X118229343Y-125720021D01*
X118248700Y-125716013D01*
X118260930Y-125714468D01*
X118260931Y-125714468D01*
X118268797Y-125713474D01*
X118276168Y-125710555D01*
X118276170Y-125710555D01*
X118309912Y-125697196D01*
X118321142Y-125693351D01*
X118355983Y-125683229D01*
X118355984Y-125683229D01*
X118363593Y-125681018D01*
X118370412Y-125676985D01*
X118370417Y-125676983D01*
X118381028Y-125670707D01*
X118398776Y-125662012D01*
X118417617Y-125654552D01*
X118453387Y-125628564D01*
X118463307Y-125622048D01*
X118494535Y-125603580D01*
X118494538Y-125603578D01*
X118501362Y-125599542D01*
X118515683Y-125585221D01*
X118530717Y-125572380D01*
X118540694Y-125565131D01*
X118547107Y-125560472D01*
X118575298Y-125526395D01*
X118583288Y-125517616D01*
X119772247Y-124328657D01*
X119780537Y-124321113D01*
X119787018Y-124317000D01*
X119833659Y-124267332D01*
X119836413Y-124264491D01*
X119856134Y-124244770D01*
X119858612Y-124241575D01*
X119866318Y-124232553D01*
X119891158Y-124206101D01*
X119896586Y-124200321D01*
X119906346Y-124182568D01*
X119917199Y-124166045D01*
X119924753Y-124156306D01*
X119929613Y-124150041D01*
X119947176Y-124109457D01*
X119952383Y-124098827D01*
X119973695Y-124060060D01*
X119975666Y-124052383D01*
X119975668Y-124052378D01*
X119978732Y-124040442D01*
X119985138Y-124021730D01*
X119990033Y-124010419D01*
X119993181Y-124003145D01*
X119994421Y-123995317D01*
X119994423Y-123995310D01*
X120000099Y-123959476D01*
X120002505Y-123947856D01*
X120011528Y-123912711D01*
X120011528Y-123912710D01*
X120013500Y-123905030D01*
X120013500Y-123884776D01*
X120015051Y-123865065D01*
X120016980Y-123852886D01*
X120018220Y-123845057D01*
X120014059Y-123801038D01*
X120013500Y-123789181D01*
X120013500Y-107213925D01*
X120033502Y-107145804D01*
X120087158Y-107099311D01*
X120157432Y-107089207D01*
X120222012Y-107118701D01*
X120228595Y-107124830D01*
X127040517Y-113936752D01*
X127074543Y-113999064D01*
X127073128Y-114058459D01*
X127057551Y-114116591D01*
X127057550Y-114116598D01*
X127056126Y-114121913D01*
X127036171Y-114350000D01*
X127056126Y-114578087D01*
X127057550Y-114583400D01*
X127057550Y-114583402D01*
X127093445Y-114717361D01*
X127115385Y-114799243D01*
X127117708Y-114804224D01*
X127117708Y-114804225D01*
X127209820Y-115001762D01*
X127209823Y-115001767D01*
X127212146Y-115006749D01*
X127343471Y-115194300D01*
X127505369Y-115356198D01*
X127509877Y-115359355D01*
X127509880Y-115359357D01*
X127588058Y-115414098D01*
X127692920Y-115487523D01*
X127697902Y-115489846D01*
X127697907Y-115489849D01*
X127895444Y-115581961D01*
X127900426Y-115584284D01*
X127905734Y-115585706D01*
X127905736Y-115585707D01*
X128008688Y-115613293D01*
X128069311Y-115650245D01*
X128100332Y-115714106D01*
X128091904Y-115784600D01*
X128046701Y-115839347D01*
X128008688Y-115856707D01*
X127905736Y-115884293D01*
X127905734Y-115884294D01*
X127900426Y-115885716D01*
X127895445Y-115888039D01*
X127895444Y-115888039D01*
X127697907Y-115980151D01*
X127697902Y-115980154D01*
X127692920Y-115982477D01*
X127598877Y-116048327D01*
X127509880Y-116110643D01*
X127509877Y-116110645D01*
X127505369Y-116113802D01*
X127343471Y-116275700D01*
X127340314Y-116280208D01*
X127340312Y-116280211D01*
X127309568Y-116324118D01*
X127212146Y-116463251D01*
X127209823Y-116468233D01*
X127209820Y-116468238D01*
X127123844Y-116652617D01*
X127115385Y-116670757D01*
X127113963Y-116676065D01*
X127113962Y-116676067D01*
X127071218Y-116835590D01*
X127056126Y-116891913D01*
X127036171Y-117120000D01*
X127056126Y-117348087D01*
X127057550Y-117353400D01*
X127057550Y-117353402D01*
X127075111Y-117418938D01*
X127115385Y-117569243D01*
X127117708Y-117574224D01*
X127117708Y-117574225D01*
X127209820Y-117771762D01*
X127209823Y-117771767D01*
X127212146Y-117776749D01*
X127343471Y-117964300D01*
X127505369Y-118126198D01*
X127509877Y-118129355D01*
X127509880Y-118129357D01*
X127578183Y-118177183D01*
X127692920Y-118257523D01*
X127697902Y-118259846D01*
X127697907Y-118259849D01*
X127895444Y-118351961D01*
X127900426Y-118354284D01*
X127905734Y-118355706D01*
X127905736Y-118355707D01*
X128008688Y-118383293D01*
X128069311Y-118420245D01*
X128100332Y-118484106D01*
X128091904Y-118554600D01*
X128046701Y-118609347D01*
X128008688Y-118626707D01*
X127905736Y-118654293D01*
X127905734Y-118654294D01*
X127900426Y-118655716D01*
X127895445Y-118658039D01*
X127895444Y-118658039D01*
X127697907Y-118750151D01*
X127697902Y-118750154D01*
X127692920Y-118752477D01*
X127658415Y-118776638D01*
X127509880Y-118880643D01*
X127509877Y-118880645D01*
X127505369Y-118883802D01*
X127343471Y-119045700D01*
X127212146Y-119233251D01*
X127209823Y-119238233D01*
X127209820Y-119238238D01*
X127143017Y-119381500D01*
X127115385Y-119440757D01*
X127113963Y-119446065D01*
X127113962Y-119446067D01*
X127074856Y-119592012D01*
X127056126Y-119661913D01*
X127036171Y-119890000D01*
X127056126Y-120118087D01*
X127057550Y-120123400D01*
X127057550Y-120123402D01*
X127107020Y-120308023D01*
X127115385Y-120339243D01*
X127117708Y-120344224D01*
X127117708Y-120344225D01*
X127209820Y-120541762D01*
X127209823Y-120541767D01*
X127212146Y-120546749D01*
X127259232Y-120613994D01*
X127335510Y-120722930D01*
X127343471Y-120734300D01*
X127505369Y-120896198D01*
X127509877Y-120899355D01*
X127509880Y-120899357D01*
X127588058Y-120954098D01*
X127692920Y-121027523D01*
X127697902Y-121029846D01*
X127697907Y-121029849D01*
X127771512Y-121064171D01*
X127900426Y-121124284D01*
X127905734Y-121125706D01*
X127905736Y-121125707D01*
X128008688Y-121153293D01*
X128069311Y-121190245D01*
X128100332Y-121254106D01*
X128091904Y-121324600D01*
X128046701Y-121379347D01*
X128008688Y-121396707D01*
X127905736Y-121424293D01*
X127905734Y-121424294D01*
X127900426Y-121425716D01*
X127895445Y-121428039D01*
X127895444Y-121428039D01*
X127697907Y-121520151D01*
X127697902Y-121520154D01*
X127692920Y-121522477D01*
X127628992Y-121567240D01*
X127509880Y-121650643D01*
X127509877Y-121650645D01*
X127505369Y-121653802D01*
X127343471Y-121815700D01*
X127340314Y-121820208D01*
X127340312Y-121820211D01*
X127316220Y-121854618D01*
X127212146Y-122003251D01*
X127209823Y-122008233D01*
X127209820Y-122008238D01*
X127154966Y-122125875D01*
X127115385Y-122210757D01*
X127113963Y-122216065D01*
X127113962Y-122216067D01*
X127074856Y-122362012D01*
X127056126Y-122431913D01*
X127036171Y-122660000D01*
X127056126Y-122888087D01*
X127057550Y-122893400D01*
X127057550Y-122893402D01*
X127103870Y-123066267D01*
X127115385Y-123109243D01*
X127117708Y-123114224D01*
X127117708Y-123114225D01*
X127209820Y-123311762D01*
X127209823Y-123311767D01*
X127212146Y-123316749D01*
X127246255Y-123365461D01*
X127300891Y-123443489D01*
X127343471Y-123504300D01*
X127505369Y-123666198D01*
X127509877Y-123669355D01*
X127509880Y-123669357D01*
X127574317Y-123714476D01*
X127692920Y-123797523D01*
X127697902Y-123799846D01*
X127697907Y-123799849D01*
X127880036Y-123884776D01*
X127900426Y-123894284D01*
X127905734Y-123895706D01*
X127905736Y-123895707D01*
X128008688Y-123923293D01*
X128069311Y-123960245D01*
X128100332Y-124024106D01*
X128091904Y-124094600D01*
X128046701Y-124149347D01*
X128008688Y-124166707D01*
X127905736Y-124194293D01*
X127905734Y-124194294D01*
X127900426Y-124195716D01*
X127895445Y-124198039D01*
X127895444Y-124198039D01*
X127697907Y-124290151D01*
X127697902Y-124290154D01*
X127692920Y-124292477D01*
X127650173Y-124322409D01*
X127509880Y-124420643D01*
X127509877Y-124420645D01*
X127505369Y-124423802D01*
X127343471Y-124585700D01*
X127212146Y-124773251D01*
X127209823Y-124778233D01*
X127209820Y-124778238D01*
X127163599Y-124877361D01*
X127115385Y-124980757D01*
X127113963Y-124986065D01*
X127113962Y-124986067D01*
X127074856Y-125132012D01*
X127056126Y-125201913D01*
X127036171Y-125430000D01*
X127056126Y-125658087D01*
X127057550Y-125663400D01*
X127057550Y-125663402D01*
X127093369Y-125797077D01*
X127115385Y-125879243D01*
X127117708Y-125884224D01*
X127117708Y-125884225D01*
X127209820Y-126081762D01*
X127209823Y-126081767D01*
X127212146Y-126086749D01*
X127259232Y-126153994D01*
X127328216Y-126252513D01*
X127343471Y-126274300D01*
X127505369Y-126436198D01*
X127509877Y-126439355D01*
X127509880Y-126439357D01*
X127560822Y-126475027D01*
X127692920Y-126567523D01*
X127697902Y-126569846D01*
X127697907Y-126569849D01*
X127848022Y-126639848D01*
X127900426Y-126664284D01*
X127905734Y-126665706D01*
X127905736Y-126665707D01*
X128008688Y-126693293D01*
X128069311Y-126730245D01*
X128100332Y-126794106D01*
X128091904Y-126864600D01*
X128046701Y-126919347D01*
X128008688Y-126936707D01*
X127905736Y-126964293D01*
X127905734Y-126964294D01*
X127900426Y-126965716D01*
X127895445Y-126968039D01*
X127895444Y-126968039D01*
X127697907Y-127060151D01*
X127697902Y-127060154D01*
X127692920Y-127062477D01*
X127588058Y-127135902D01*
X127509880Y-127190643D01*
X127509877Y-127190645D01*
X127505369Y-127193802D01*
X127343471Y-127355700D01*
X127340314Y-127360208D01*
X127340312Y-127360211D01*
X127300295Y-127417361D01*
X127212146Y-127543251D01*
X127209823Y-127548233D01*
X127209820Y-127548238D01*
X127184893Y-127601695D01*
X127115385Y-127750757D01*
X127113963Y-127756065D01*
X127113962Y-127756067D01*
X127074856Y-127902012D01*
X127056126Y-127971913D01*
X127036171Y-128200000D01*
X127056126Y-128428087D01*
X127057550Y-128433400D01*
X127057550Y-128433402D01*
X127094938Y-128572933D01*
X127115385Y-128649243D01*
X127117708Y-128654224D01*
X127117708Y-128654225D01*
X127209820Y-128851762D01*
X127209823Y-128851767D01*
X127212146Y-128856749D01*
X127265880Y-128933489D01*
X127311051Y-128997999D01*
X127343471Y-129044300D01*
X127505369Y-129206198D01*
X127509877Y-129209355D01*
X127509880Y-129209357D01*
X127588058Y-129264098D01*
X127692920Y-129337523D01*
X127697902Y-129339846D01*
X127697907Y-129339849D01*
X127872592Y-129421305D01*
X127925877Y-129468222D01*
X127945338Y-129536499D01*
X127924796Y-129604459D01*
X127870774Y-129650525D01*
X127819342Y-129661500D01*
X127501535Y-129661500D01*
X127439353Y-129668255D01*
X127302964Y-129719385D01*
X127186408Y-129806739D01*
X127099054Y-129923295D01*
X127047924Y-130059684D01*
X127041169Y-130121866D01*
X127041169Y-131818134D01*
X127047924Y-131880316D01*
X127099054Y-132016705D01*
X127186408Y-132133261D01*
X127302964Y-132220615D01*
X127439353Y-132271745D01*
X127501535Y-132278500D01*
X129197803Y-132278500D01*
X129259985Y-132271745D01*
X129396374Y-132220615D01*
X129512930Y-132133261D01*
X129600284Y-132016705D01*
X129651414Y-131880316D01*
X129658169Y-131818134D01*
X129658169Y-130671062D01*
X130468162Y-130671062D01*
X130477458Y-130683077D01*
X130528663Y-130718931D01*
X130538158Y-130724414D01*
X130735616Y-130816490D01*
X130745908Y-130820236D01*
X130956357Y-130876625D01*
X130967150Y-130878528D01*
X131184194Y-130897517D01*
X131195144Y-130897517D01*
X131412188Y-130878528D01*
X131422981Y-130876625D01*
X131633430Y-130820236D01*
X131643722Y-130816490D01*
X131841180Y-130724414D01*
X131850675Y-130718931D01*
X131902717Y-130682491D01*
X131911093Y-130672012D01*
X131904025Y-130658566D01*
X131202481Y-129957022D01*
X131188537Y-129949408D01*
X131186704Y-129949539D01*
X131180089Y-129953790D01*
X130474592Y-130659287D01*
X130468162Y-130671062D01*
X129658169Y-130671062D01*
X129658169Y-130121866D01*
X129651414Y-130059684D01*
X129600284Y-129923295D01*
X129512930Y-129806739D01*
X129396374Y-129719385D01*
X129259985Y-129668255D01*
X129197803Y-129661500D01*
X128879996Y-129661500D01*
X128811875Y-129641498D01*
X128767663Y-129590475D01*
X129877152Y-129590475D01*
X129896141Y-129807519D01*
X129898044Y-129818312D01*
X129954433Y-130028761D01*
X129958179Y-130039053D01*
X130050255Y-130236511D01*
X130055738Y-130246006D01*
X130092178Y-130298048D01*
X130102657Y-130306424D01*
X130116103Y-130299356D01*
X130817647Y-129597812D01*
X130824025Y-129586132D01*
X131554077Y-129586132D01*
X131554208Y-129587965D01*
X131558459Y-129594580D01*
X132263956Y-130300077D01*
X132275731Y-130306507D01*
X132287746Y-130297211D01*
X132323600Y-130246006D01*
X132329083Y-130236511D01*
X132421159Y-130039053D01*
X132424905Y-130028761D01*
X132481294Y-129818312D01*
X132483197Y-129807519D01*
X132502186Y-129590475D01*
X132502186Y-129579525D01*
X132483197Y-129362481D01*
X132481294Y-129351688D01*
X132424905Y-129141239D01*
X132421159Y-129130947D01*
X132329083Y-128933489D01*
X132323600Y-128923994D01*
X132287160Y-128871952D01*
X132276681Y-128863576D01*
X132263235Y-128870644D01*
X131561691Y-129572188D01*
X131554077Y-129586132D01*
X130824025Y-129586132D01*
X130825261Y-129583868D01*
X130825130Y-129582035D01*
X130820879Y-129575420D01*
X130115382Y-128869923D01*
X130103607Y-128863493D01*
X130091592Y-128872789D01*
X130055738Y-128923994D01*
X130050255Y-128933489D01*
X129958179Y-129130947D01*
X129954433Y-129141239D01*
X129898044Y-129351688D01*
X129896141Y-129362481D01*
X129877152Y-129579525D01*
X129877152Y-129590475D01*
X128767663Y-129590475D01*
X128765382Y-129587842D01*
X128755278Y-129517568D01*
X128784772Y-129452988D01*
X128826746Y-129421305D01*
X129001431Y-129339849D01*
X129001436Y-129339846D01*
X129006418Y-129337523D01*
X129111280Y-129264098D01*
X129189458Y-129209357D01*
X129189461Y-129209355D01*
X129193969Y-129206198D01*
X129355867Y-129044300D01*
X129388288Y-128997999D01*
X129433458Y-128933489D01*
X129487192Y-128856749D01*
X129489515Y-128851767D01*
X129489518Y-128851762D01*
X129581630Y-128654225D01*
X129581630Y-128654224D01*
X129583953Y-128649243D01*
X129604401Y-128572933D01*
X129641788Y-128433402D01*
X129641788Y-128433400D01*
X129643212Y-128428087D01*
X129663167Y-128200000D01*
X129643212Y-127971913D01*
X129624482Y-127902012D01*
X129624227Y-127901062D01*
X130468162Y-127901062D01*
X130477458Y-127913077D01*
X130528663Y-127948931D01*
X130538158Y-127954414D01*
X130735616Y-128046490D01*
X130745908Y-128050236D01*
X130850619Y-128078293D01*
X130911242Y-128115245D01*
X130942263Y-128179105D01*
X130933835Y-128249600D01*
X130888632Y-128304347D01*
X130850619Y-128321707D01*
X130745908Y-128349764D01*
X130735616Y-128353510D01*
X130538158Y-128445586D01*
X130528663Y-128451069D01*
X130476621Y-128487509D01*
X130468245Y-128497988D01*
X130475313Y-128511434D01*
X131176857Y-129212978D01*
X131190801Y-129220592D01*
X131192634Y-129220461D01*
X131199249Y-129216210D01*
X131904746Y-128510713D01*
X131911176Y-128498938D01*
X131901880Y-128486923D01*
X131850675Y-128451069D01*
X131841180Y-128445586D01*
X131643722Y-128353510D01*
X131633430Y-128349764D01*
X131528719Y-128321707D01*
X131468096Y-128284755D01*
X131437075Y-128220895D01*
X131445503Y-128150400D01*
X131490706Y-128095653D01*
X131528719Y-128078293D01*
X131633430Y-128050236D01*
X131643722Y-128046490D01*
X131841180Y-127954414D01*
X131850675Y-127948931D01*
X131902717Y-127912491D01*
X131911093Y-127902012D01*
X131904025Y-127888566D01*
X131202481Y-127187022D01*
X131188537Y-127179408D01*
X131186704Y-127179539D01*
X131180089Y-127183790D01*
X130474592Y-127889287D01*
X130468162Y-127901062D01*
X129624227Y-127901062D01*
X129585376Y-127756067D01*
X129585375Y-127756065D01*
X129583953Y-127750757D01*
X129514445Y-127601695D01*
X129489518Y-127548238D01*
X129489515Y-127548233D01*
X129487192Y-127543251D01*
X129399043Y-127417361D01*
X129359026Y-127360211D01*
X129359024Y-127360208D01*
X129355867Y-127355700D01*
X129193969Y-127193802D01*
X129189461Y-127190645D01*
X129189458Y-127190643D01*
X129111280Y-127135902D01*
X129006418Y-127062477D01*
X129001436Y-127060154D01*
X129001431Y-127060151D01*
X128803894Y-126968039D01*
X128803893Y-126968039D01*
X128798912Y-126965716D01*
X128793604Y-126964294D01*
X128793602Y-126964293D01*
X128690650Y-126936707D01*
X128630027Y-126899755D01*
X128599006Y-126835894D01*
X128600849Y-126820475D01*
X129877152Y-126820475D01*
X129896141Y-127037519D01*
X129898044Y-127048312D01*
X129954433Y-127258761D01*
X129958179Y-127269053D01*
X130050255Y-127466511D01*
X130055738Y-127476006D01*
X130092178Y-127528048D01*
X130102657Y-127536424D01*
X130116103Y-127529356D01*
X130817647Y-126827812D01*
X130824025Y-126816132D01*
X131554077Y-126816132D01*
X131554208Y-126817965D01*
X131558459Y-126824580D01*
X132263956Y-127530077D01*
X132275731Y-127536507D01*
X132287746Y-127527211D01*
X132323600Y-127476006D01*
X132329083Y-127466511D01*
X132421159Y-127269053D01*
X132424905Y-127258761D01*
X132481294Y-127048312D01*
X132483197Y-127037519D01*
X132502186Y-126820475D01*
X132502186Y-126809525D01*
X132483197Y-126592481D01*
X132481294Y-126581688D01*
X132424905Y-126371239D01*
X132421159Y-126360947D01*
X132329083Y-126163489D01*
X132323600Y-126153994D01*
X132287160Y-126101952D01*
X132276681Y-126093576D01*
X132263235Y-126100644D01*
X131561691Y-126802188D01*
X131554077Y-126816132D01*
X130824025Y-126816132D01*
X130825261Y-126813868D01*
X130825130Y-126812035D01*
X130820879Y-126805420D01*
X130115382Y-126099923D01*
X130103607Y-126093493D01*
X130091592Y-126102789D01*
X130055738Y-126153994D01*
X130050255Y-126163489D01*
X129958179Y-126360947D01*
X129954433Y-126371239D01*
X129898044Y-126581688D01*
X129896141Y-126592481D01*
X129877152Y-126809525D01*
X129877152Y-126820475D01*
X128600849Y-126820475D01*
X128607434Y-126765400D01*
X128652637Y-126710653D01*
X128690650Y-126693293D01*
X128793602Y-126665707D01*
X128793604Y-126665706D01*
X128798912Y-126664284D01*
X128851316Y-126639848D01*
X129001431Y-126569849D01*
X129001436Y-126569846D01*
X129006418Y-126567523D01*
X129138516Y-126475027D01*
X129189458Y-126439357D01*
X129189461Y-126439355D01*
X129193969Y-126436198D01*
X129355867Y-126274300D01*
X129371123Y-126252513D01*
X129440106Y-126153994D01*
X129487192Y-126086749D01*
X129489515Y-126081767D01*
X129489518Y-126081762D01*
X129581630Y-125884225D01*
X129581630Y-125884224D01*
X129583953Y-125879243D01*
X129605970Y-125797077D01*
X129641788Y-125663402D01*
X129641788Y-125663400D01*
X129643212Y-125658087D01*
X129663167Y-125430000D01*
X129643212Y-125201913D01*
X129624482Y-125132012D01*
X129624227Y-125131062D01*
X130468162Y-125131062D01*
X130477458Y-125143077D01*
X130528663Y-125178931D01*
X130538158Y-125184414D01*
X130735616Y-125276490D01*
X130745908Y-125280236D01*
X130850619Y-125308293D01*
X130911242Y-125345245D01*
X130942263Y-125409105D01*
X130933835Y-125479600D01*
X130888632Y-125534347D01*
X130850619Y-125551707D01*
X130745908Y-125579764D01*
X130735616Y-125583510D01*
X130538158Y-125675586D01*
X130528663Y-125681069D01*
X130476621Y-125717509D01*
X130468245Y-125727988D01*
X130475313Y-125741434D01*
X131176857Y-126442978D01*
X131190801Y-126450592D01*
X131192634Y-126450461D01*
X131199249Y-126446210D01*
X131904746Y-125740713D01*
X131911176Y-125728938D01*
X131901880Y-125716923D01*
X131850675Y-125681069D01*
X131841180Y-125675586D01*
X131643722Y-125583510D01*
X131633430Y-125579764D01*
X131528719Y-125551707D01*
X131468096Y-125514755D01*
X131437075Y-125450895D01*
X131445503Y-125380400D01*
X131490706Y-125325653D01*
X131528719Y-125308293D01*
X131633430Y-125280236D01*
X131643722Y-125276490D01*
X131841180Y-125184414D01*
X131850675Y-125178931D01*
X131902717Y-125142491D01*
X131911093Y-125132012D01*
X131904025Y-125118566D01*
X131202481Y-124417022D01*
X131188537Y-124409408D01*
X131186704Y-124409539D01*
X131180089Y-124413790D01*
X130474592Y-125119287D01*
X130468162Y-125131062D01*
X129624227Y-125131062D01*
X129585376Y-124986067D01*
X129585375Y-124986065D01*
X129583953Y-124980757D01*
X129535739Y-124877361D01*
X129489518Y-124778238D01*
X129489515Y-124778233D01*
X129487192Y-124773251D01*
X129355867Y-124585700D01*
X129193969Y-124423802D01*
X129189461Y-124420645D01*
X129189458Y-124420643D01*
X129049165Y-124322409D01*
X129006418Y-124292477D01*
X129001436Y-124290154D01*
X129001431Y-124290151D01*
X128803894Y-124198039D01*
X128803893Y-124198039D01*
X128798912Y-124195716D01*
X128793604Y-124194294D01*
X128793602Y-124194293D01*
X128690650Y-124166707D01*
X128630027Y-124129755D01*
X128599006Y-124065894D01*
X128600849Y-124050475D01*
X129877152Y-124050475D01*
X129896141Y-124267519D01*
X129898044Y-124278312D01*
X129954433Y-124488761D01*
X129958179Y-124499053D01*
X130050255Y-124696511D01*
X130055738Y-124706006D01*
X130092178Y-124758048D01*
X130102657Y-124766424D01*
X130116103Y-124759356D01*
X130817647Y-124057812D01*
X130824025Y-124046132D01*
X131554077Y-124046132D01*
X131554208Y-124047965D01*
X131558459Y-124054580D01*
X132263956Y-124760077D01*
X132275731Y-124766507D01*
X132287746Y-124757211D01*
X132323600Y-124706006D01*
X132329083Y-124696511D01*
X132421159Y-124499053D01*
X132424905Y-124488761D01*
X132481294Y-124278312D01*
X132483197Y-124267519D01*
X132502186Y-124050475D01*
X132502186Y-124039525D01*
X132483197Y-123822481D01*
X132481294Y-123811688D01*
X132424905Y-123601239D01*
X132421159Y-123590947D01*
X132329083Y-123393489D01*
X132323600Y-123383994D01*
X132287160Y-123331952D01*
X132276681Y-123323576D01*
X132263235Y-123330644D01*
X131561691Y-124032188D01*
X131554077Y-124046132D01*
X130824025Y-124046132D01*
X130825261Y-124043868D01*
X130825130Y-124042035D01*
X130820879Y-124035420D01*
X130115382Y-123329923D01*
X130103607Y-123323493D01*
X130091592Y-123332789D01*
X130055738Y-123383994D01*
X130050255Y-123393489D01*
X129958179Y-123590947D01*
X129954433Y-123601239D01*
X129898044Y-123811688D01*
X129896141Y-123822481D01*
X129877152Y-124039525D01*
X129877152Y-124050475D01*
X128600849Y-124050475D01*
X128607434Y-123995400D01*
X128652637Y-123940653D01*
X128690650Y-123923293D01*
X128793602Y-123895707D01*
X128793604Y-123895706D01*
X128798912Y-123894284D01*
X128819302Y-123884776D01*
X129001431Y-123799849D01*
X129001436Y-123799846D01*
X129006418Y-123797523D01*
X129125021Y-123714476D01*
X129189458Y-123669357D01*
X129189461Y-123669355D01*
X129193969Y-123666198D01*
X129355867Y-123504300D01*
X129398448Y-123443489D01*
X129453083Y-123365461D01*
X129487192Y-123316749D01*
X129489515Y-123311767D01*
X129489518Y-123311762D01*
X129581630Y-123114225D01*
X129581630Y-123114224D01*
X129583953Y-123109243D01*
X129595469Y-123066267D01*
X129641788Y-122893402D01*
X129641788Y-122893400D01*
X129643212Y-122888087D01*
X129663167Y-122660000D01*
X129643212Y-122431913D01*
X129624482Y-122362012D01*
X129624227Y-122361062D01*
X130468162Y-122361062D01*
X130477458Y-122373077D01*
X130528663Y-122408931D01*
X130538158Y-122414414D01*
X130735616Y-122506490D01*
X130745908Y-122510236D01*
X130850619Y-122538293D01*
X130911242Y-122575245D01*
X130942263Y-122639105D01*
X130933835Y-122709600D01*
X130888632Y-122764347D01*
X130850619Y-122781707D01*
X130745908Y-122809764D01*
X130735616Y-122813510D01*
X130538158Y-122905586D01*
X130528663Y-122911069D01*
X130476621Y-122947509D01*
X130468245Y-122957988D01*
X130475313Y-122971434D01*
X131176857Y-123672978D01*
X131190801Y-123680592D01*
X131192634Y-123680461D01*
X131199249Y-123676210D01*
X131904746Y-122970713D01*
X131911176Y-122958938D01*
X131901880Y-122946923D01*
X131850675Y-122911069D01*
X131841180Y-122905586D01*
X131643722Y-122813510D01*
X131633430Y-122809764D01*
X131528719Y-122781707D01*
X131468096Y-122744755D01*
X131437075Y-122680895D01*
X131445503Y-122610400D01*
X131490706Y-122555653D01*
X131528719Y-122538293D01*
X131633430Y-122510236D01*
X131643722Y-122506490D01*
X131841180Y-122414414D01*
X131850675Y-122408931D01*
X131902717Y-122372491D01*
X131911093Y-122362012D01*
X131904025Y-122348566D01*
X131202481Y-121647022D01*
X131188537Y-121639408D01*
X131186704Y-121639539D01*
X131180089Y-121643790D01*
X130474592Y-122349287D01*
X130468162Y-122361062D01*
X129624227Y-122361062D01*
X129585376Y-122216067D01*
X129585375Y-122216065D01*
X129583953Y-122210757D01*
X129544372Y-122125875D01*
X129489518Y-122008238D01*
X129489515Y-122008233D01*
X129487192Y-122003251D01*
X129383118Y-121854618D01*
X129359026Y-121820211D01*
X129359024Y-121820208D01*
X129355867Y-121815700D01*
X129193969Y-121653802D01*
X129189461Y-121650645D01*
X129189458Y-121650643D01*
X129070346Y-121567240D01*
X129006418Y-121522477D01*
X129001436Y-121520154D01*
X129001431Y-121520151D01*
X128803894Y-121428039D01*
X128803893Y-121428039D01*
X128798912Y-121425716D01*
X128793604Y-121424294D01*
X128793602Y-121424293D01*
X128690650Y-121396707D01*
X128630027Y-121359755D01*
X128599006Y-121295894D01*
X128600849Y-121280475D01*
X129877152Y-121280475D01*
X129896141Y-121497519D01*
X129898044Y-121508312D01*
X129954433Y-121718761D01*
X129958179Y-121729053D01*
X130050255Y-121926511D01*
X130055738Y-121936006D01*
X130092178Y-121988048D01*
X130102657Y-121996424D01*
X130116103Y-121989356D01*
X130817647Y-121287812D01*
X130824025Y-121276132D01*
X131554077Y-121276132D01*
X131554208Y-121277965D01*
X131558459Y-121284580D01*
X132263956Y-121990077D01*
X132275731Y-121996507D01*
X132287746Y-121987211D01*
X132323600Y-121936006D01*
X132329083Y-121926511D01*
X132421159Y-121729053D01*
X132424905Y-121718761D01*
X132481294Y-121508312D01*
X132483197Y-121497519D01*
X132502186Y-121280475D01*
X132502186Y-121269525D01*
X132483197Y-121052481D01*
X132481294Y-121041688D01*
X132424905Y-120831239D01*
X132421159Y-120820947D01*
X132329083Y-120623489D01*
X132323600Y-120613994D01*
X132287160Y-120561952D01*
X132276681Y-120553576D01*
X132263235Y-120560644D01*
X131561691Y-121262188D01*
X131554077Y-121276132D01*
X130824025Y-121276132D01*
X130825261Y-121273868D01*
X130825130Y-121272035D01*
X130820879Y-121265420D01*
X130115382Y-120559923D01*
X130103607Y-120553493D01*
X130091592Y-120562789D01*
X130055738Y-120613994D01*
X130050255Y-120623489D01*
X129958179Y-120820947D01*
X129954433Y-120831239D01*
X129898044Y-121041688D01*
X129896141Y-121052481D01*
X129877152Y-121269525D01*
X129877152Y-121280475D01*
X128600849Y-121280475D01*
X128607434Y-121225400D01*
X128652637Y-121170653D01*
X128690650Y-121153293D01*
X128793602Y-121125707D01*
X128793604Y-121125706D01*
X128798912Y-121124284D01*
X128927826Y-121064171D01*
X129001431Y-121029849D01*
X129001436Y-121029846D01*
X129006418Y-121027523D01*
X129111280Y-120954098D01*
X129189458Y-120899357D01*
X129189461Y-120899355D01*
X129193969Y-120896198D01*
X129355867Y-120734300D01*
X129363829Y-120722930D01*
X129440106Y-120613994D01*
X129487192Y-120546749D01*
X129489515Y-120541767D01*
X129489518Y-120541762D01*
X129581630Y-120344225D01*
X129581630Y-120344224D01*
X129583953Y-120339243D01*
X129592319Y-120308023D01*
X129641788Y-120123402D01*
X129641788Y-120123400D01*
X129643212Y-120118087D01*
X129663167Y-119890000D01*
X129643212Y-119661913D01*
X129624482Y-119592012D01*
X129624227Y-119591062D01*
X130468162Y-119591062D01*
X130477458Y-119603077D01*
X130528663Y-119638931D01*
X130538158Y-119644414D01*
X130735616Y-119736490D01*
X130745908Y-119740236D01*
X130850619Y-119768293D01*
X130911242Y-119805245D01*
X130942263Y-119869105D01*
X130933835Y-119939600D01*
X130888632Y-119994347D01*
X130850619Y-120011707D01*
X130745908Y-120039764D01*
X130735616Y-120043510D01*
X130538158Y-120135586D01*
X130528663Y-120141069D01*
X130476621Y-120177509D01*
X130468245Y-120187988D01*
X130475313Y-120201434D01*
X131176857Y-120902978D01*
X131190801Y-120910592D01*
X131192634Y-120910461D01*
X131199249Y-120906210D01*
X131904746Y-120200713D01*
X131911176Y-120188938D01*
X131901880Y-120176923D01*
X131850675Y-120141069D01*
X131841180Y-120135586D01*
X131643722Y-120043510D01*
X131633430Y-120039764D01*
X131528719Y-120011707D01*
X131468096Y-119974755D01*
X131437075Y-119910895D01*
X131445503Y-119840400D01*
X131490706Y-119785653D01*
X131528719Y-119768293D01*
X131633430Y-119740236D01*
X131643722Y-119736490D01*
X131841180Y-119644414D01*
X131850675Y-119638931D01*
X131902717Y-119602491D01*
X131911093Y-119592012D01*
X131904025Y-119578566D01*
X131202481Y-118877022D01*
X131188537Y-118869408D01*
X131186704Y-118869539D01*
X131180089Y-118873790D01*
X130474592Y-119579287D01*
X130468162Y-119591062D01*
X129624227Y-119591062D01*
X129585376Y-119446067D01*
X129585375Y-119446065D01*
X129583953Y-119440757D01*
X129556321Y-119381500D01*
X129489518Y-119238238D01*
X129489515Y-119238233D01*
X129487192Y-119233251D01*
X129355867Y-119045700D01*
X129193969Y-118883802D01*
X129189461Y-118880645D01*
X129189458Y-118880643D01*
X129040923Y-118776638D01*
X129006418Y-118752477D01*
X129001436Y-118750154D01*
X129001431Y-118750151D01*
X128803894Y-118658039D01*
X128803893Y-118658039D01*
X128798912Y-118655716D01*
X128793604Y-118654294D01*
X128793602Y-118654293D01*
X128690650Y-118626707D01*
X128630027Y-118589755D01*
X128599006Y-118525894D01*
X128600849Y-118510475D01*
X129877152Y-118510475D01*
X129896141Y-118727519D01*
X129898044Y-118738312D01*
X129954433Y-118948761D01*
X129958179Y-118959053D01*
X130050255Y-119156511D01*
X130055738Y-119166006D01*
X130092178Y-119218048D01*
X130102657Y-119226424D01*
X130116103Y-119219356D01*
X130817647Y-118517812D01*
X130824025Y-118506132D01*
X131554077Y-118506132D01*
X131554208Y-118507965D01*
X131558459Y-118514580D01*
X132263956Y-119220077D01*
X132275731Y-119226507D01*
X132287746Y-119217211D01*
X132323600Y-119166006D01*
X132329083Y-119156511D01*
X132421159Y-118959053D01*
X132424905Y-118948761D01*
X132481294Y-118738312D01*
X132483197Y-118727519D01*
X132502186Y-118510475D01*
X132502186Y-118499525D01*
X132483197Y-118282481D01*
X132481294Y-118271688D01*
X132424905Y-118061239D01*
X132421159Y-118050947D01*
X132329083Y-117853489D01*
X132323600Y-117843994D01*
X132287160Y-117791952D01*
X132276681Y-117783576D01*
X132263235Y-117790644D01*
X131561691Y-118492188D01*
X131554077Y-118506132D01*
X130824025Y-118506132D01*
X130825261Y-118503868D01*
X130825130Y-118502035D01*
X130820879Y-118495420D01*
X130115382Y-117789923D01*
X130103607Y-117783493D01*
X130091592Y-117792789D01*
X130055738Y-117843994D01*
X130050255Y-117853489D01*
X129958179Y-118050947D01*
X129954433Y-118061239D01*
X129898044Y-118271688D01*
X129896141Y-118282481D01*
X129877152Y-118499525D01*
X129877152Y-118510475D01*
X128600849Y-118510475D01*
X128607434Y-118455400D01*
X128652637Y-118400653D01*
X128690650Y-118383293D01*
X128793602Y-118355707D01*
X128793604Y-118355706D01*
X128798912Y-118354284D01*
X128803894Y-118351961D01*
X129001431Y-118259849D01*
X129001436Y-118259846D01*
X129006418Y-118257523D01*
X129121155Y-118177183D01*
X129189458Y-118129357D01*
X129189461Y-118129355D01*
X129193969Y-118126198D01*
X129355867Y-117964300D01*
X129487192Y-117776749D01*
X129489515Y-117771767D01*
X129489518Y-117771762D01*
X129581630Y-117574225D01*
X129581630Y-117574224D01*
X129583953Y-117569243D01*
X129624228Y-117418938D01*
X129641788Y-117353402D01*
X129641788Y-117353400D01*
X129643212Y-117348087D01*
X129663167Y-117120000D01*
X129643212Y-116891913D01*
X129628120Y-116835590D01*
X129624227Y-116821062D01*
X130468162Y-116821062D01*
X130477458Y-116833077D01*
X130528663Y-116868931D01*
X130538158Y-116874414D01*
X130735616Y-116966490D01*
X130745908Y-116970236D01*
X130850619Y-116998293D01*
X130911242Y-117035245D01*
X130942263Y-117099105D01*
X130933835Y-117169600D01*
X130888632Y-117224347D01*
X130850619Y-117241707D01*
X130745908Y-117269764D01*
X130735616Y-117273510D01*
X130538158Y-117365586D01*
X130528663Y-117371069D01*
X130476621Y-117407509D01*
X130468245Y-117417988D01*
X130475313Y-117431434D01*
X131176857Y-118132978D01*
X131190801Y-118140592D01*
X131192634Y-118140461D01*
X131199249Y-118136210D01*
X131904746Y-117430713D01*
X131911176Y-117418938D01*
X131901880Y-117406923D01*
X131850675Y-117371069D01*
X131841180Y-117365586D01*
X131643722Y-117273510D01*
X131633430Y-117269764D01*
X131528719Y-117241707D01*
X131468096Y-117204755D01*
X131437075Y-117140895D01*
X131445503Y-117070400D01*
X131490706Y-117015653D01*
X131528719Y-116998293D01*
X131633430Y-116970236D01*
X131643722Y-116966490D01*
X131841180Y-116874414D01*
X131850675Y-116868931D01*
X131902717Y-116832491D01*
X131911093Y-116822012D01*
X131904025Y-116808566D01*
X131202481Y-116107022D01*
X131188537Y-116099408D01*
X131186704Y-116099539D01*
X131180089Y-116103790D01*
X130474592Y-116809287D01*
X130468162Y-116821062D01*
X129624227Y-116821062D01*
X129585376Y-116676067D01*
X129585375Y-116676065D01*
X129583953Y-116670757D01*
X129575494Y-116652617D01*
X129489518Y-116468238D01*
X129489515Y-116468233D01*
X129487192Y-116463251D01*
X129389770Y-116324118D01*
X129359026Y-116280211D01*
X129359024Y-116280208D01*
X129355867Y-116275700D01*
X129193969Y-116113802D01*
X129189461Y-116110645D01*
X129189458Y-116110643D01*
X129100461Y-116048327D01*
X129006418Y-115982477D01*
X129001436Y-115980154D01*
X129001431Y-115980151D01*
X128803894Y-115888039D01*
X128803893Y-115888039D01*
X128798912Y-115885716D01*
X128793604Y-115884294D01*
X128793602Y-115884293D01*
X128690650Y-115856707D01*
X128630027Y-115819755D01*
X128599006Y-115755894D01*
X128600849Y-115740475D01*
X129877152Y-115740475D01*
X129896141Y-115957519D01*
X129898044Y-115968312D01*
X129954433Y-116178761D01*
X129958179Y-116189053D01*
X130050255Y-116386511D01*
X130055738Y-116396006D01*
X130092178Y-116448048D01*
X130102657Y-116456424D01*
X130116103Y-116449356D01*
X130817647Y-115747812D01*
X130824025Y-115736132D01*
X131554077Y-115736132D01*
X131554208Y-115737965D01*
X131558459Y-115744580D01*
X132263956Y-116450077D01*
X132275731Y-116456507D01*
X132287746Y-116447211D01*
X132323600Y-116396006D01*
X132329083Y-116386511D01*
X132421159Y-116189053D01*
X132424905Y-116178761D01*
X132481294Y-115968312D01*
X132483197Y-115957519D01*
X132502186Y-115740475D01*
X132502186Y-115729525D01*
X132483197Y-115512481D01*
X132481294Y-115501688D01*
X132424905Y-115291239D01*
X132421159Y-115280947D01*
X132329083Y-115083489D01*
X132323600Y-115073994D01*
X132287160Y-115021952D01*
X132276681Y-115013576D01*
X132263235Y-115020644D01*
X131561691Y-115722188D01*
X131554077Y-115736132D01*
X130824025Y-115736132D01*
X130825261Y-115733868D01*
X130825130Y-115732035D01*
X130820879Y-115725420D01*
X130115382Y-115019923D01*
X130103607Y-115013493D01*
X130091592Y-115022789D01*
X130055738Y-115073994D01*
X130050255Y-115083489D01*
X129958179Y-115280947D01*
X129954433Y-115291239D01*
X129898044Y-115501688D01*
X129896141Y-115512481D01*
X129877152Y-115729525D01*
X129877152Y-115740475D01*
X128600849Y-115740475D01*
X128607434Y-115685400D01*
X128652637Y-115630653D01*
X128690650Y-115613293D01*
X128793602Y-115585707D01*
X128793604Y-115585706D01*
X128798912Y-115584284D01*
X128803894Y-115581961D01*
X129001431Y-115489849D01*
X129001436Y-115489846D01*
X129006418Y-115487523D01*
X129111280Y-115414098D01*
X129189458Y-115359357D01*
X129189461Y-115359355D01*
X129193969Y-115356198D01*
X129355867Y-115194300D01*
X129487192Y-115006749D01*
X129489515Y-115001767D01*
X129489518Y-115001762D01*
X129581630Y-114804225D01*
X129581630Y-114804224D01*
X129583953Y-114799243D01*
X129605894Y-114717361D01*
X129641788Y-114583402D01*
X129641788Y-114583400D01*
X129643212Y-114578087D01*
X129663167Y-114350000D01*
X129643212Y-114121913D01*
X129639558Y-114108277D01*
X129624227Y-114051062D01*
X130468162Y-114051062D01*
X130477458Y-114063077D01*
X130528663Y-114098931D01*
X130538158Y-114104414D01*
X130735616Y-114196490D01*
X130745908Y-114200236D01*
X130850619Y-114228293D01*
X130911242Y-114265245D01*
X130942263Y-114329105D01*
X130933835Y-114399600D01*
X130888632Y-114454347D01*
X130850619Y-114471707D01*
X130745908Y-114499764D01*
X130735616Y-114503510D01*
X130538158Y-114595586D01*
X130528663Y-114601069D01*
X130476621Y-114637509D01*
X130468245Y-114647988D01*
X130475313Y-114661434D01*
X131176857Y-115362978D01*
X131190801Y-115370592D01*
X131192634Y-115370461D01*
X131199249Y-115366210D01*
X131904746Y-114660713D01*
X131911176Y-114648938D01*
X131901880Y-114636923D01*
X131850675Y-114601069D01*
X131841180Y-114595586D01*
X131643722Y-114503510D01*
X131633430Y-114499764D01*
X131528719Y-114471707D01*
X131468096Y-114434755D01*
X131437075Y-114370895D01*
X131445503Y-114300400D01*
X131490706Y-114245653D01*
X131528719Y-114228293D01*
X131633430Y-114200236D01*
X131643722Y-114196490D01*
X131841180Y-114104414D01*
X131850675Y-114098931D01*
X131902717Y-114062491D01*
X131911093Y-114052012D01*
X131904025Y-114038566D01*
X131202481Y-113337022D01*
X131188537Y-113329408D01*
X131186704Y-113329539D01*
X131180089Y-113333790D01*
X130474592Y-114039287D01*
X130468162Y-114051062D01*
X129624227Y-114051062D01*
X129585376Y-113906067D01*
X129585375Y-113906065D01*
X129583953Y-113900757D01*
X129539114Y-113804598D01*
X129489518Y-113698238D01*
X129489515Y-113698233D01*
X129487192Y-113693251D01*
X129398017Y-113565896D01*
X129359026Y-113510211D01*
X129359024Y-113510208D01*
X129355867Y-113505700D01*
X129193969Y-113343802D01*
X129189461Y-113340645D01*
X129189458Y-113340643D01*
X129107833Y-113283489D01*
X129006418Y-113212477D01*
X129001436Y-113210154D01*
X129001431Y-113210151D01*
X128803894Y-113118039D01*
X128803893Y-113118039D01*
X128798912Y-113115716D01*
X128793604Y-113114294D01*
X128793602Y-113114293D01*
X128690650Y-113086707D01*
X128630027Y-113049755D01*
X128599006Y-112985894D01*
X128600849Y-112970475D01*
X129877152Y-112970475D01*
X129896141Y-113187519D01*
X129898044Y-113198312D01*
X129954433Y-113408761D01*
X129958179Y-113419053D01*
X130050255Y-113616511D01*
X130055738Y-113626006D01*
X130092178Y-113678048D01*
X130102657Y-113686424D01*
X130116103Y-113679356D01*
X130817647Y-112977812D01*
X130824025Y-112966132D01*
X131554077Y-112966132D01*
X131554208Y-112967965D01*
X131558459Y-112974580D01*
X132263956Y-113680077D01*
X132275731Y-113686507D01*
X132287746Y-113677211D01*
X132323600Y-113626006D01*
X132329083Y-113616511D01*
X132421159Y-113419053D01*
X132424905Y-113408761D01*
X132481294Y-113198312D01*
X132483197Y-113187519D01*
X132502186Y-112970475D01*
X132502186Y-112959525D01*
X132483197Y-112742481D01*
X132481294Y-112731688D01*
X132424905Y-112521239D01*
X132421159Y-112510947D01*
X132329083Y-112313489D01*
X132323600Y-112303994D01*
X132287160Y-112251952D01*
X132276681Y-112243576D01*
X132263235Y-112250644D01*
X131561691Y-112952188D01*
X131554077Y-112966132D01*
X130824025Y-112966132D01*
X130825261Y-112963868D01*
X130825130Y-112962035D01*
X130820879Y-112955420D01*
X130115382Y-112249923D01*
X130103607Y-112243493D01*
X130091592Y-112252789D01*
X130055738Y-112303994D01*
X130050255Y-112313489D01*
X129958179Y-112510947D01*
X129954433Y-112521239D01*
X129898044Y-112731688D01*
X129896141Y-112742481D01*
X129877152Y-112959525D01*
X129877152Y-112970475D01*
X128600849Y-112970475D01*
X128607434Y-112915400D01*
X128652637Y-112860653D01*
X128690650Y-112843293D01*
X128793602Y-112815707D01*
X128793604Y-112815706D01*
X128798912Y-112814284D01*
X128803894Y-112811961D01*
X129001431Y-112719849D01*
X129001436Y-112719846D01*
X129006418Y-112717523D01*
X129111280Y-112644098D01*
X129189458Y-112589357D01*
X129189461Y-112589355D01*
X129193969Y-112586198D01*
X129355867Y-112424300D01*
X129487192Y-112236749D01*
X129489515Y-112231767D01*
X129489518Y-112231762D01*
X129581630Y-112034225D01*
X129581630Y-112034224D01*
X129583953Y-112029243D01*
X129596801Y-111981296D01*
X129641788Y-111813402D01*
X129641788Y-111813400D01*
X129643212Y-111808087D01*
X129663167Y-111580000D01*
X129643212Y-111351913D01*
X129624482Y-111282012D01*
X129624227Y-111281062D01*
X130468162Y-111281062D01*
X130477458Y-111293077D01*
X130528663Y-111328931D01*
X130538158Y-111334414D01*
X130735616Y-111426490D01*
X130745908Y-111430236D01*
X130850619Y-111458293D01*
X130911242Y-111495245D01*
X130942263Y-111559105D01*
X130933835Y-111629600D01*
X130888632Y-111684347D01*
X130850619Y-111701707D01*
X130745908Y-111729764D01*
X130735616Y-111733510D01*
X130538158Y-111825586D01*
X130528663Y-111831069D01*
X130476621Y-111867509D01*
X130468245Y-111877988D01*
X130475313Y-111891434D01*
X131176857Y-112592978D01*
X131190801Y-112600592D01*
X131192634Y-112600461D01*
X131199249Y-112596210D01*
X131904746Y-111890713D01*
X131911176Y-111878938D01*
X131901880Y-111866923D01*
X131850675Y-111831069D01*
X131841180Y-111825586D01*
X131643722Y-111733510D01*
X131633430Y-111729764D01*
X131528719Y-111701707D01*
X131468096Y-111664755D01*
X131437075Y-111600895D01*
X131445503Y-111530400D01*
X131490706Y-111475653D01*
X131528719Y-111458293D01*
X131633430Y-111430236D01*
X131643722Y-111426490D01*
X131841180Y-111334414D01*
X131850675Y-111328931D01*
X131902717Y-111292491D01*
X131911093Y-111282012D01*
X131904025Y-111268566D01*
X131202481Y-110567022D01*
X131188537Y-110559408D01*
X131186704Y-110559539D01*
X131180089Y-110563790D01*
X130474592Y-111269287D01*
X130468162Y-111281062D01*
X129624227Y-111281062D01*
X129585376Y-111136067D01*
X129585375Y-111136065D01*
X129583953Y-111130757D01*
X129580869Y-111124144D01*
X129489518Y-110928238D01*
X129489515Y-110928233D01*
X129487192Y-110923251D01*
X129413767Y-110818389D01*
X129359026Y-110740211D01*
X129359024Y-110740208D01*
X129355867Y-110735700D01*
X129193969Y-110573802D01*
X129189461Y-110570645D01*
X129189458Y-110570643D01*
X129045176Y-110469616D01*
X129006418Y-110442477D01*
X129001436Y-110440154D01*
X129001431Y-110440151D01*
X128803894Y-110348039D01*
X128803893Y-110348039D01*
X128798912Y-110345716D01*
X128793604Y-110344294D01*
X128793602Y-110344293D01*
X128690650Y-110316707D01*
X128630027Y-110279755D01*
X128599006Y-110215894D01*
X128600849Y-110200475D01*
X129877152Y-110200475D01*
X129896141Y-110417519D01*
X129898044Y-110428312D01*
X129954433Y-110638761D01*
X129958179Y-110649053D01*
X130050255Y-110846511D01*
X130055738Y-110856006D01*
X130092178Y-110908048D01*
X130102657Y-110916424D01*
X130116103Y-110909356D01*
X130817647Y-110207812D01*
X130824025Y-110196132D01*
X131554077Y-110196132D01*
X131554208Y-110197965D01*
X131558459Y-110204580D01*
X132263956Y-110910077D01*
X132275731Y-110916507D01*
X132287746Y-110907211D01*
X132323600Y-110856006D01*
X132329083Y-110846511D01*
X132421159Y-110649053D01*
X132424905Y-110638761D01*
X132481294Y-110428312D01*
X132483197Y-110417519D01*
X132502186Y-110200475D01*
X132502186Y-110189525D01*
X132483197Y-109972481D01*
X132481294Y-109961688D01*
X132424905Y-109751239D01*
X132421159Y-109740947D01*
X132329083Y-109543489D01*
X132323600Y-109533994D01*
X132287160Y-109481952D01*
X132276681Y-109473576D01*
X132263235Y-109480644D01*
X131561691Y-110182188D01*
X131554077Y-110196132D01*
X130824025Y-110196132D01*
X130825261Y-110193868D01*
X130825130Y-110192035D01*
X130820879Y-110185420D01*
X130115382Y-109479923D01*
X130103607Y-109473493D01*
X130091592Y-109482789D01*
X130055738Y-109533994D01*
X130050255Y-109543489D01*
X129958179Y-109740947D01*
X129954433Y-109751239D01*
X129898044Y-109961688D01*
X129896141Y-109972481D01*
X129877152Y-110189525D01*
X129877152Y-110200475D01*
X128600849Y-110200475D01*
X128607434Y-110145400D01*
X128652637Y-110090653D01*
X128690650Y-110073293D01*
X128793602Y-110045707D01*
X128793604Y-110045706D01*
X128798912Y-110044284D01*
X128809071Y-110039547D01*
X129001431Y-109949849D01*
X129001436Y-109949846D01*
X129006418Y-109947523D01*
X129111280Y-109874098D01*
X129189458Y-109819357D01*
X129189461Y-109819355D01*
X129193969Y-109816198D01*
X129355867Y-109654300D01*
X129374744Y-109627342D01*
X129440106Y-109533994D01*
X129487192Y-109466749D01*
X129489515Y-109461767D01*
X129489518Y-109461762D01*
X129581630Y-109264225D01*
X129581630Y-109264224D01*
X129583953Y-109259243D01*
X129597740Y-109207792D01*
X129641788Y-109043402D01*
X129641788Y-109043400D01*
X129643212Y-109038087D01*
X129663167Y-108810000D01*
X129643212Y-108581913D01*
X129637054Y-108558931D01*
X129624227Y-108511062D01*
X130468162Y-108511062D01*
X130477458Y-108523077D01*
X130528663Y-108558931D01*
X130538158Y-108564414D01*
X130735616Y-108656490D01*
X130745908Y-108660236D01*
X130850619Y-108688293D01*
X130911242Y-108725245D01*
X130942263Y-108789105D01*
X130933835Y-108859600D01*
X130888632Y-108914347D01*
X130850619Y-108931707D01*
X130745908Y-108959764D01*
X130735616Y-108963510D01*
X130538158Y-109055586D01*
X130528663Y-109061069D01*
X130476621Y-109097509D01*
X130468245Y-109107988D01*
X130475313Y-109121434D01*
X131176857Y-109822978D01*
X131190801Y-109830592D01*
X131192634Y-109830461D01*
X131199249Y-109826210D01*
X131904746Y-109120713D01*
X131911176Y-109108938D01*
X131901880Y-109096923D01*
X131850675Y-109061069D01*
X131841180Y-109055586D01*
X131643722Y-108963510D01*
X131633430Y-108959764D01*
X131528719Y-108931707D01*
X131468096Y-108894755D01*
X131437075Y-108830895D01*
X131445503Y-108760400D01*
X131490706Y-108705653D01*
X131528719Y-108688293D01*
X131633430Y-108660236D01*
X131643722Y-108656490D01*
X131841180Y-108564414D01*
X131850675Y-108558931D01*
X131902717Y-108522491D01*
X131911093Y-108512012D01*
X131904025Y-108498566D01*
X131202481Y-107797022D01*
X131188537Y-107789408D01*
X131186704Y-107789539D01*
X131180089Y-107793790D01*
X130474592Y-108499287D01*
X130468162Y-108511062D01*
X129624227Y-108511062D01*
X129585376Y-108366067D01*
X129585375Y-108366065D01*
X129583953Y-108360757D01*
X129554335Y-108297240D01*
X129489518Y-108158238D01*
X129489515Y-108158233D01*
X129487192Y-108153251D01*
X129413767Y-108048389D01*
X129359026Y-107970211D01*
X129359024Y-107970208D01*
X129355867Y-107965700D01*
X129193969Y-107803802D01*
X129189461Y-107800645D01*
X129189458Y-107800643D01*
X129085197Y-107727639D01*
X129006418Y-107672477D01*
X129001436Y-107670154D01*
X129001431Y-107670151D01*
X128803894Y-107578039D01*
X128803893Y-107578039D01*
X128798912Y-107575716D01*
X128793604Y-107574294D01*
X128793602Y-107574293D01*
X128690650Y-107546707D01*
X128630027Y-107509755D01*
X128599006Y-107445894D01*
X128600849Y-107430475D01*
X129877152Y-107430475D01*
X129896141Y-107647519D01*
X129898044Y-107658312D01*
X129954433Y-107868761D01*
X129958179Y-107879053D01*
X130050255Y-108076511D01*
X130055738Y-108086006D01*
X130092178Y-108138048D01*
X130102657Y-108146424D01*
X130116103Y-108139356D01*
X130817647Y-107437812D01*
X130824025Y-107426132D01*
X131554077Y-107426132D01*
X131554208Y-107427965D01*
X131558459Y-107434580D01*
X132263956Y-108140077D01*
X132275731Y-108146507D01*
X132287746Y-108137211D01*
X132323600Y-108086006D01*
X132329083Y-108076511D01*
X132421159Y-107879053D01*
X132424905Y-107868761D01*
X132481294Y-107658312D01*
X132483197Y-107647519D01*
X132502186Y-107430475D01*
X132502186Y-107419525D01*
X132483197Y-107202481D01*
X132481294Y-107191688D01*
X132424905Y-106981239D01*
X132421159Y-106970947D01*
X132329083Y-106773489D01*
X132323600Y-106763994D01*
X132287160Y-106711952D01*
X132276681Y-106703576D01*
X132263235Y-106710644D01*
X131561691Y-107412188D01*
X131554077Y-107426132D01*
X130824025Y-107426132D01*
X130825261Y-107423868D01*
X130825130Y-107422035D01*
X130820879Y-107415420D01*
X130115382Y-106709923D01*
X130103607Y-106703493D01*
X130091592Y-106712789D01*
X130055738Y-106763994D01*
X130050255Y-106773489D01*
X129958179Y-106970947D01*
X129954433Y-106981239D01*
X129898044Y-107191688D01*
X129896141Y-107202481D01*
X129877152Y-107419525D01*
X129877152Y-107430475D01*
X128600849Y-107430475D01*
X128607434Y-107375400D01*
X128652637Y-107320653D01*
X128690650Y-107303293D01*
X128793602Y-107275707D01*
X128793604Y-107275706D01*
X128798912Y-107274284D01*
X128803894Y-107271961D01*
X129001431Y-107179849D01*
X129001436Y-107179846D01*
X129006418Y-107177523D01*
X129135072Y-107087438D01*
X129189458Y-107049357D01*
X129189461Y-107049355D01*
X129193969Y-107046198D01*
X129355867Y-106884300D01*
X129361888Y-106875702D01*
X129449751Y-106750220D01*
X129487192Y-106696749D01*
X129489515Y-106691767D01*
X129489518Y-106691762D01*
X129581630Y-106494225D01*
X129581630Y-106494224D01*
X129583953Y-106489243D01*
X129592133Y-106458717D01*
X129641788Y-106273402D01*
X129641788Y-106273400D01*
X129643212Y-106268087D01*
X129663167Y-106040000D01*
X129643212Y-105811913D01*
X129624482Y-105742012D01*
X129624227Y-105741062D01*
X130468162Y-105741062D01*
X130477458Y-105753077D01*
X130528663Y-105788931D01*
X130538158Y-105794414D01*
X130735616Y-105886490D01*
X130745908Y-105890236D01*
X130850619Y-105918293D01*
X130911242Y-105955245D01*
X130942263Y-106019105D01*
X130933835Y-106089600D01*
X130888632Y-106144347D01*
X130850619Y-106161707D01*
X130745908Y-106189764D01*
X130735616Y-106193510D01*
X130538158Y-106285586D01*
X130528663Y-106291069D01*
X130476621Y-106327509D01*
X130468245Y-106337988D01*
X130475313Y-106351434D01*
X131176857Y-107052978D01*
X131190801Y-107060592D01*
X131192634Y-107060461D01*
X131199249Y-107056210D01*
X131904746Y-106350713D01*
X131911176Y-106338938D01*
X131901880Y-106326923D01*
X131850675Y-106291069D01*
X131841180Y-106285586D01*
X131643722Y-106193510D01*
X131633430Y-106189764D01*
X131528719Y-106161707D01*
X131468096Y-106124755D01*
X131437075Y-106060895D01*
X131445503Y-105990400D01*
X131490706Y-105935653D01*
X131528719Y-105918293D01*
X131633430Y-105890236D01*
X131643722Y-105886490D01*
X131841180Y-105794414D01*
X131850675Y-105788931D01*
X131902717Y-105752491D01*
X131911093Y-105742012D01*
X131904025Y-105728566D01*
X131202481Y-105027022D01*
X131188537Y-105019408D01*
X131186704Y-105019539D01*
X131180089Y-105023790D01*
X130474592Y-105729287D01*
X130468162Y-105741062D01*
X129624227Y-105741062D01*
X129585376Y-105596067D01*
X129585375Y-105596065D01*
X129583953Y-105590757D01*
X129581630Y-105585775D01*
X129489518Y-105388238D01*
X129489515Y-105388233D01*
X129487192Y-105383251D01*
X129355867Y-105195700D01*
X129193969Y-105033802D01*
X129189461Y-105030645D01*
X129189458Y-105030643D01*
X129087922Y-104959547D01*
X129006418Y-104902477D01*
X129001436Y-104900154D01*
X129001431Y-104900151D01*
X128803894Y-104808039D01*
X128803893Y-104808039D01*
X128798912Y-104805716D01*
X128793604Y-104804294D01*
X128793602Y-104804293D01*
X128690650Y-104776707D01*
X128630027Y-104739755D01*
X128599006Y-104675894D01*
X128600849Y-104660475D01*
X129877152Y-104660475D01*
X129896141Y-104877519D01*
X129898044Y-104888312D01*
X129954433Y-105098761D01*
X129958179Y-105109053D01*
X130050255Y-105306511D01*
X130055738Y-105316006D01*
X130092178Y-105368048D01*
X130102657Y-105376424D01*
X130116103Y-105369356D01*
X130817647Y-104667812D01*
X130824025Y-104656132D01*
X131554077Y-104656132D01*
X131554208Y-104657965D01*
X131558459Y-104664580D01*
X132263956Y-105370077D01*
X132275731Y-105376507D01*
X132287746Y-105367211D01*
X132323600Y-105316006D01*
X132329083Y-105306511D01*
X132421159Y-105109053D01*
X132424905Y-105098761D01*
X132481294Y-104888312D01*
X132483197Y-104877519D01*
X132502186Y-104660475D01*
X132502186Y-104649525D01*
X132483197Y-104432481D01*
X132481294Y-104421688D01*
X132424905Y-104211239D01*
X132421159Y-104200947D01*
X132329083Y-104003489D01*
X132323600Y-103993994D01*
X132287160Y-103941952D01*
X132276681Y-103933576D01*
X132263235Y-103940644D01*
X131561691Y-104642188D01*
X131554077Y-104656132D01*
X130824025Y-104656132D01*
X130825261Y-104653868D01*
X130825130Y-104652035D01*
X130820879Y-104645420D01*
X130115382Y-103939923D01*
X130103607Y-103933493D01*
X130091592Y-103942789D01*
X130055738Y-103993994D01*
X130050255Y-104003489D01*
X129958179Y-104200947D01*
X129954433Y-104211239D01*
X129898044Y-104421688D01*
X129896141Y-104432481D01*
X129877152Y-104649525D01*
X129877152Y-104660475D01*
X128600849Y-104660475D01*
X128607434Y-104605400D01*
X128652637Y-104550653D01*
X128690650Y-104533293D01*
X128793602Y-104505707D01*
X128793604Y-104505706D01*
X128798912Y-104504284D01*
X128803894Y-104501961D01*
X129001431Y-104409849D01*
X129001436Y-104409846D01*
X129006418Y-104407523D01*
X129115770Y-104330954D01*
X129189458Y-104279357D01*
X129189461Y-104279355D01*
X129193969Y-104276198D01*
X129355867Y-104114300D01*
X129364485Y-104101993D01*
X129447267Y-103983768D01*
X129487192Y-103926749D01*
X129489515Y-103921767D01*
X129489518Y-103921762D01*
X129581630Y-103724225D01*
X129581630Y-103724224D01*
X129583953Y-103719243D01*
X129604623Y-103642104D01*
X129641788Y-103503402D01*
X129641788Y-103503400D01*
X129643212Y-103498087D01*
X129663167Y-103270000D01*
X129643212Y-103041913D01*
X129637054Y-103018931D01*
X129624227Y-102971062D01*
X130468162Y-102971062D01*
X130477458Y-102983077D01*
X130528663Y-103018931D01*
X130538158Y-103024414D01*
X130735616Y-103116490D01*
X130745908Y-103120236D01*
X130850619Y-103148293D01*
X130911242Y-103185245D01*
X130942263Y-103249105D01*
X130933835Y-103319600D01*
X130888632Y-103374347D01*
X130850619Y-103391707D01*
X130745908Y-103419764D01*
X130735616Y-103423510D01*
X130538158Y-103515586D01*
X130528663Y-103521069D01*
X130476621Y-103557509D01*
X130468245Y-103567988D01*
X130475313Y-103581434D01*
X131176857Y-104282978D01*
X131190801Y-104290592D01*
X131192634Y-104290461D01*
X131199249Y-104286210D01*
X131904746Y-103580713D01*
X131911176Y-103568938D01*
X131901880Y-103556923D01*
X131850675Y-103521069D01*
X131841180Y-103515586D01*
X131643722Y-103423510D01*
X131633430Y-103419764D01*
X131528719Y-103391707D01*
X131468096Y-103354755D01*
X131437075Y-103290895D01*
X131445503Y-103220400D01*
X131490706Y-103165653D01*
X131528719Y-103148293D01*
X131633430Y-103120236D01*
X131643722Y-103116490D01*
X131841180Y-103024414D01*
X131850675Y-103018931D01*
X131902717Y-102982491D01*
X131911093Y-102972012D01*
X131904025Y-102958566D01*
X131202481Y-102257022D01*
X131188537Y-102249408D01*
X131186704Y-102249539D01*
X131180089Y-102253790D01*
X130474592Y-102959287D01*
X130468162Y-102971062D01*
X129624227Y-102971062D01*
X129585376Y-102826067D01*
X129585375Y-102826065D01*
X129583953Y-102820757D01*
X129542499Y-102731857D01*
X129489518Y-102618238D01*
X129489515Y-102618233D01*
X129487192Y-102613251D01*
X129355867Y-102425700D01*
X129193969Y-102263802D01*
X129189461Y-102260645D01*
X129189458Y-102260643D01*
X129097941Y-102196562D01*
X129006418Y-102132477D01*
X129001436Y-102130154D01*
X129001431Y-102130151D01*
X128803894Y-102038039D01*
X128803893Y-102038039D01*
X128798912Y-102035716D01*
X128793604Y-102034294D01*
X128793602Y-102034293D01*
X128690650Y-102006707D01*
X128630027Y-101969755D01*
X128599006Y-101905894D01*
X128600849Y-101890475D01*
X129877152Y-101890475D01*
X129896141Y-102107519D01*
X129898044Y-102118312D01*
X129954433Y-102328761D01*
X129958179Y-102339053D01*
X130050255Y-102536511D01*
X130055738Y-102546006D01*
X130092178Y-102598048D01*
X130102657Y-102606424D01*
X130116103Y-102599356D01*
X130817647Y-101897812D01*
X130824025Y-101886132D01*
X131554077Y-101886132D01*
X131554208Y-101887965D01*
X131558459Y-101894580D01*
X132263956Y-102600077D01*
X132275731Y-102606507D01*
X132287746Y-102597211D01*
X132323600Y-102546006D01*
X132329083Y-102536511D01*
X132421159Y-102339053D01*
X132424905Y-102328761D01*
X132481294Y-102118312D01*
X132483197Y-102107519D01*
X132502186Y-101890475D01*
X132502186Y-101879525D01*
X132483197Y-101662481D01*
X132481294Y-101651688D01*
X132424905Y-101441239D01*
X132421159Y-101430947D01*
X132329083Y-101233489D01*
X132323600Y-101223994D01*
X132287160Y-101171952D01*
X132276681Y-101163576D01*
X132263235Y-101170644D01*
X131561691Y-101872188D01*
X131554077Y-101886132D01*
X130824025Y-101886132D01*
X130825261Y-101883868D01*
X130825130Y-101882035D01*
X130820879Y-101875420D01*
X130115382Y-101169923D01*
X130103607Y-101163493D01*
X130091592Y-101172789D01*
X130055738Y-101223994D01*
X130050255Y-101233489D01*
X129958179Y-101430947D01*
X129954433Y-101441239D01*
X129898044Y-101651688D01*
X129896141Y-101662481D01*
X129877152Y-101879525D01*
X129877152Y-101890475D01*
X128600849Y-101890475D01*
X128607434Y-101835400D01*
X128652637Y-101780653D01*
X128690650Y-101763293D01*
X128793602Y-101735707D01*
X128793604Y-101735706D01*
X128798912Y-101734284D01*
X128803894Y-101731961D01*
X129001431Y-101639849D01*
X129001436Y-101639846D01*
X129006418Y-101637523D01*
X129145589Y-101540074D01*
X129189458Y-101509357D01*
X129189461Y-101509355D01*
X129193969Y-101506198D01*
X129355867Y-101344300D01*
X129487192Y-101156749D01*
X129489515Y-101151767D01*
X129489518Y-101151762D01*
X129581630Y-100954225D01*
X129581630Y-100954224D01*
X129583953Y-100949243D01*
X129590627Y-100924338D01*
X129641788Y-100733402D01*
X129641788Y-100733400D01*
X129643212Y-100728087D01*
X129663167Y-100500000D01*
X129643212Y-100271913D01*
X129624332Y-100201453D01*
X129624227Y-100201062D01*
X130468162Y-100201062D01*
X130477458Y-100213077D01*
X130528663Y-100248931D01*
X130538158Y-100254414D01*
X130735616Y-100346490D01*
X130745908Y-100350236D01*
X130850619Y-100378293D01*
X130911242Y-100415245D01*
X130942263Y-100479105D01*
X130933835Y-100549600D01*
X130888632Y-100604347D01*
X130850619Y-100621707D01*
X130745908Y-100649764D01*
X130735616Y-100653510D01*
X130538158Y-100745586D01*
X130528663Y-100751069D01*
X130476621Y-100787509D01*
X130468245Y-100797988D01*
X130475313Y-100811434D01*
X131176857Y-101512978D01*
X131190801Y-101520592D01*
X131192634Y-101520461D01*
X131199249Y-101516210D01*
X131904746Y-100810713D01*
X131911176Y-100798938D01*
X131901880Y-100786923D01*
X131850675Y-100751069D01*
X131841180Y-100745586D01*
X131643722Y-100653510D01*
X131633430Y-100649764D01*
X131528719Y-100621707D01*
X131468096Y-100584755D01*
X131437075Y-100520895D01*
X131445503Y-100450400D01*
X131490706Y-100395653D01*
X131528719Y-100378293D01*
X131633430Y-100350236D01*
X131643722Y-100346490D01*
X131841180Y-100254414D01*
X131850675Y-100248931D01*
X131902717Y-100212491D01*
X131911093Y-100202012D01*
X131904025Y-100188566D01*
X131202481Y-99487022D01*
X131188537Y-99479408D01*
X131186704Y-99479539D01*
X131180089Y-99483790D01*
X130474592Y-100189287D01*
X130468162Y-100201062D01*
X129624227Y-100201062D01*
X129585376Y-100056067D01*
X129585375Y-100056065D01*
X129583953Y-100050757D01*
X129556979Y-99992910D01*
X129489518Y-99848238D01*
X129489515Y-99848233D01*
X129487192Y-99843251D01*
X129386886Y-99700000D01*
X129359026Y-99660211D01*
X129359024Y-99660208D01*
X129355867Y-99655700D01*
X129193969Y-99493802D01*
X129189461Y-99490645D01*
X129189458Y-99490643D01*
X129084980Y-99417487D01*
X129006418Y-99362477D01*
X129001436Y-99360154D01*
X129001431Y-99360151D01*
X128803894Y-99268039D01*
X128803893Y-99268039D01*
X128798912Y-99265716D01*
X128793604Y-99264294D01*
X128793602Y-99264293D01*
X128690650Y-99236707D01*
X128630027Y-99199755D01*
X128599006Y-99135894D01*
X128600849Y-99120475D01*
X129877152Y-99120475D01*
X129896141Y-99337519D01*
X129898044Y-99348312D01*
X129954433Y-99558761D01*
X129958179Y-99569053D01*
X130050255Y-99766511D01*
X130055738Y-99776006D01*
X130092178Y-99828048D01*
X130102657Y-99836424D01*
X130116103Y-99829356D01*
X130817647Y-99127812D01*
X130824025Y-99116132D01*
X131554077Y-99116132D01*
X131554208Y-99117965D01*
X131558459Y-99124580D01*
X132263956Y-99830077D01*
X132275731Y-99836507D01*
X132287746Y-99827211D01*
X132323600Y-99776006D01*
X132329083Y-99766511D01*
X132421159Y-99569053D01*
X132424905Y-99558761D01*
X132481294Y-99348312D01*
X132483197Y-99337519D01*
X132502186Y-99120475D01*
X132502186Y-99109525D01*
X132483197Y-98892481D01*
X132481294Y-98881688D01*
X132424905Y-98671239D01*
X132421159Y-98660947D01*
X132329083Y-98463489D01*
X132323600Y-98453994D01*
X132287160Y-98401952D01*
X132276681Y-98393576D01*
X132263235Y-98400644D01*
X131561691Y-99102188D01*
X131554077Y-99116132D01*
X130824025Y-99116132D01*
X130825261Y-99113868D01*
X130825130Y-99112035D01*
X130820879Y-99105420D01*
X130115382Y-98399923D01*
X130103607Y-98393493D01*
X130091592Y-98402789D01*
X130055738Y-98453994D01*
X130050255Y-98463489D01*
X129958179Y-98660947D01*
X129954433Y-98671239D01*
X129898044Y-98881688D01*
X129896141Y-98892481D01*
X129877152Y-99109525D01*
X129877152Y-99120475D01*
X128600849Y-99120475D01*
X128607434Y-99065400D01*
X128652637Y-99010653D01*
X128690650Y-98993293D01*
X128793602Y-98965707D01*
X128793604Y-98965706D01*
X128798912Y-98964284D01*
X128832180Y-98948771D01*
X129001431Y-98869849D01*
X129001436Y-98869846D01*
X129006418Y-98867523D01*
X129111280Y-98794098D01*
X129189458Y-98739357D01*
X129189461Y-98739355D01*
X129193969Y-98736198D01*
X129355867Y-98574300D01*
X129360419Y-98567800D01*
X129441756Y-98451638D01*
X129487192Y-98386749D01*
X129489515Y-98381767D01*
X129489518Y-98381762D01*
X129581630Y-98184225D01*
X129581630Y-98184224D01*
X129583953Y-98179243D01*
X129595304Y-98136883D01*
X129641788Y-97963402D01*
X129641788Y-97963400D01*
X129643212Y-97958087D01*
X129663167Y-97730000D01*
X129643212Y-97501913D01*
X129630082Y-97452910D01*
X129624228Y-97431062D01*
X130468162Y-97431062D01*
X130477458Y-97443077D01*
X130528663Y-97478931D01*
X130538158Y-97484414D01*
X130735616Y-97576490D01*
X130745908Y-97580236D01*
X130850619Y-97608293D01*
X130911242Y-97645245D01*
X130942263Y-97709105D01*
X130933835Y-97779600D01*
X130888632Y-97834347D01*
X130850619Y-97851707D01*
X130745908Y-97879764D01*
X130735616Y-97883510D01*
X130538158Y-97975586D01*
X130528663Y-97981069D01*
X130476621Y-98017509D01*
X130468245Y-98027988D01*
X130475313Y-98041434D01*
X131176857Y-98742978D01*
X131190801Y-98750592D01*
X131192634Y-98750461D01*
X131199249Y-98746210D01*
X131904746Y-98040713D01*
X131911176Y-98028938D01*
X131901880Y-98016923D01*
X131850675Y-97981069D01*
X131841180Y-97975586D01*
X131643722Y-97883510D01*
X131633430Y-97879764D01*
X131528719Y-97851707D01*
X131468096Y-97814755D01*
X131437075Y-97750895D01*
X131445503Y-97680400D01*
X131490706Y-97625653D01*
X131528719Y-97608293D01*
X131633430Y-97580236D01*
X131643722Y-97576490D01*
X131841180Y-97484414D01*
X131850675Y-97478931D01*
X131902717Y-97442491D01*
X131911093Y-97432012D01*
X131904025Y-97418566D01*
X131202481Y-96717022D01*
X131188537Y-96709408D01*
X131186704Y-96709539D01*
X131180089Y-96713790D01*
X130474592Y-97419287D01*
X130468162Y-97431062D01*
X129624228Y-97431062D01*
X129585376Y-97286067D01*
X129585375Y-97286065D01*
X129583953Y-97280757D01*
X129558695Y-97226590D01*
X129489518Y-97078238D01*
X129489515Y-97078233D01*
X129487192Y-97073251D01*
X129392041Y-96937361D01*
X129359026Y-96890211D01*
X129359024Y-96890208D01*
X129355867Y-96885700D01*
X129193969Y-96723802D01*
X129189461Y-96720645D01*
X129189458Y-96720643D01*
X129111280Y-96665902D01*
X129006418Y-96592477D01*
X129001436Y-96590154D01*
X129001431Y-96590151D01*
X128803894Y-96498039D01*
X128803893Y-96498039D01*
X128798912Y-96495716D01*
X128793604Y-96494294D01*
X128793602Y-96494293D01*
X128690650Y-96466707D01*
X128630027Y-96429755D01*
X128599006Y-96365894D01*
X128600849Y-96350475D01*
X129877152Y-96350475D01*
X129896141Y-96567519D01*
X129898044Y-96578312D01*
X129954433Y-96788761D01*
X129958179Y-96799053D01*
X130050255Y-96996511D01*
X130055738Y-97006006D01*
X130092178Y-97058048D01*
X130102657Y-97066424D01*
X130116103Y-97059356D01*
X130817647Y-96357812D01*
X130824025Y-96346132D01*
X131554077Y-96346132D01*
X131554208Y-96347965D01*
X131558459Y-96354580D01*
X132263956Y-97060077D01*
X132275731Y-97066507D01*
X132287746Y-97057211D01*
X132323600Y-97006006D01*
X132329083Y-96996511D01*
X132421159Y-96799053D01*
X132424905Y-96788761D01*
X132481294Y-96578312D01*
X132483197Y-96567519D01*
X132502186Y-96350475D01*
X132502186Y-96339525D01*
X132483197Y-96122481D01*
X132481294Y-96111688D01*
X132424905Y-95901239D01*
X132421159Y-95890947D01*
X132329083Y-95693489D01*
X132323600Y-95683994D01*
X132287160Y-95631952D01*
X132276681Y-95623576D01*
X132263235Y-95630644D01*
X131561691Y-96332188D01*
X131554077Y-96346132D01*
X130824025Y-96346132D01*
X130825261Y-96343868D01*
X130825130Y-96342035D01*
X130820879Y-96335420D01*
X130115382Y-95629923D01*
X130103607Y-95623493D01*
X130091592Y-95632789D01*
X130055738Y-95683994D01*
X130050255Y-95693489D01*
X129958179Y-95890947D01*
X129954433Y-95901239D01*
X129898044Y-96111688D01*
X129896141Y-96122481D01*
X129877152Y-96339525D01*
X129877152Y-96350475D01*
X128600849Y-96350475D01*
X128607434Y-96295400D01*
X128652637Y-96240653D01*
X128690650Y-96223293D01*
X128793602Y-96195707D01*
X128793604Y-96195706D01*
X128798912Y-96194284D01*
X128803894Y-96191961D01*
X129001431Y-96099849D01*
X129001436Y-96099846D01*
X129006418Y-96097523D01*
X129139814Y-96004118D01*
X129189458Y-95969357D01*
X129189461Y-95969355D01*
X129193969Y-95966198D01*
X129355867Y-95804300D01*
X129366606Y-95788964D01*
X129440106Y-95683994D01*
X129487192Y-95616749D01*
X129489515Y-95611767D01*
X129489518Y-95611762D01*
X129581630Y-95414225D01*
X129581630Y-95414224D01*
X129583953Y-95409243D01*
X129624228Y-95258938D01*
X129641788Y-95193402D01*
X129641788Y-95193400D01*
X129643212Y-95188087D01*
X129663167Y-94960000D01*
X129643212Y-94731913D01*
X129624482Y-94662012D01*
X129624227Y-94661062D01*
X130468162Y-94661062D01*
X130477458Y-94673077D01*
X130528663Y-94708931D01*
X130538158Y-94714414D01*
X130735616Y-94806490D01*
X130745908Y-94810236D01*
X130850619Y-94838293D01*
X130911242Y-94875245D01*
X130942263Y-94939105D01*
X130933835Y-95009600D01*
X130888632Y-95064347D01*
X130850619Y-95081707D01*
X130745908Y-95109764D01*
X130735616Y-95113510D01*
X130538158Y-95205586D01*
X130528663Y-95211069D01*
X130476621Y-95247509D01*
X130468245Y-95257988D01*
X130475313Y-95271434D01*
X131176857Y-95972978D01*
X131190801Y-95980592D01*
X131192634Y-95980461D01*
X131199249Y-95976210D01*
X131904746Y-95270713D01*
X131911176Y-95258938D01*
X131901880Y-95246923D01*
X131850675Y-95211069D01*
X131841180Y-95205586D01*
X131643722Y-95113510D01*
X131633430Y-95109764D01*
X131528719Y-95081707D01*
X131468096Y-95044755D01*
X131437075Y-94980895D01*
X131445503Y-94910400D01*
X131490706Y-94855653D01*
X131528719Y-94838293D01*
X131633430Y-94810236D01*
X131643722Y-94806490D01*
X131841180Y-94714414D01*
X131850675Y-94708931D01*
X131902717Y-94672491D01*
X131911093Y-94662012D01*
X131904025Y-94648566D01*
X131202481Y-93947022D01*
X131188537Y-93939408D01*
X131186704Y-93939539D01*
X131180089Y-93943790D01*
X130474592Y-94649287D01*
X130468162Y-94661062D01*
X129624227Y-94661062D01*
X129585376Y-94516067D01*
X129585375Y-94516065D01*
X129583953Y-94510757D01*
X129531076Y-94397361D01*
X129489518Y-94308238D01*
X129489515Y-94308233D01*
X129487192Y-94303251D01*
X129401382Y-94180702D01*
X129359026Y-94120211D01*
X129359024Y-94120208D01*
X129355867Y-94115700D01*
X129193969Y-93953802D01*
X129189461Y-93950645D01*
X129189458Y-93950643D01*
X129072532Y-93868771D01*
X129006418Y-93822477D01*
X129001436Y-93820154D01*
X129001431Y-93820151D01*
X128803894Y-93728039D01*
X128803893Y-93728039D01*
X128798912Y-93725716D01*
X128793604Y-93724294D01*
X128793602Y-93724293D01*
X128690650Y-93696707D01*
X128630027Y-93659755D01*
X128599006Y-93595894D01*
X128600849Y-93580475D01*
X129877152Y-93580475D01*
X129896141Y-93797519D01*
X129898044Y-93808312D01*
X129954433Y-94018761D01*
X129958179Y-94029053D01*
X130050255Y-94226511D01*
X130055738Y-94236006D01*
X130092178Y-94288048D01*
X130102657Y-94296424D01*
X130116103Y-94289356D01*
X130817647Y-93587812D01*
X130824025Y-93576132D01*
X131554077Y-93576132D01*
X131554208Y-93577965D01*
X131558459Y-93584580D01*
X132263956Y-94290077D01*
X132275731Y-94296507D01*
X132287746Y-94287211D01*
X132323600Y-94236006D01*
X132329083Y-94226511D01*
X132421159Y-94029053D01*
X132424905Y-94018761D01*
X132481294Y-93808312D01*
X132483197Y-93797519D01*
X132502186Y-93580475D01*
X132502186Y-93569525D01*
X132483197Y-93352481D01*
X132481294Y-93341688D01*
X132424905Y-93131239D01*
X132421159Y-93120947D01*
X132329083Y-92923489D01*
X132323600Y-92913994D01*
X132287160Y-92861952D01*
X132276681Y-92853576D01*
X132263235Y-92860644D01*
X131561691Y-93562188D01*
X131554077Y-93576132D01*
X130824025Y-93576132D01*
X130825261Y-93573868D01*
X130825130Y-93572035D01*
X130820879Y-93565420D01*
X130115382Y-92859923D01*
X130103607Y-92853493D01*
X130091592Y-92862789D01*
X130055738Y-92913994D01*
X130050255Y-92923489D01*
X129958179Y-93120947D01*
X129954433Y-93131239D01*
X129898044Y-93341688D01*
X129896141Y-93352481D01*
X129877152Y-93569525D01*
X129877152Y-93580475D01*
X128600849Y-93580475D01*
X128607434Y-93525400D01*
X128652637Y-93470653D01*
X128690650Y-93453293D01*
X128793602Y-93425707D01*
X128793604Y-93425706D01*
X128798912Y-93424284D01*
X128804520Y-93421669D01*
X129001431Y-93329849D01*
X129001436Y-93329846D01*
X129006418Y-93327523D01*
X129139303Y-93234476D01*
X129189458Y-93199357D01*
X129189461Y-93199355D01*
X129193969Y-93196198D01*
X129355867Y-93034300D01*
X129487192Y-92846749D01*
X129489515Y-92841767D01*
X129489518Y-92841762D01*
X129581630Y-92644225D01*
X129581630Y-92644224D01*
X129583953Y-92639243D01*
X129624228Y-92488938D01*
X129641788Y-92423402D01*
X129641788Y-92423400D01*
X129643212Y-92418087D01*
X129663167Y-92190000D01*
X129643212Y-91961913D01*
X129624482Y-91892012D01*
X129624227Y-91891062D01*
X130468162Y-91891062D01*
X130477458Y-91903077D01*
X130528663Y-91938931D01*
X130538158Y-91944414D01*
X130735616Y-92036490D01*
X130745908Y-92040236D01*
X130850619Y-92068293D01*
X130911242Y-92105245D01*
X130942263Y-92169105D01*
X130933835Y-92239600D01*
X130888632Y-92294347D01*
X130850619Y-92311707D01*
X130745908Y-92339764D01*
X130735616Y-92343510D01*
X130538158Y-92435586D01*
X130528663Y-92441069D01*
X130476621Y-92477509D01*
X130468245Y-92487988D01*
X130475313Y-92501434D01*
X131176857Y-93202978D01*
X131190801Y-93210592D01*
X131192634Y-93210461D01*
X131199249Y-93206210D01*
X131904746Y-92500713D01*
X131911176Y-92488938D01*
X131901880Y-92476923D01*
X131850675Y-92441069D01*
X131841180Y-92435586D01*
X131643722Y-92343510D01*
X131633430Y-92339764D01*
X131528719Y-92311707D01*
X131468096Y-92274755D01*
X131437075Y-92210895D01*
X131445503Y-92140400D01*
X131490706Y-92085653D01*
X131528719Y-92068293D01*
X131633430Y-92040236D01*
X131643722Y-92036490D01*
X131841180Y-91944414D01*
X131850675Y-91938931D01*
X131902717Y-91902491D01*
X131911093Y-91892012D01*
X131904025Y-91878566D01*
X131202481Y-91177022D01*
X131188537Y-91169408D01*
X131186704Y-91169539D01*
X131180089Y-91173790D01*
X130474592Y-91879287D01*
X130468162Y-91891062D01*
X129624227Y-91891062D01*
X129585376Y-91746067D01*
X129585375Y-91746065D01*
X129583953Y-91740757D01*
X129539709Y-91645875D01*
X129489518Y-91538238D01*
X129489515Y-91538233D01*
X129487192Y-91533251D01*
X129376116Y-91374618D01*
X129359026Y-91350211D01*
X129359024Y-91350208D01*
X129355867Y-91345700D01*
X129193969Y-91183802D01*
X129189461Y-91180645D01*
X129189458Y-91180643D01*
X129111280Y-91125902D01*
X129006418Y-91052477D01*
X129001436Y-91050154D01*
X129001431Y-91050151D01*
X128803894Y-90958039D01*
X128803893Y-90958039D01*
X128798912Y-90955716D01*
X128793604Y-90954294D01*
X128793602Y-90954293D01*
X128690650Y-90926707D01*
X128630027Y-90889755D01*
X128599006Y-90825894D01*
X128600849Y-90810475D01*
X129877152Y-90810475D01*
X129896141Y-91027519D01*
X129898044Y-91038312D01*
X129954433Y-91248761D01*
X129958179Y-91259053D01*
X130050255Y-91456511D01*
X130055738Y-91466006D01*
X130092178Y-91518048D01*
X130102657Y-91526424D01*
X130116103Y-91519356D01*
X130817647Y-90817812D01*
X130824025Y-90806132D01*
X131554077Y-90806132D01*
X131554208Y-90807965D01*
X131558459Y-90814580D01*
X132263956Y-91520077D01*
X132275731Y-91526507D01*
X132287746Y-91517211D01*
X132323600Y-91466006D01*
X132329083Y-91456511D01*
X132421159Y-91259053D01*
X132424905Y-91248761D01*
X132481294Y-91038312D01*
X132483197Y-91027519D01*
X132502186Y-90810475D01*
X132502186Y-90799525D01*
X132483197Y-90582481D01*
X132481294Y-90571688D01*
X132424905Y-90361239D01*
X132421159Y-90350947D01*
X132329083Y-90153489D01*
X132323600Y-90143994D01*
X132287160Y-90091952D01*
X132276681Y-90083576D01*
X132263235Y-90090644D01*
X131561691Y-90792188D01*
X131554077Y-90806132D01*
X130824025Y-90806132D01*
X130825261Y-90803868D01*
X130825130Y-90802035D01*
X130820879Y-90795420D01*
X130115382Y-90089923D01*
X130103607Y-90083493D01*
X130091592Y-90092789D01*
X130055738Y-90143994D01*
X130050255Y-90153489D01*
X129958179Y-90350947D01*
X129954433Y-90361239D01*
X129898044Y-90571688D01*
X129896141Y-90582481D01*
X129877152Y-90799525D01*
X129877152Y-90810475D01*
X128600849Y-90810475D01*
X128607434Y-90755400D01*
X128652637Y-90700653D01*
X128690650Y-90683293D01*
X128793602Y-90655707D01*
X128793604Y-90655706D01*
X128798912Y-90654284D01*
X128803894Y-90651961D01*
X129001431Y-90559849D01*
X129001436Y-90559846D01*
X129006418Y-90557523D01*
X129111280Y-90484098D01*
X129189458Y-90429357D01*
X129189461Y-90429355D01*
X129193969Y-90426198D01*
X129355867Y-90264300D01*
X129361015Y-90256949D01*
X129440106Y-90143994D01*
X129487192Y-90076749D01*
X129489515Y-90071767D01*
X129489518Y-90071762D01*
X129581630Y-89874225D01*
X129581630Y-89874224D01*
X129583953Y-89869243D01*
X129593689Y-89832910D01*
X129641788Y-89653402D01*
X129641788Y-89653400D01*
X129643212Y-89648087D01*
X129663167Y-89420000D01*
X129643212Y-89191913D01*
X129634575Y-89159679D01*
X129624228Y-89121062D01*
X130468162Y-89121062D01*
X130477458Y-89133077D01*
X130528663Y-89168931D01*
X130538158Y-89174414D01*
X130735616Y-89266490D01*
X130745908Y-89270236D01*
X130850619Y-89298293D01*
X130911242Y-89335245D01*
X130942263Y-89399105D01*
X130933835Y-89469600D01*
X130888632Y-89524347D01*
X130850619Y-89541707D01*
X130745908Y-89569764D01*
X130735616Y-89573510D01*
X130538158Y-89665586D01*
X130528663Y-89671069D01*
X130476621Y-89707509D01*
X130468245Y-89717988D01*
X130475313Y-89731434D01*
X131176857Y-90432978D01*
X131190801Y-90440592D01*
X131192634Y-90440461D01*
X131199249Y-90436210D01*
X131904746Y-89730713D01*
X131911176Y-89718938D01*
X131901880Y-89706923D01*
X131850675Y-89671069D01*
X131841180Y-89665586D01*
X131643722Y-89573510D01*
X131633430Y-89569764D01*
X131528719Y-89541707D01*
X131468096Y-89504755D01*
X131437075Y-89440895D01*
X131445503Y-89370400D01*
X131490706Y-89315653D01*
X131528719Y-89298293D01*
X131633430Y-89270236D01*
X131643722Y-89266490D01*
X131841180Y-89174414D01*
X131850675Y-89168931D01*
X131902717Y-89132491D01*
X131911093Y-89122012D01*
X131904025Y-89108566D01*
X131202481Y-88407022D01*
X131188537Y-88399408D01*
X131186704Y-88399539D01*
X131180089Y-88403790D01*
X130474592Y-89109287D01*
X130468162Y-89121062D01*
X129624228Y-89121062D01*
X129585376Y-88976067D01*
X129585375Y-88976065D01*
X129583953Y-88970757D01*
X129581630Y-88965775D01*
X129489518Y-88768238D01*
X129489515Y-88768233D01*
X129487192Y-88763251D01*
X129355867Y-88575700D01*
X129193969Y-88413802D01*
X129189461Y-88410645D01*
X129189458Y-88410643D01*
X129076314Y-88331419D01*
X129006418Y-88282477D01*
X129001436Y-88280154D01*
X129001431Y-88280151D01*
X128803894Y-88188039D01*
X128803893Y-88188039D01*
X128798912Y-88185716D01*
X128793604Y-88184294D01*
X128793602Y-88184293D01*
X128690650Y-88156707D01*
X128630027Y-88119755D01*
X128599006Y-88055894D01*
X128600849Y-88040475D01*
X129877152Y-88040475D01*
X129896141Y-88257519D01*
X129898044Y-88268312D01*
X129954433Y-88478761D01*
X129958179Y-88489053D01*
X130050255Y-88686511D01*
X130055738Y-88696006D01*
X130092178Y-88748048D01*
X130102657Y-88756424D01*
X130116103Y-88749356D01*
X130817647Y-88047812D01*
X130824025Y-88036132D01*
X131554077Y-88036132D01*
X131554208Y-88037965D01*
X131558459Y-88044580D01*
X132263956Y-88750077D01*
X132275731Y-88756507D01*
X132287746Y-88747211D01*
X132323600Y-88696006D01*
X132329083Y-88686511D01*
X132421159Y-88489053D01*
X132424905Y-88478761D01*
X132481294Y-88268312D01*
X132483197Y-88257519D01*
X132502186Y-88040475D01*
X132502186Y-88029525D01*
X132483197Y-87812481D01*
X132481294Y-87801688D01*
X132424905Y-87591239D01*
X132421159Y-87580947D01*
X132329083Y-87383489D01*
X132323600Y-87373994D01*
X132287160Y-87321952D01*
X132276681Y-87313576D01*
X132263235Y-87320644D01*
X131561691Y-88022188D01*
X131554077Y-88036132D01*
X130824025Y-88036132D01*
X130825261Y-88033868D01*
X130825130Y-88032035D01*
X130820879Y-88025420D01*
X130115382Y-87319923D01*
X130103607Y-87313493D01*
X130091592Y-87322789D01*
X130055738Y-87373994D01*
X130050255Y-87383489D01*
X129958179Y-87580947D01*
X129954433Y-87591239D01*
X129898044Y-87801688D01*
X129896141Y-87812481D01*
X129877152Y-88029525D01*
X129877152Y-88040475D01*
X128600849Y-88040475D01*
X128607434Y-87985400D01*
X128652637Y-87930653D01*
X128690650Y-87913293D01*
X128793602Y-87885707D01*
X128793604Y-87885706D01*
X128798912Y-87884284D01*
X128803894Y-87881961D01*
X129001431Y-87789849D01*
X129001436Y-87789846D01*
X129006418Y-87787523D01*
X129167577Y-87674678D01*
X129189458Y-87659357D01*
X129189461Y-87659355D01*
X129193969Y-87656198D01*
X129355867Y-87494300D01*
X129487192Y-87306749D01*
X129489515Y-87301767D01*
X129489518Y-87301762D01*
X129581630Y-87104225D01*
X129581630Y-87104224D01*
X129583953Y-87099243D01*
X129592703Y-87066590D01*
X129641788Y-86883402D01*
X129641788Y-86883400D01*
X129643212Y-86878087D01*
X129663167Y-86650000D01*
X129643212Y-86421913D01*
X129627024Y-86361500D01*
X129624227Y-86351062D01*
X130468162Y-86351062D01*
X130477458Y-86363077D01*
X130528663Y-86398931D01*
X130538158Y-86404414D01*
X130735616Y-86496490D01*
X130745908Y-86500236D01*
X130850619Y-86528293D01*
X130911242Y-86565245D01*
X130942263Y-86629105D01*
X130933835Y-86699600D01*
X130888632Y-86754347D01*
X130850619Y-86771707D01*
X130745908Y-86799764D01*
X130735616Y-86803510D01*
X130538158Y-86895586D01*
X130528663Y-86901069D01*
X130476621Y-86937509D01*
X130468245Y-86947988D01*
X130475313Y-86961434D01*
X131176857Y-87662978D01*
X131190801Y-87670592D01*
X131192634Y-87670461D01*
X131199249Y-87666210D01*
X131904746Y-86960713D01*
X131911176Y-86948938D01*
X131901880Y-86936923D01*
X131850675Y-86901069D01*
X131841180Y-86895586D01*
X131643722Y-86803510D01*
X131633430Y-86799764D01*
X131528719Y-86771707D01*
X131468096Y-86734755D01*
X131437075Y-86670895D01*
X131445503Y-86600400D01*
X131490706Y-86545653D01*
X131528719Y-86528293D01*
X131633430Y-86500236D01*
X131643722Y-86496490D01*
X131841180Y-86404414D01*
X131850675Y-86398931D01*
X131902717Y-86362491D01*
X131911093Y-86352012D01*
X131904025Y-86338566D01*
X131202481Y-85637022D01*
X131188537Y-85629408D01*
X131186704Y-85629539D01*
X131180089Y-85633790D01*
X130474592Y-86339287D01*
X130468162Y-86351062D01*
X129624227Y-86351062D01*
X129585376Y-86206067D01*
X129585375Y-86206065D01*
X129583953Y-86200757D01*
X129570831Y-86172617D01*
X129489518Y-85998238D01*
X129489515Y-85998233D01*
X129487192Y-85993251D01*
X129393607Y-85859598D01*
X129359026Y-85810211D01*
X129359024Y-85810208D01*
X129355867Y-85805700D01*
X129193969Y-85643802D01*
X129189461Y-85640645D01*
X129189458Y-85640643D01*
X129111280Y-85585902D01*
X129006418Y-85512477D01*
X129001436Y-85510154D01*
X129001431Y-85510151D01*
X128803894Y-85418039D01*
X128803893Y-85418039D01*
X128798912Y-85415716D01*
X128793604Y-85414294D01*
X128793602Y-85414293D01*
X128690650Y-85386707D01*
X128630027Y-85349755D01*
X128599006Y-85285894D01*
X128600849Y-85270475D01*
X129877152Y-85270475D01*
X129896141Y-85487519D01*
X129898044Y-85498312D01*
X129954433Y-85708761D01*
X129958179Y-85719053D01*
X130050255Y-85916511D01*
X130055738Y-85926006D01*
X130092178Y-85978048D01*
X130102657Y-85986424D01*
X130116103Y-85979356D01*
X130817647Y-85277812D01*
X130824025Y-85266132D01*
X131554077Y-85266132D01*
X131554208Y-85267965D01*
X131558459Y-85274580D01*
X132263956Y-85980077D01*
X132275731Y-85986507D01*
X132287746Y-85977211D01*
X132323600Y-85926006D01*
X132329083Y-85916511D01*
X132421159Y-85719053D01*
X132424905Y-85708761D01*
X132481294Y-85498312D01*
X132483197Y-85487519D01*
X132502186Y-85270475D01*
X132502186Y-85259525D01*
X132483197Y-85042481D01*
X132481294Y-85031688D01*
X132424905Y-84821239D01*
X132421159Y-84810947D01*
X132329083Y-84613489D01*
X132323600Y-84603994D01*
X132287160Y-84551952D01*
X132276681Y-84543576D01*
X132263235Y-84550644D01*
X131561691Y-85252188D01*
X131554077Y-85266132D01*
X130824025Y-85266132D01*
X130825261Y-85263868D01*
X130825130Y-85262035D01*
X130820879Y-85255420D01*
X130115382Y-84549923D01*
X130103607Y-84543493D01*
X130091592Y-84552789D01*
X130055738Y-84603994D01*
X130050255Y-84613489D01*
X129958179Y-84810947D01*
X129954433Y-84821239D01*
X129898044Y-85031688D01*
X129896141Y-85042481D01*
X129877152Y-85259525D01*
X129877152Y-85270475D01*
X128600849Y-85270475D01*
X128607434Y-85215400D01*
X128652637Y-85160653D01*
X128690650Y-85143293D01*
X128793602Y-85115707D01*
X128793604Y-85115706D01*
X128798912Y-85114284D01*
X128803894Y-85111961D01*
X129001431Y-85019849D01*
X129001436Y-85019846D01*
X129006418Y-85017523D01*
X129111280Y-84944098D01*
X129189458Y-84889357D01*
X129189461Y-84889355D01*
X129193969Y-84886198D01*
X129355867Y-84724300D01*
X129487192Y-84536749D01*
X129489515Y-84531767D01*
X129489518Y-84531762D01*
X129581630Y-84334225D01*
X129581630Y-84334224D01*
X129583953Y-84329243D01*
X129624228Y-84178938D01*
X129641788Y-84113402D01*
X129641788Y-84113400D01*
X129643212Y-84108087D01*
X129663167Y-83880000D01*
X129643212Y-83651913D01*
X129624482Y-83582012D01*
X129624227Y-83581062D01*
X130468162Y-83581062D01*
X130477458Y-83593077D01*
X130528663Y-83628931D01*
X130538158Y-83634414D01*
X130735616Y-83726490D01*
X130745908Y-83730236D01*
X130850619Y-83758293D01*
X130911242Y-83795245D01*
X130942263Y-83859105D01*
X130933835Y-83929600D01*
X130888632Y-83984347D01*
X130850619Y-84001707D01*
X130745908Y-84029764D01*
X130735616Y-84033510D01*
X130538158Y-84125586D01*
X130528663Y-84131069D01*
X130476621Y-84167509D01*
X130468245Y-84177988D01*
X130475313Y-84191434D01*
X131176857Y-84892978D01*
X131190801Y-84900592D01*
X131192634Y-84900461D01*
X131199249Y-84896210D01*
X131904746Y-84190713D01*
X131911176Y-84178938D01*
X131901880Y-84166923D01*
X131850675Y-84131069D01*
X131841180Y-84125586D01*
X131643722Y-84033510D01*
X131633430Y-84029764D01*
X131528719Y-84001707D01*
X131468096Y-83964755D01*
X131437075Y-83900895D01*
X131445503Y-83830400D01*
X131490706Y-83775653D01*
X131528719Y-83758293D01*
X131633430Y-83730236D01*
X131643722Y-83726490D01*
X131841180Y-83634414D01*
X131850675Y-83628931D01*
X131902717Y-83592491D01*
X131911093Y-83582012D01*
X131904025Y-83568566D01*
X131202481Y-82867022D01*
X131188537Y-82859408D01*
X131186704Y-82859539D01*
X131180089Y-82863790D01*
X130474592Y-83569287D01*
X130468162Y-83581062D01*
X129624227Y-83581062D01*
X129585376Y-83436067D01*
X129585375Y-83436065D01*
X129583953Y-83430757D01*
X129581630Y-83425775D01*
X129489518Y-83228238D01*
X129489515Y-83228233D01*
X129487192Y-83223251D01*
X129355867Y-83035700D01*
X129193969Y-82873802D01*
X129189461Y-82870645D01*
X129189458Y-82870643D01*
X129111280Y-82815902D01*
X129006418Y-82742477D01*
X129001436Y-82740154D01*
X129001431Y-82740151D01*
X128803894Y-82648039D01*
X128803893Y-82648039D01*
X128798912Y-82645716D01*
X128793604Y-82644294D01*
X128793602Y-82644293D01*
X128690650Y-82616707D01*
X128630027Y-82579755D01*
X128599006Y-82515894D01*
X128600849Y-82500475D01*
X129877152Y-82500475D01*
X129896141Y-82717519D01*
X129898044Y-82728312D01*
X129954433Y-82938761D01*
X129958179Y-82949053D01*
X130050255Y-83146511D01*
X130055738Y-83156006D01*
X130092178Y-83208048D01*
X130102657Y-83216424D01*
X130116103Y-83209356D01*
X130817647Y-82507812D01*
X130824025Y-82496132D01*
X131554077Y-82496132D01*
X131554208Y-82497965D01*
X131558459Y-82504580D01*
X132263956Y-83210077D01*
X132275731Y-83216507D01*
X132287746Y-83207211D01*
X132323600Y-83156006D01*
X132329083Y-83146511D01*
X132421159Y-82949053D01*
X132424905Y-82938761D01*
X132481294Y-82728312D01*
X132483197Y-82717519D01*
X132502186Y-82500475D01*
X132502186Y-82489525D01*
X132483197Y-82272481D01*
X132481294Y-82261688D01*
X132424905Y-82051239D01*
X132421159Y-82040947D01*
X132329083Y-81843489D01*
X132323600Y-81833994D01*
X132287160Y-81781952D01*
X132276681Y-81773576D01*
X132263235Y-81780644D01*
X131561691Y-82482188D01*
X131554077Y-82496132D01*
X130824025Y-82496132D01*
X130825261Y-82493868D01*
X130825130Y-82492035D01*
X130820879Y-82485420D01*
X130115382Y-81779923D01*
X130103607Y-81773493D01*
X130091592Y-81782789D01*
X130055738Y-81833994D01*
X130050255Y-81843489D01*
X129958179Y-82040947D01*
X129954433Y-82051239D01*
X129898044Y-82261688D01*
X129896141Y-82272481D01*
X129877152Y-82489525D01*
X129877152Y-82500475D01*
X128600849Y-82500475D01*
X128607434Y-82445400D01*
X128652637Y-82390653D01*
X128690650Y-82373293D01*
X128793602Y-82345707D01*
X128793604Y-82345706D01*
X128798912Y-82344284D01*
X128803894Y-82341961D01*
X129001431Y-82249849D01*
X129001436Y-82249846D01*
X129006418Y-82247523D01*
X129111280Y-82174098D01*
X129189458Y-82119357D01*
X129189461Y-82119355D01*
X129193969Y-82116198D01*
X129355867Y-81954300D01*
X129487192Y-81766749D01*
X129489515Y-81761767D01*
X129489518Y-81761762D01*
X129581630Y-81564225D01*
X129581630Y-81564224D01*
X129583953Y-81559243D01*
X129624228Y-81408938D01*
X129624483Y-81407988D01*
X130468245Y-81407988D01*
X130475313Y-81421434D01*
X131176857Y-82122978D01*
X131190801Y-82130592D01*
X131192634Y-82130461D01*
X131199249Y-82126210D01*
X131904746Y-81420713D01*
X131911176Y-81408938D01*
X131901880Y-81396923D01*
X131850675Y-81361069D01*
X131841180Y-81355586D01*
X131643722Y-81263510D01*
X131633430Y-81259764D01*
X131422981Y-81203375D01*
X131412188Y-81201472D01*
X131195144Y-81182483D01*
X131184194Y-81182483D01*
X130967150Y-81201472D01*
X130956357Y-81203375D01*
X130745908Y-81259764D01*
X130735616Y-81263510D01*
X130538158Y-81355586D01*
X130528663Y-81361069D01*
X130476621Y-81397509D01*
X130468245Y-81407988D01*
X129624483Y-81407988D01*
X129641788Y-81343402D01*
X129641788Y-81343400D01*
X129643212Y-81338087D01*
X129663167Y-81110000D01*
X129643212Y-80881913D01*
X129583953Y-80660757D01*
X129581630Y-80655775D01*
X129489518Y-80458238D01*
X129489515Y-80458233D01*
X129487192Y-80453251D01*
X129355867Y-80265700D01*
X129193969Y-80103802D01*
X129189461Y-80100645D01*
X129189458Y-80100643D01*
X129111280Y-80045902D01*
X129006418Y-79972477D01*
X129001436Y-79970154D01*
X129001431Y-79970151D01*
X128803894Y-79878039D01*
X128803893Y-79878039D01*
X128798912Y-79875716D01*
X128793604Y-79874294D01*
X128793602Y-79874293D01*
X128583071Y-79817881D01*
X128583069Y-79817881D01*
X128577756Y-79816457D01*
X128349669Y-79796502D01*
X128121582Y-79816457D01*
X128116269Y-79817881D01*
X128116267Y-79817881D01*
X127905736Y-79874293D01*
X127905734Y-79874294D01*
X127900426Y-79875716D01*
X127895445Y-79878039D01*
X127895444Y-79878039D01*
X127697907Y-79970151D01*
X127697902Y-79970154D01*
X127692920Y-79972477D01*
X127588058Y-80045902D01*
X127509880Y-80100643D01*
X127509877Y-80100645D01*
X127505369Y-80103802D01*
X127343471Y-80265700D01*
X127212146Y-80453251D01*
X127209823Y-80458233D01*
X127209820Y-80458238D01*
X127117708Y-80655775D01*
X127115385Y-80660757D01*
X127056126Y-80881913D01*
X127036171Y-81110000D01*
X127056126Y-81338087D01*
X127057550Y-81343400D01*
X127057550Y-81343402D01*
X127075111Y-81408938D01*
X127115385Y-81559243D01*
X127117708Y-81564224D01*
X127117708Y-81564225D01*
X127209820Y-81761762D01*
X127209823Y-81761767D01*
X127212146Y-81766749D01*
X127343471Y-81954300D01*
X127505369Y-82116198D01*
X127509877Y-82119355D01*
X127509880Y-82119357D01*
X127588058Y-82174098D01*
X127692920Y-82247523D01*
X127697902Y-82249846D01*
X127697907Y-82249849D01*
X127895444Y-82341961D01*
X127900426Y-82344284D01*
X127905734Y-82345706D01*
X127905736Y-82345707D01*
X128008688Y-82373293D01*
X128069311Y-82410245D01*
X128100332Y-82474106D01*
X128091904Y-82544600D01*
X128046701Y-82599347D01*
X128008688Y-82616707D01*
X127905736Y-82644293D01*
X127905734Y-82644294D01*
X127900426Y-82645716D01*
X127895445Y-82648039D01*
X127895444Y-82648039D01*
X127697907Y-82740151D01*
X127697902Y-82740154D01*
X127692920Y-82742477D01*
X127588058Y-82815902D01*
X127509880Y-82870643D01*
X127509877Y-82870645D01*
X127505369Y-82873802D01*
X127343471Y-83035700D01*
X127212146Y-83223251D01*
X127209823Y-83228233D01*
X127209820Y-83228238D01*
X127117708Y-83425775D01*
X127115385Y-83430757D01*
X127113963Y-83436065D01*
X127113962Y-83436067D01*
X127074856Y-83582012D01*
X127056126Y-83651913D01*
X127036171Y-83880000D01*
X127056126Y-84108087D01*
X127057550Y-84113400D01*
X127057550Y-84113402D01*
X127075111Y-84178938D01*
X127115385Y-84329243D01*
X127117708Y-84334224D01*
X127117708Y-84334225D01*
X127209820Y-84531762D01*
X127209823Y-84531767D01*
X127212146Y-84536749D01*
X127343471Y-84724300D01*
X127505369Y-84886198D01*
X127509877Y-84889355D01*
X127509880Y-84889357D01*
X127588058Y-84944098D01*
X127692920Y-85017523D01*
X127697902Y-85019846D01*
X127697907Y-85019849D01*
X127895444Y-85111961D01*
X127900426Y-85114284D01*
X127905734Y-85115706D01*
X127905736Y-85115707D01*
X128008688Y-85143293D01*
X128069311Y-85180245D01*
X128100332Y-85244106D01*
X128091904Y-85314600D01*
X128046701Y-85369347D01*
X128008688Y-85386707D01*
X127905736Y-85414293D01*
X127905734Y-85414294D01*
X127900426Y-85415716D01*
X127895445Y-85418039D01*
X127895444Y-85418039D01*
X127697907Y-85510151D01*
X127697902Y-85510154D01*
X127692920Y-85512477D01*
X127588058Y-85585902D01*
X127509880Y-85640643D01*
X127509877Y-85640645D01*
X127505369Y-85643802D01*
X127343471Y-85805700D01*
X127340314Y-85810208D01*
X127340312Y-85810211D01*
X127305731Y-85859598D01*
X127212146Y-85993251D01*
X127209823Y-85998233D01*
X127209820Y-85998238D01*
X127128507Y-86172617D01*
X127115385Y-86200757D01*
X127113963Y-86206065D01*
X127113962Y-86206067D01*
X127072314Y-86361500D01*
X127056126Y-86421913D01*
X127036171Y-86650000D01*
X127056126Y-86878087D01*
X127057550Y-86883400D01*
X127057550Y-86883402D01*
X127106636Y-87066590D01*
X127115385Y-87099243D01*
X127117708Y-87104224D01*
X127117708Y-87104225D01*
X127209820Y-87301762D01*
X127209823Y-87301767D01*
X127212146Y-87306749D01*
X127343471Y-87494300D01*
X127505369Y-87656198D01*
X127509877Y-87659355D01*
X127509880Y-87659357D01*
X127531761Y-87674678D01*
X127692920Y-87787523D01*
X127697902Y-87789846D01*
X127697907Y-87789849D01*
X127895444Y-87881961D01*
X127900426Y-87884284D01*
X127905734Y-87885706D01*
X127905736Y-87885707D01*
X128008688Y-87913293D01*
X128069311Y-87950245D01*
X128100332Y-88014106D01*
X128091904Y-88084600D01*
X128046701Y-88139347D01*
X128008688Y-88156707D01*
X127905736Y-88184293D01*
X127905734Y-88184294D01*
X127900426Y-88185716D01*
X127895445Y-88188039D01*
X127895444Y-88188039D01*
X127697907Y-88280151D01*
X127697902Y-88280154D01*
X127692920Y-88282477D01*
X127623024Y-88331419D01*
X127509880Y-88410643D01*
X127509877Y-88410645D01*
X127505369Y-88413802D01*
X127343471Y-88575700D01*
X127340314Y-88580208D01*
X127340312Y-88580211D01*
X127233488Y-88732771D01*
X127178031Y-88777099D01*
X127130275Y-88786500D01*
X119573768Y-88786500D01*
X119562585Y-88785973D01*
X119555092Y-88784298D01*
X119547166Y-88784547D01*
X119547165Y-88784547D01*
X119487002Y-88786438D01*
X119483044Y-88786500D01*
X119455144Y-88786500D01*
X119451154Y-88787004D01*
X119439320Y-88787936D01*
X119395111Y-88789326D01*
X119387495Y-88791539D01*
X119387493Y-88791539D01*
X119375652Y-88794979D01*
X119356293Y-88798988D01*
X119354983Y-88799154D01*
X119336203Y-88801526D01*
X119328837Y-88804442D01*
X119328831Y-88804444D01*
X119295098Y-88817800D01*
X119283868Y-88821645D01*
X119249017Y-88831770D01*
X119241407Y-88833981D01*
X119234584Y-88838016D01*
X119223966Y-88844295D01*
X119206213Y-88852992D01*
X119198568Y-88856019D01*
X119187383Y-88860448D01*
X119162875Y-88878254D01*
X119151612Y-88886437D01*
X119141695Y-88892951D01*
X119103638Y-88915458D01*
X119089314Y-88929782D01*
X119074287Y-88942617D01*
X119057893Y-88954528D01*
X119052840Y-88960636D01*
X119052838Y-88960638D01*
X119029708Y-88988598D01*
X119021718Y-88997378D01*
X118987749Y-89031347D01*
X118979460Y-89038890D01*
X118972982Y-89043000D01*
X118967559Y-89048775D01*
X118926372Y-89092636D01*
X118923616Y-89095480D01*
X118903865Y-89115230D01*
X118901385Y-89118427D01*
X118893682Y-89127447D01*
X118863414Y-89159679D01*
X118859595Y-89166625D01*
X118859593Y-89166628D01*
X118853652Y-89177434D01*
X118842801Y-89193953D01*
X118830386Y-89209959D01*
X118827241Y-89217228D01*
X118827238Y-89217232D01*
X118812826Y-89250537D01*
X118807609Y-89261187D01*
X118786305Y-89299940D01*
X118784334Y-89307615D01*
X118784334Y-89307616D01*
X118781267Y-89319562D01*
X118774863Y-89338266D01*
X118766819Y-89356855D01*
X118765580Y-89364678D01*
X118765577Y-89364688D01*
X118759901Y-89400524D01*
X118757495Y-89412144D01*
X118750114Y-89440895D01*
X118746500Y-89454970D01*
X118746500Y-89475224D01*
X118744949Y-89494934D01*
X118741780Y-89514943D01*
X118742526Y-89522835D01*
X118745941Y-89558961D01*
X118746500Y-89570819D01*
X118746500Y-123510405D01*
X118726498Y-123578526D01*
X118709595Y-123599500D01*
X117884500Y-124424595D01*
X117822188Y-124458621D01*
X117795405Y-124461500D01*
X114941805Y-124461500D01*
X114873684Y-124441498D01*
X114836013Y-124403940D01*
X114747822Y-124267617D01*
X114747820Y-124267614D01*
X114745014Y-124263277D01*
X114594670Y-124098051D01*
X114590619Y-124094852D01*
X114590615Y-124094848D01*
X114423414Y-123962800D01*
X114423410Y-123962798D01*
X114419359Y-123959598D01*
X114378053Y-123936796D01*
X114328084Y-123886364D01*
X114313312Y-123816921D01*
X114338428Y-123750516D01*
X114365780Y-123723909D01*
X114432060Y-123676632D01*
X114544860Y-123596173D01*
X114550105Y-123590947D01*
X114699435Y-123442137D01*
X114703096Y-123438489D01*
X114742255Y-123383994D01*
X114830435Y-123261277D01*
X114833453Y-123257077D01*
X114854324Y-123214849D01*
X114930136Y-123061453D01*
X114930137Y-123061451D01*
X114932430Y-123056811D01*
X114982078Y-122893402D01*
X114995865Y-122848023D01*
X114995865Y-122848021D01*
X114997370Y-122843069D01*
X115026529Y-122621590D01*
X115026611Y-122618240D01*
X115028074Y-122558365D01*
X115028074Y-122558361D01*
X115028156Y-122555000D01*
X115009852Y-122332361D01*
X114955431Y-122115702D01*
X114866354Y-121910840D01*
X114826906Y-121849862D01*
X114747822Y-121727617D01*
X114747820Y-121727614D01*
X114745014Y-121723277D01*
X114594670Y-121558051D01*
X114590619Y-121554852D01*
X114590615Y-121554848D01*
X114423414Y-121422800D01*
X114423410Y-121422798D01*
X114419359Y-121419598D01*
X114378053Y-121396796D01*
X114328084Y-121346364D01*
X114313312Y-121276921D01*
X114338428Y-121210516D01*
X114365780Y-121183909D01*
X114432060Y-121136632D01*
X114544860Y-121056173D01*
X114576779Y-121024366D01*
X114626209Y-120975107D01*
X114703096Y-120898489D01*
X114762594Y-120815689D01*
X114830435Y-120721277D01*
X114833453Y-120717077D01*
X114854324Y-120674849D01*
X114930136Y-120521453D01*
X114930137Y-120521451D01*
X114932430Y-120516811D01*
X114984866Y-120344225D01*
X114995865Y-120308023D01*
X114995865Y-120308021D01*
X114997370Y-120303069D01*
X115026529Y-120081590D01*
X115026611Y-120078240D01*
X115028074Y-120018365D01*
X115028074Y-120018361D01*
X115028156Y-120015000D01*
X115009852Y-119792361D01*
X114955431Y-119575702D01*
X114866354Y-119370840D01*
X114777344Y-119233251D01*
X114747822Y-119187617D01*
X114747820Y-119187614D01*
X114745014Y-119183277D01*
X114594670Y-119018051D01*
X114590619Y-119014852D01*
X114590615Y-119014848D01*
X114423414Y-118882800D01*
X114423410Y-118882798D01*
X114419359Y-118879598D01*
X114378053Y-118856796D01*
X114328084Y-118806364D01*
X114313312Y-118736921D01*
X114338428Y-118670516D01*
X114365780Y-118643909D01*
X114432305Y-118596457D01*
X114544860Y-118516173D01*
X114559048Y-118502035D01*
X114699435Y-118362137D01*
X114703096Y-118358489D01*
X114762594Y-118275689D01*
X114830435Y-118181277D01*
X114833453Y-118177077D01*
X114854324Y-118134849D01*
X114930136Y-117981453D01*
X114930137Y-117981451D01*
X114932430Y-117976811D01*
X114989211Y-117789923D01*
X114995865Y-117768023D01*
X114995865Y-117768021D01*
X114997370Y-117763069D01*
X115026529Y-117541590D01*
X115028156Y-117475000D01*
X115009852Y-117252361D01*
X114955431Y-117035702D01*
X114866354Y-116830840D01*
X114759569Y-116665775D01*
X114747822Y-116647617D01*
X114747820Y-116647614D01*
X114745014Y-116643277D01*
X114594670Y-116478051D01*
X114590619Y-116474852D01*
X114590615Y-116474848D01*
X114423414Y-116342800D01*
X114423410Y-116342798D01*
X114419359Y-116339598D01*
X114378053Y-116316796D01*
X114328084Y-116266364D01*
X114313312Y-116196921D01*
X114338428Y-116130516D01*
X114365780Y-116103909D01*
X114432060Y-116056632D01*
X114544860Y-115976173D01*
X114703096Y-115818489D01*
X114711710Y-115806502D01*
X114830435Y-115641277D01*
X114833453Y-115637077D01*
X114854324Y-115594849D01*
X114930136Y-115441453D01*
X114930137Y-115441451D01*
X114932430Y-115436811D01*
X114997370Y-115223069D01*
X115026529Y-115001590D01*
X115028156Y-114935000D01*
X115009852Y-114712361D01*
X114955431Y-114495702D01*
X114866354Y-114290840D01*
X114771209Y-114143768D01*
X114747822Y-114107617D01*
X114747820Y-114107614D01*
X114745014Y-114103277D01*
X114594670Y-113938051D01*
X114590619Y-113934852D01*
X114590615Y-113934848D01*
X114423414Y-113802800D01*
X114423410Y-113802798D01*
X114419359Y-113799598D01*
X114378053Y-113776796D01*
X114328084Y-113726364D01*
X114313312Y-113656921D01*
X114338428Y-113590516D01*
X114365780Y-113563909D01*
X114432060Y-113516632D01*
X114544860Y-113436173D01*
X114703096Y-113278489D01*
X114762594Y-113195689D01*
X114830435Y-113101277D01*
X114833453Y-113097077D01*
X114854324Y-113054849D01*
X114930136Y-112901453D01*
X114930137Y-112901451D01*
X114932430Y-112896811D01*
X114997370Y-112683069D01*
X115026529Y-112461590D01*
X115027440Y-112424300D01*
X115028074Y-112398365D01*
X115028074Y-112398361D01*
X115028156Y-112395000D01*
X115009852Y-112172361D01*
X114955431Y-111955702D01*
X114866354Y-111750840D01*
X114752291Y-111574525D01*
X114747822Y-111567617D01*
X114747820Y-111567614D01*
X114745014Y-111563277D01*
X114594670Y-111398051D01*
X114590619Y-111394852D01*
X114590615Y-111394848D01*
X114423414Y-111262800D01*
X114423410Y-111262798D01*
X114419359Y-111259598D01*
X114378053Y-111236796D01*
X114328084Y-111186364D01*
X114313312Y-111116921D01*
X114338428Y-111050516D01*
X114365780Y-111023909D01*
X114432060Y-110976632D01*
X114544860Y-110896173D01*
X114703096Y-110738489D01*
X114707901Y-110731803D01*
X114830435Y-110561277D01*
X114833453Y-110557077D01*
X114854324Y-110514849D01*
X114930136Y-110361453D01*
X114930137Y-110361451D01*
X114932430Y-110356811D01*
X114977700Y-110207812D01*
X114995865Y-110148023D01*
X114995865Y-110148021D01*
X114997370Y-110143069D01*
X115026529Y-109921590D01*
X115028156Y-109855000D01*
X115009852Y-109632361D01*
X114955431Y-109415702D01*
X114866354Y-109210840D01*
X114765916Y-109055586D01*
X114747822Y-109027617D01*
X114747820Y-109027614D01*
X114745014Y-109023277D01*
X114594670Y-108858051D01*
X114590619Y-108854852D01*
X114590615Y-108854848D01*
X114423414Y-108722800D01*
X114423410Y-108722798D01*
X114419359Y-108719598D01*
X114378053Y-108696796D01*
X114328084Y-108646364D01*
X114313312Y-108576921D01*
X114338428Y-108510516D01*
X114365780Y-108483909D01*
X114432060Y-108436632D01*
X114544860Y-108356173D01*
X114703096Y-108198489D01*
X114747129Y-108137211D01*
X114830435Y-108021277D01*
X114833453Y-108017077D01*
X114854324Y-107974849D01*
X114930136Y-107821453D01*
X114930137Y-107821451D01*
X114932430Y-107816811D01*
X114997370Y-107603069D01*
X115026529Y-107381590D01*
X115026680Y-107375400D01*
X115028074Y-107318365D01*
X115028074Y-107318361D01*
X115028156Y-107315000D01*
X115009852Y-107092361D01*
X114955431Y-106875702D01*
X114866354Y-106670840D01*
X114826906Y-106609862D01*
X114747822Y-106487617D01*
X114747820Y-106487614D01*
X114745014Y-106483277D01*
X114594670Y-106318051D01*
X114590619Y-106314852D01*
X114590615Y-106314848D01*
X114423414Y-106182800D01*
X114423410Y-106182798D01*
X114419359Y-106179598D01*
X114378053Y-106156796D01*
X114328084Y-106106364D01*
X114313312Y-106036921D01*
X114338428Y-105970516D01*
X114365780Y-105943909D01*
X114432060Y-105896632D01*
X114544860Y-105816173D01*
X114572198Y-105788931D01*
X114699435Y-105662137D01*
X114703096Y-105658489D01*
X114762594Y-105575689D01*
X114830435Y-105481277D01*
X114833453Y-105477077D01*
X114854324Y-105434849D01*
X114930136Y-105281453D01*
X114930137Y-105281451D01*
X114932430Y-105276811D01*
X114997370Y-105063069D01*
X115026529Y-104841590D01*
X115028156Y-104775000D01*
X115009852Y-104552361D01*
X114955431Y-104335702D01*
X114866354Y-104130840D01*
X114783967Y-104003489D01*
X114747822Y-103947617D01*
X114747820Y-103947614D01*
X114745014Y-103943277D01*
X114594670Y-103778051D01*
X114590619Y-103774852D01*
X114590615Y-103774848D01*
X114423414Y-103642800D01*
X114423410Y-103642798D01*
X114419359Y-103639598D01*
X114378053Y-103616796D01*
X114328084Y-103566364D01*
X114313312Y-103496921D01*
X114338428Y-103430516D01*
X114365780Y-103403909D01*
X114434691Y-103354755D01*
X114544860Y-103276173D01*
X114703096Y-103118489D01*
X114762594Y-103035689D01*
X114830435Y-102941277D01*
X114833453Y-102937077D01*
X114854324Y-102894849D01*
X114930136Y-102741453D01*
X114930137Y-102741451D01*
X114932430Y-102736811D01*
X114997370Y-102523069D01*
X115026529Y-102301590D01*
X115027452Y-102263802D01*
X115028074Y-102238365D01*
X115028074Y-102238361D01*
X115028156Y-102235000D01*
X115009852Y-102012361D01*
X114955431Y-101795702D01*
X114866354Y-101590840D01*
X114762915Y-101430947D01*
X114747822Y-101407617D01*
X114747820Y-101407614D01*
X114745014Y-101403277D01*
X114594670Y-101238051D01*
X114590619Y-101234852D01*
X114590615Y-101234848D01*
X114423414Y-101102800D01*
X114423410Y-101102798D01*
X114419359Y-101099598D01*
X114378053Y-101076796D01*
X114328084Y-101026364D01*
X114313312Y-100956921D01*
X114338428Y-100890516D01*
X114365780Y-100863909D01*
X114432060Y-100816632D01*
X114544860Y-100736173D01*
X114552975Y-100728087D01*
X114699435Y-100582137D01*
X114703096Y-100578489D01*
X114762594Y-100495689D01*
X114830435Y-100401277D01*
X114833453Y-100397077D01*
X114854324Y-100354849D01*
X114930136Y-100201453D01*
X114930137Y-100201451D01*
X114932430Y-100196811D01*
X114997370Y-99983069D01*
X115026529Y-99761590D01*
X115028156Y-99695000D01*
X115009852Y-99472361D01*
X114955431Y-99255702D01*
X114866354Y-99050840D01*
X114756925Y-98881688D01*
X114747822Y-98867617D01*
X114747820Y-98867614D01*
X114745014Y-98863277D01*
X114594670Y-98698051D01*
X114590619Y-98694852D01*
X114590615Y-98694848D01*
X114423414Y-98562800D01*
X114423410Y-98562798D01*
X114419359Y-98559598D01*
X114378053Y-98536796D01*
X114328084Y-98486364D01*
X114313312Y-98416921D01*
X114338428Y-98350516D01*
X114365780Y-98323909D01*
X114432060Y-98276632D01*
X114544860Y-98196173D01*
X114703096Y-98038489D01*
X114762594Y-97955689D01*
X114830435Y-97861277D01*
X114833453Y-97857077D01*
X114854324Y-97814849D01*
X114930136Y-97661453D01*
X114930137Y-97661451D01*
X114932430Y-97656811D01*
X114997370Y-97443069D01*
X115026529Y-97221590D01*
X115028156Y-97155000D01*
X115009852Y-96932361D01*
X114955431Y-96715702D01*
X114866354Y-96510840D01*
X114762609Y-96350475D01*
X114747822Y-96327617D01*
X114747820Y-96327614D01*
X114745014Y-96323277D01*
X114594670Y-96158051D01*
X114590619Y-96154852D01*
X114590615Y-96154848D01*
X114423414Y-96022800D01*
X114423410Y-96022798D01*
X114419359Y-96019598D01*
X114378053Y-95996796D01*
X114328084Y-95946364D01*
X114313312Y-95876921D01*
X114338428Y-95810516D01*
X114365780Y-95783909D01*
X114432060Y-95736632D01*
X114544860Y-95656173D01*
X114570479Y-95630644D01*
X114699435Y-95502137D01*
X114703096Y-95498489D01*
X114762594Y-95415689D01*
X114830435Y-95321277D01*
X114833453Y-95317077D01*
X114854324Y-95274849D01*
X114930136Y-95121453D01*
X114930137Y-95121451D01*
X114932430Y-95116811D01*
X114997370Y-94903069D01*
X115026529Y-94681590D01*
X115026751Y-94672491D01*
X115028074Y-94618365D01*
X115028074Y-94618361D01*
X115028156Y-94615000D01*
X115009852Y-94392361D01*
X114955431Y-94175702D01*
X114866354Y-93970840D01*
X114754228Y-93797519D01*
X114747822Y-93787617D01*
X114747820Y-93787614D01*
X114745014Y-93783277D01*
X114594670Y-93618051D01*
X114590619Y-93614852D01*
X114590615Y-93614848D01*
X114423414Y-93482800D01*
X114423410Y-93482798D01*
X114419359Y-93479598D01*
X114378053Y-93456796D01*
X114328084Y-93406364D01*
X114313312Y-93336921D01*
X114338428Y-93270516D01*
X114365780Y-93243909D01*
X114432668Y-93196198D01*
X114544860Y-93116173D01*
X114703096Y-92958489D01*
X114762594Y-92875689D01*
X114830435Y-92781277D01*
X114833453Y-92777077D01*
X114854324Y-92734849D01*
X114930136Y-92581453D01*
X114930137Y-92581451D01*
X114932430Y-92576811D01*
X114997370Y-92363069D01*
X115026529Y-92141590D01*
X115028156Y-92075000D01*
X115009852Y-91852361D01*
X114955431Y-91635702D01*
X114866354Y-91430840D01*
X114814193Y-91350211D01*
X114747822Y-91247617D01*
X114747820Y-91247614D01*
X114745014Y-91243277D01*
X114594670Y-91078051D01*
X114590619Y-91074852D01*
X114590615Y-91074848D01*
X114423414Y-90942800D01*
X114423410Y-90942798D01*
X114419359Y-90939598D01*
X114378053Y-90916796D01*
X114328084Y-90866364D01*
X114313312Y-90796921D01*
X114338428Y-90730516D01*
X114365780Y-90703909D01*
X114435352Y-90654284D01*
X114544860Y-90576173D01*
X114566744Y-90554366D01*
X114626209Y-90495107D01*
X114703096Y-90418489D01*
X114762594Y-90335689D01*
X114830435Y-90241277D01*
X114833453Y-90237077D01*
X114854324Y-90194849D01*
X114930136Y-90041453D01*
X114930137Y-90041451D01*
X114932430Y-90036811D01*
X114997370Y-89823069D01*
X115026529Y-89601590D01*
X115028156Y-89535000D01*
X115009852Y-89312361D01*
X114955431Y-89095702D01*
X114866354Y-88890840D01*
X114799662Y-88787750D01*
X114747822Y-88707617D01*
X114747820Y-88707614D01*
X114745014Y-88703277D01*
X114594670Y-88538051D01*
X114590619Y-88534852D01*
X114590615Y-88534848D01*
X114423414Y-88402800D01*
X114423410Y-88402798D01*
X114419359Y-88399598D01*
X114378053Y-88376796D01*
X114328084Y-88326364D01*
X114313312Y-88256921D01*
X114338428Y-88190516D01*
X114365780Y-88163909D01*
X114432060Y-88116632D01*
X114544860Y-88036173D01*
X114549013Y-88032035D01*
X114695853Y-87885707D01*
X114703096Y-87878489D01*
X114762594Y-87795689D01*
X114830435Y-87701277D01*
X114833453Y-87697077D01*
X114846608Y-87670461D01*
X114930136Y-87501453D01*
X114930137Y-87501451D01*
X114932430Y-87496811D01*
X114988101Y-87313576D01*
X114995865Y-87288023D01*
X114995865Y-87288021D01*
X114997370Y-87283069D01*
X115026529Y-87061590D01*
X115028156Y-86995000D01*
X115009852Y-86772361D01*
X114955431Y-86555702D01*
X114866354Y-86350840D01*
X114766038Y-86195775D01*
X114747822Y-86167617D01*
X114747820Y-86167614D01*
X114745014Y-86163277D01*
X114594670Y-85998051D01*
X114590619Y-85994852D01*
X114590615Y-85994848D01*
X114423414Y-85862800D01*
X114423410Y-85862798D01*
X114419359Y-85859598D01*
X114402038Y-85850036D01*
X114329894Y-85810211D01*
X114223789Y-85751638D01*
X114218920Y-85749914D01*
X114218916Y-85749912D01*
X114018087Y-85678795D01*
X114018083Y-85678794D01*
X114013212Y-85677069D01*
X114008119Y-85676162D01*
X114008116Y-85676161D01*
X113798373Y-85638800D01*
X113798367Y-85638799D01*
X113793284Y-85637894D01*
X113719452Y-85636992D01*
X113575081Y-85635228D01*
X113575079Y-85635228D01*
X113569911Y-85635165D01*
X113349091Y-85668955D01*
X113136756Y-85738357D01*
X113106443Y-85754137D01*
X113007392Y-85805700D01*
X112938607Y-85841507D01*
X112934474Y-85844610D01*
X112934471Y-85844612D01*
X112764100Y-85972530D01*
X112759965Y-85975635D01*
X112605629Y-86137138D01*
X112498201Y-86294621D01*
X112443293Y-86339621D01*
X112372768Y-86347792D01*
X112309021Y-86316538D01*
X112288324Y-86292054D01*
X112207822Y-86167617D01*
X112207820Y-86167614D01*
X112205014Y-86163277D01*
X112054670Y-85998051D01*
X112050619Y-85994852D01*
X112050615Y-85994848D01*
X111883414Y-85862800D01*
X111883410Y-85862798D01*
X111879359Y-85859598D01*
X111862038Y-85850036D01*
X111789894Y-85810211D01*
X111683789Y-85751638D01*
X111678920Y-85749914D01*
X111678916Y-85749912D01*
X111478087Y-85678795D01*
X111478083Y-85678794D01*
X111473212Y-85677069D01*
X111468119Y-85676162D01*
X111468116Y-85676161D01*
X111258373Y-85638800D01*
X111258367Y-85638799D01*
X111253284Y-85637894D01*
X111179452Y-85636992D01*
X111035081Y-85635228D01*
X111035079Y-85635228D01*
X111029911Y-85635165D01*
X110809091Y-85668955D01*
X110596756Y-85738357D01*
X110566443Y-85754137D01*
X110467392Y-85805700D01*
X110398607Y-85841507D01*
X110394474Y-85844610D01*
X110394471Y-85844612D01*
X110224100Y-85972530D01*
X110219965Y-85975635D01*
X110065629Y-86137138D01*
X110062720Y-86141403D01*
X110062714Y-86141411D01*
X110022231Y-86200757D01*
X109939743Y-86321680D01*
X109845688Y-86524305D01*
X109785989Y-86739570D01*
X109762251Y-86961695D01*
X109762548Y-86966848D01*
X109762548Y-86966851D01*
X109768011Y-87061590D01*
X109775110Y-87184715D01*
X109776247Y-87189761D01*
X109776248Y-87189767D01*
X109790724Y-87254000D01*
X109824222Y-87402639D01*
X109908266Y-87609616D01*
X109938747Y-87659357D01*
X110022286Y-87795680D01*
X110024987Y-87800088D01*
X110028367Y-87803990D01*
X110035722Y-87812481D01*
X110171250Y-87968938D01*
X110343126Y-88111632D01*
X110351683Y-88116632D01*
X110416445Y-88154476D01*
X110465169Y-88206114D01*
X110478240Y-88275897D01*
X110451509Y-88341669D01*
X110411055Y-88375027D01*
X110398607Y-88381507D01*
X110394474Y-88384610D01*
X110394471Y-88384612D01*
X110224100Y-88512530D01*
X110219965Y-88515635D01*
X110065629Y-88677138D01*
X110062720Y-88681403D01*
X110062714Y-88681411D01*
X109990175Y-88787750D01*
X109939743Y-88861680D01*
X109925790Y-88891739D01*
X109852897Y-89048775D01*
X109845688Y-89064305D01*
X109785989Y-89279570D01*
X109762251Y-89501695D01*
X109762548Y-89506848D01*
X109762548Y-89506851D01*
X109768011Y-89601590D01*
X109775110Y-89724715D01*
X109776247Y-89729761D01*
X109776248Y-89729767D01*
X109776624Y-89731434D01*
X109824222Y-89942639D01*
X109862405Y-90036672D01*
X109891055Y-90107229D01*
X109908266Y-90149616D01*
X109910965Y-90154020D01*
X110022286Y-90335680D01*
X110024987Y-90340088D01*
X110028367Y-90343990D01*
X110034393Y-90350947D01*
X110171250Y-90508938D01*
X110343126Y-90651632D01*
X110350100Y-90655707D01*
X110416445Y-90694476D01*
X110465169Y-90746114D01*
X110478240Y-90815897D01*
X110451509Y-90881669D01*
X110411055Y-90915027D01*
X110398607Y-90921507D01*
X110394474Y-90924610D01*
X110394471Y-90924612D01*
X110257412Y-91027519D01*
X110219965Y-91055635D01*
X110196476Y-91080215D01*
X110093762Y-91187699D01*
X110065629Y-91217138D01*
X110062720Y-91221403D01*
X110062714Y-91221411D01*
X110020177Y-91283768D01*
X109939743Y-91401680D01*
X109913063Y-91459158D01*
X109880763Y-91528743D01*
X109845688Y-91604305D01*
X109785989Y-91819570D01*
X109762251Y-92041695D01*
X109762548Y-92046848D01*
X109762548Y-92046851D01*
X109767942Y-92140400D01*
X109775110Y-92264715D01*
X109776247Y-92269761D01*
X109776248Y-92269767D01*
X109781788Y-92294347D01*
X109824222Y-92482639D01*
X109908266Y-92689616D01*
X109910965Y-92694020D01*
X110022286Y-92875680D01*
X110024987Y-92880088D01*
X110028367Y-92883990D01*
X110039352Y-92896671D01*
X110171250Y-93048938D01*
X110343126Y-93191632D01*
X110413595Y-93232811D01*
X110416445Y-93234476D01*
X110465169Y-93286114D01*
X110478240Y-93355897D01*
X110451509Y-93421669D01*
X110411055Y-93455027D01*
X110398607Y-93461507D01*
X110394474Y-93464610D01*
X110394471Y-93464612D01*
X110230384Y-93587812D01*
X110219965Y-93595635D01*
X110196476Y-93620215D01*
X110095657Y-93725716D01*
X110065629Y-93757138D01*
X110062720Y-93761403D01*
X110062714Y-93761411D01*
X110046670Y-93784931D01*
X109939743Y-93941680D01*
X109845688Y-94144305D01*
X109785989Y-94359570D01*
X109762251Y-94581695D01*
X109762548Y-94586848D01*
X109762548Y-94586851D01*
X109768011Y-94681590D01*
X109775110Y-94804715D01*
X109776247Y-94809761D01*
X109776248Y-94809767D01*
X109790724Y-94874000D01*
X109824222Y-95022639D01*
X109861121Y-95113510D01*
X109898509Y-95205586D01*
X109908266Y-95229616D01*
X109928496Y-95262628D01*
X110022286Y-95415680D01*
X110024987Y-95420088D01*
X110028367Y-95423990D01*
X110039352Y-95436671D01*
X110171250Y-95588938D01*
X110343126Y-95731632D01*
X110351683Y-95736632D01*
X110416445Y-95774476D01*
X110465169Y-95826114D01*
X110478240Y-95895897D01*
X110451509Y-95961669D01*
X110411055Y-95995027D01*
X110398607Y-96001507D01*
X110394474Y-96004610D01*
X110394471Y-96004612D01*
X110224100Y-96132530D01*
X110219965Y-96135635D01*
X110065629Y-96297138D01*
X110062720Y-96301403D01*
X110062714Y-96301411D01*
X110030957Y-96347965D01*
X109939743Y-96481680D01*
X109925790Y-96511739D01*
X109886848Y-96595634D01*
X109845688Y-96684305D01*
X109785989Y-96899570D01*
X109762251Y-97121695D01*
X109762548Y-97126848D01*
X109762548Y-97126851D01*
X109768011Y-97221590D01*
X109775110Y-97344715D01*
X109776247Y-97349761D01*
X109776248Y-97349767D01*
X109796119Y-97437939D01*
X109824222Y-97562639D01*
X109908266Y-97769616D01*
X109910965Y-97774020D01*
X110022286Y-97955680D01*
X110024987Y-97960088D01*
X110028367Y-97963990D01*
X110038412Y-97975586D01*
X110171250Y-98128938D01*
X110343126Y-98271632D01*
X110351683Y-98276632D01*
X110416445Y-98314476D01*
X110465169Y-98366114D01*
X110478240Y-98435897D01*
X110451509Y-98501669D01*
X110411055Y-98535027D01*
X110398607Y-98541507D01*
X110394474Y-98544610D01*
X110394471Y-98544612D01*
X110224100Y-98672530D01*
X110219965Y-98675635D01*
X110065629Y-98837138D01*
X110062720Y-98841403D01*
X110062714Y-98841411D01*
X110020177Y-98903768D01*
X109939743Y-99021680D01*
X109925790Y-99051739D01*
X109853973Y-99206457D01*
X109845688Y-99224305D01*
X109785989Y-99439570D01*
X109762251Y-99661695D01*
X109762548Y-99666848D01*
X109762548Y-99666851D01*
X109768299Y-99766590D01*
X109775110Y-99884715D01*
X109776247Y-99889761D01*
X109776248Y-99889767D01*
X109790724Y-99954000D01*
X109824222Y-100102639D01*
X109862405Y-100196672D01*
X109892957Y-100271913D01*
X109908266Y-100309616D01*
X109910965Y-100314020D01*
X110022286Y-100495680D01*
X110024987Y-100500088D01*
X110028367Y-100503990D01*
X110039352Y-100516671D01*
X110171250Y-100668938D01*
X110343126Y-100811632D01*
X110351683Y-100816632D01*
X110416445Y-100854476D01*
X110465169Y-100906114D01*
X110478240Y-100975897D01*
X110451509Y-101041669D01*
X110411055Y-101075027D01*
X110398607Y-101081507D01*
X110394474Y-101084610D01*
X110394471Y-101084612D01*
X110224100Y-101212530D01*
X110219965Y-101215635D01*
X110196476Y-101240215D01*
X110101321Y-101339789D01*
X110065629Y-101377138D01*
X110062720Y-101381403D01*
X110062714Y-101381411D01*
X110046670Y-101404931D01*
X109939743Y-101561680D01*
X109904538Y-101637523D01*
X109858963Y-101735707D01*
X109845688Y-101764305D01*
X109785989Y-101979570D01*
X109762251Y-102201695D01*
X109762548Y-102206848D01*
X109762548Y-102206851D01*
X109768011Y-102301590D01*
X109775110Y-102424715D01*
X109776247Y-102429761D01*
X109776248Y-102429767D01*
X109790724Y-102494000D01*
X109824222Y-102642639D01*
X109908266Y-102849616D01*
X109910965Y-102854020D01*
X110022286Y-103035680D01*
X110024987Y-103040088D01*
X110028367Y-103043990D01*
X110039352Y-103056671D01*
X110171250Y-103208938D01*
X110343126Y-103351632D01*
X110351683Y-103356632D01*
X110416445Y-103394476D01*
X110465169Y-103446114D01*
X110478240Y-103515897D01*
X110451509Y-103581669D01*
X110411055Y-103615027D01*
X110398607Y-103621507D01*
X110394474Y-103624610D01*
X110394471Y-103624612D01*
X110261799Y-103724225D01*
X110219965Y-103755635D01*
X110065629Y-103917138D01*
X110062720Y-103921403D01*
X110062714Y-103921411D01*
X110046670Y-103944931D01*
X109939743Y-104101680D01*
X109925790Y-104131739D01*
X109855588Y-104282978D01*
X109845688Y-104304305D01*
X109785989Y-104519570D01*
X109762251Y-104741695D01*
X109762548Y-104746848D01*
X109762548Y-104746851D01*
X109768011Y-104841590D01*
X109775110Y-104964715D01*
X109776247Y-104969761D01*
X109776248Y-104969767D01*
X109790724Y-105034000D01*
X109824222Y-105182639D01*
X109908266Y-105389616D01*
X109910965Y-105394020D01*
X110022286Y-105575680D01*
X110024987Y-105580088D01*
X110028367Y-105583990D01*
X110034229Y-105590757D01*
X110171250Y-105748938D01*
X110343126Y-105891632D01*
X110351683Y-105896632D01*
X110416445Y-105934476D01*
X110465169Y-105986114D01*
X110478240Y-106055897D01*
X110451509Y-106121669D01*
X110411055Y-106155027D01*
X110398607Y-106161507D01*
X110394474Y-106164610D01*
X110394471Y-106164612D01*
X110233349Y-106285586D01*
X110219965Y-106295635D01*
X110065629Y-106457138D01*
X110062720Y-106461403D01*
X110062714Y-106461411D01*
X110046670Y-106484931D01*
X109939743Y-106641680D01*
X109892715Y-106742993D01*
X109862017Y-106809128D01*
X109845688Y-106844305D01*
X109785989Y-107059570D01*
X109762251Y-107281695D01*
X109762548Y-107286848D01*
X109762548Y-107286851D01*
X109768011Y-107381590D01*
X109775110Y-107504715D01*
X109776246Y-107509755D01*
X109776248Y-107509767D01*
X109791733Y-107578475D01*
X109824222Y-107722639D01*
X109908266Y-107929616D01*
X109910965Y-107934020D01*
X110022286Y-108115680D01*
X110024987Y-108120088D01*
X110028367Y-108123990D01*
X110039352Y-108136671D01*
X110171250Y-108288938D01*
X110343126Y-108431632D01*
X110351683Y-108436632D01*
X110416445Y-108474476D01*
X110465169Y-108526114D01*
X110478240Y-108595897D01*
X110451509Y-108661669D01*
X110411055Y-108695027D01*
X110398607Y-108701507D01*
X110394474Y-108704610D01*
X110394471Y-108704612D01*
X110226278Y-108830895D01*
X110219965Y-108835635D01*
X110065629Y-108997138D01*
X110062720Y-109001403D01*
X110062714Y-109001411D01*
X110046670Y-109024931D01*
X109939743Y-109181680D01*
X109845688Y-109384305D01*
X109785989Y-109599570D01*
X109762251Y-109821695D01*
X109762548Y-109826848D01*
X109762548Y-109826851D01*
X109768011Y-109921590D01*
X109775110Y-110044715D01*
X109776247Y-110049761D01*
X109776248Y-110049767D01*
X109789878Y-110110245D01*
X109824222Y-110262639D01*
X109862405Y-110356672D01*
X109896302Y-110440151D01*
X109908266Y-110469616D01*
X109910965Y-110474020D01*
X110022286Y-110655680D01*
X110024987Y-110660088D01*
X110028367Y-110663990D01*
X110039352Y-110676671D01*
X110171250Y-110828938D01*
X110343126Y-110971632D01*
X110351683Y-110976632D01*
X110416445Y-111014476D01*
X110465169Y-111066114D01*
X110478240Y-111135897D01*
X110451509Y-111201669D01*
X110411055Y-111235027D01*
X110398607Y-111241507D01*
X110394474Y-111244610D01*
X110394471Y-111244612D01*
X110244261Y-111357393D01*
X110219965Y-111375635D01*
X110065629Y-111537138D01*
X110062720Y-111541403D01*
X110062714Y-111541411D01*
X110032656Y-111585475D01*
X109939743Y-111721680D01*
X109925790Y-111751739D01*
X109866747Y-111878938D01*
X109845688Y-111924305D01*
X109785989Y-112139570D01*
X109762251Y-112361695D01*
X109762548Y-112366848D01*
X109762548Y-112366851D01*
X109768011Y-112461590D01*
X109775110Y-112584715D01*
X109776247Y-112589761D01*
X109776248Y-112589767D01*
X109778688Y-112600592D01*
X109824222Y-112802639D01*
X109861116Y-112893498D01*
X109898634Y-112985894D01*
X109908266Y-113009616D01*
X109910965Y-113014020D01*
X110022286Y-113195680D01*
X110024987Y-113200088D01*
X110028367Y-113203990D01*
X110033704Y-113210151D01*
X110171250Y-113368938D01*
X110343126Y-113511632D01*
X110351683Y-113516632D01*
X110416445Y-113554476D01*
X110465169Y-113606114D01*
X110478240Y-113675897D01*
X110451509Y-113741669D01*
X110411055Y-113775027D01*
X110398607Y-113781507D01*
X110394474Y-113784610D01*
X110394471Y-113784612D01*
X110232708Y-113906067D01*
X110219965Y-113915635D01*
X110065629Y-114077138D01*
X110062720Y-114081403D01*
X110062714Y-114081411D01*
X110031349Y-114127391D01*
X109939743Y-114261680D01*
X109901288Y-114344525D01*
X109859405Y-114434755D01*
X109845688Y-114464305D01*
X109785989Y-114679570D01*
X109762251Y-114901695D01*
X109762548Y-114906848D01*
X109762548Y-114906851D01*
X109772733Y-115083489D01*
X109775110Y-115124715D01*
X109776247Y-115129761D01*
X109776248Y-115129767D01*
X109789775Y-115189789D01*
X109824222Y-115342639D01*
X109908266Y-115549616D01*
X109910965Y-115554020D01*
X110022286Y-115735680D01*
X110024987Y-115740088D01*
X110028367Y-115743990D01*
X110038679Y-115755894D01*
X110171250Y-115908938D01*
X110343126Y-116051632D01*
X110351683Y-116056632D01*
X110416445Y-116094476D01*
X110465169Y-116146114D01*
X110478240Y-116215897D01*
X110451509Y-116281669D01*
X110411055Y-116315027D01*
X110398607Y-116321507D01*
X110394474Y-116324610D01*
X110394471Y-116324612D01*
X110224100Y-116452530D01*
X110219965Y-116455635D01*
X110065629Y-116617138D01*
X110062720Y-116621403D01*
X110062714Y-116621411D01*
X110046670Y-116644931D01*
X109939743Y-116801680D01*
X109925790Y-116831739D01*
X109848479Y-116998293D01*
X109845688Y-117004305D01*
X109785989Y-117219570D01*
X109762251Y-117441695D01*
X109762548Y-117446848D01*
X109762548Y-117446851D01*
X109768011Y-117541590D01*
X109775110Y-117664715D01*
X109776247Y-117669761D01*
X109776248Y-117669767D01*
X109790724Y-117734000D01*
X109824222Y-117882639D01*
X109908266Y-118089616D01*
X109931264Y-118127145D01*
X110022286Y-118275680D01*
X110024987Y-118280088D01*
X110028367Y-118283990D01*
X110039352Y-118296671D01*
X110171250Y-118448938D01*
X110343126Y-118591632D01*
X110351683Y-118596632D01*
X110416445Y-118634476D01*
X110465169Y-118686114D01*
X110478240Y-118755897D01*
X110451509Y-118821669D01*
X110411055Y-118855027D01*
X110398607Y-118861507D01*
X110394474Y-118864610D01*
X110394471Y-118864612D01*
X110224100Y-118992530D01*
X110219965Y-118995635D01*
X110065629Y-119157138D01*
X110062720Y-119161403D01*
X110062714Y-119161411D01*
X110046670Y-119184931D01*
X109939743Y-119341680D01*
X109845688Y-119544305D01*
X109785989Y-119759570D01*
X109762251Y-119981695D01*
X109762548Y-119986848D01*
X109762548Y-119986851D01*
X109771124Y-120135586D01*
X109775110Y-120204715D01*
X109776247Y-120209761D01*
X109776248Y-120209767D01*
X109790724Y-120274000D01*
X109824222Y-120422639D01*
X109876448Y-120551257D01*
X109901923Y-120613994D01*
X109908266Y-120629616D01*
X109910965Y-120634020D01*
X110022286Y-120815680D01*
X110024987Y-120820088D01*
X110028367Y-120823990D01*
X110034646Y-120831239D01*
X110171250Y-120988938D01*
X110343126Y-121131632D01*
X110351683Y-121136632D01*
X110416445Y-121174476D01*
X110465169Y-121226114D01*
X110478240Y-121295897D01*
X110451509Y-121361669D01*
X110411055Y-121395027D01*
X110398607Y-121401507D01*
X110394474Y-121404610D01*
X110394471Y-121404612D01*
X110233285Y-121525634D01*
X110219965Y-121535635D01*
X110065629Y-121697138D01*
X110062720Y-121701403D01*
X110062714Y-121701411D01*
X110046670Y-121724931D01*
X109939743Y-121881680D01*
X109845688Y-122084305D01*
X109785989Y-122299570D01*
X109762251Y-122521695D01*
X109762548Y-122526848D01*
X109762548Y-122526851D01*
X109768011Y-122621590D01*
X109775110Y-122744715D01*
X109776247Y-122749761D01*
X109776248Y-122749767D01*
X109790614Y-122813510D01*
X109824222Y-122962639D01*
X109908266Y-123169616D01*
X109910965Y-123174020D01*
X110022286Y-123355680D01*
X110024987Y-123360088D01*
X110028367Y-123363990D01*
X110039352Y-123376671D01*
X110171250Y-123528938D01*
X110343126Y-123671632D01*
X110413595Y-123712811D01*
X110416445Y-123714476D01*
X110465169Y-123766114D01*
X110478240Y-123835897D01*
X110451509Y-123901669D01*
X110411055Y-123935027D01*
X110398607Y-123941507D01*
X110394474Y-123944610D01*
X110394471Y-123944612D01*
X110231459Y-124067005D01*
X110219965Y-124075635D01*
X110196476Y-124100215D01*
X110070011Y-124232553D01*
X110065629Y-124237138D01*
X110062720Y-124241403D01*
X110062714Y-124241411D01*
X110046670Y-124264931D01*
X109939743Y-124421680D01*
X109925790Y-124451739D01*
X109865417Y-124581803D01*
X109845688Y-124624305D01*
X109785989Y-124839570D01*
X109762251Y-125061695D01*
X109762548Y-125066848D01*
X109762548Y-125066851D01*
X109766943Y-125143077D01*
X109775110Y-125284715D01*
X109776247Y-125289761D01*
X109776248Y-125289767D01*
X109784336Y-125325653D01*
X109824222Y-125502639D01*
X109884014Y-125649890D01*
X109901662Y-125693351D01*
X109908266Y-125709616D01*
X109927322Y-125740713D01*
X110022286Y-125895680D01*
X110024987Y-125900088D01*
X110028367Y-125903990D01*
X110039352Y-125916671D01*
X110171250Y-126068938D01*
X110343126Y-126211632D01*
X110351683Y-126216632D01*
X110416445Y-126254476D01*
X110465169Y-126306114D01*
X110478240Y-126375897D01*
X110451509Y-126441669D01*
X110411055Y-126475027D01*
X110398607Y-126481507D01*
X110394474Y-126484610D01*
X110394471Y-126484612D01*
X110288249Y-126564366D01*
X110219965Y-126615635D01*
X110193766Y-126643051D01*
X110096025Y-126745331D01*
X110065629Y-126777138D01*
X110062715Y-126781410D01*
X110062714Y-126781411D01*
X110025548Y-126835894D01*
X109939743Y-126961680D01*
X109845688Y-127164305D01*
X109785989Y-127379570D01*
X109762251Y-127601695D01*
X103186000Y-127601695D01*
X103186000Y-127367885D01*
X103694000Y-127367885D01*
X103698475Y-127383124D01*
X103699865Y-127384329D01*
X103707548Y-127386000D01*
X104779884Y-127386000D01*
X104795123Y-127381525D01*
X104796328Y-127380135D01*
X104797999Y-127372452D01*
X104797999Y-126745331D01*
X104797629Y-126738510D01*
X104792105Y-126687648D01*
X104788479Y-126672396D01*
X104743324Y-126551946D01*
X104734786Y-126536351D01*
X104658285Y-126434276D01*
X104645724Y-126421715D01*
X104543649Y-126345214D01*
X104528054Y-126336676D01*
X104417297Y-126295155D01*
X104360533Y-126252513D01*
X104335833Y-126185952D01*
X104351040Y-126116603D01*
X104372587Y-126087922D01*
X104474057Y-125986805D01*
X104480730Y-125978965D01*
X104605003Y-125806020D01*
X104610313Y-125797183D01*
X104704670Y-125606267D01*
X104708469Y-125596672D01*
X104770377Y-125392910D01*
X104772555Y-125382837D01*
X104773986Y-125371962D01*
X104771775Y-125357778D01*
X104758617Y-125354000D01*
X103712115Y-125354000D01*
X103696876Y-125358475D01*
X103695671Y-125359865D01*
X103694000Y-125367548D01*
X103694000Y-127367885D01*
X103186000Y-127367885D01*
X103186000Y-124827885D01*
X103694000Y-124827885D01*
X103698475Y-124843124D01*
X103699865Y-124844329D01*
X103707548Y-124846000D01*
X104758344Y-124846000D01*
X104771875Y-124842027D01*
X104773180Y-124832947D01*
X104731214Y-124665875D01*
X104727894Y-124656124D01*
X104642972Y-124460814D01*
X104638105Y-124451739D01*
X104522426Y-124272926D01*
X104516136Y-124264757D01*
X104372806Y-124107240D01*
X104365273Y-124100215D01*
X104198139Y-123968222D01*
X104189552Y-123962517D01*
X104152116Y-123941851D01*
X104102146Y-123891419D01*
X104087374Y-123821976D01*
X104112490Y-123755571D01*
X104139842Y-123728964D01*
X104315327Y-123603792D01*
X104323200Y-123597139D01*
X104474052Y-123446812D01*
X104480730Y-123438965D01*
X104605003Y-123266020D01*
X104610313Y-123257183D01*
X104704670Y-123066267D01*
X104708469Y-123056672D01*
X104770377Y-122852910D01*
X104772555Y-122842837D01*
X104773986Y-122831962D01*
X104771775Y-122817778D01*
X104758617Y-122814000D01*
X103712115Y-122814000D01*
X103696876Y-122818475D01*
X103695671Y-122819865D01*
X103694000Y-122827548D01*
X103694000Y-124827885D01*
X103186000Y-124827885D01*
X103186000Y-122287885D01*
X103694000Y-122287885D01*
X103698475Y-122303124D01*
X103699865Y-122304329D01*
X103707548Y-122306000D01*
X104758344Y-122306000D01*
X104771875Y-122302027D01*
X104773180Y-122292947D01*
X104731214Y-122125875D01*
X104727894Y-122116124D01*
X104642972Y-121920814D01*
X104638105Y-121911739D01*
X104522426Y-121732926D01*
X104516136Y-121724757D01*
X104372806Y-121567240D01*
X104365273Y-121560215D01*
X104198139Y-121428222D01*
X104189552Y-121422517D01*
X104152116Y-121401851D01*
X104102146Y-121351419D01*
X104087374Y-121281976D01*
X104112490Y-121215571D01*
X104139842Y-121188964D01*
X104315327Y-121063792D01*
X104323200Y-121057139D01*
X104474052Y-120906812D01*
X104480730Y-120898965D01*
X104605003Y-120726020D01*
X104610313Y-120717183D01*
X104704670Y-120526267D01*
X104708469Y-120516672D01*
X104770377Y-120312910D01*
X104772555Y-120302837D01*
X104773986Y-120291962D01*
X104771775Y-120277778D01*
X104758617Y-120274000D01*
X103712115Y-120274000D01*
X103696876Y-120278475D01*
X103695671Y-120279865D01*
X103694000Y-120287548D01*
X103694000Y-122287885D01*
X103186000Y-122287885D01*
X103186000Y-119747885D01*
X103694000Y-119747885D01*
X103698475Y-119763124D01*
X103699865Y-119764329D01*
X103707548Y-119766000D01*
X104758344Y-119766000D01*
X104771875Y-119762027D01*
X104773180Y-119752947D01*
X104731214Y-119585875D01*
X104727894Y-119576124D01*
X104642972Y-119380814D01*
X104638105Y-119371739D01*
X104522426Y-119192926D01*
X104516136Y-119184757D01*
X104372806Y-119027240D01*
X104365273Y-119020215D01*
X104198139Y-118888222D01*
X104189552Y-118882517D01*
X104152116Y-118861851D01*
X104102146Y-118811419D01*
X104087374Y-118741976D01*
X104112490Y-118675571D01*
X104139842Y-118648964D01*
X104315327Y-118523792D01*
X104323200Y-118517139D01*
X104474052Y-118366812D01*
X104480730Y-118358965D01*
X104605003Y-118186020D01*
X104610313Y-118177183D01*
X104704670Y-117986267D01*
X104708469Y-117976672D01*
X104770377Y-117772910D01*
X104772555Y-117762837D01*
X104773986Y-117751962D01*
X104771775Y-117737778D01*
X104758617Y-117734000D01*
X103712115Y-117734000D01*
X103696876Y-117738475D01*
X103695671Y-117739865D01*
X103694000Y-117747548D01*
X103694000Y-119747885D01*
X103186000Y-119747885D01*
X103186000Y-117207885D01*
X103694000Y-117207885D01*
X103698475Y-117223124D01*
X103699865Y-117224329D01*
X103707548Y-117226000D01*
X104758344Y-117226000D01*
X104771875Y-117222027D01*
X104773180Y-117212947D01*
X104731214Y-117045875D01*
X104727894Y-117036124D01*
X104642972Y-116840814D01*
X104638105Y-116831739D01*
X104522426Y-116652926D01*
X104516136Y-116644757D01*
X104372806Y-116487240D01*
X104365273Y-116480215D01*
X104198139Y-116348222D01*
X104189552Y-116342517D01*
X104152116Y-116321851D01*
X104102146Y-116271419D01*
X104087374Y-116201976D01*
X104112490Y-116135571D01*
X104139842Y-116108964D01*
X104315327Y-115983792D01*
X104323200Y-115977139D01*
X104474052Y-115826812D01*
X104480730Y-115818965D01*
X104605003Y-115646020D01*
X104610313Y-115637183D01*
X104704670Y-115446267D01*
X104708469Y-115436672D01*
X104770377Y-115232910D01*
X104772555Y-115222837D01*
X104773986Y-115211962D01*
X104771775Y-115197778D01*
X104758617Y-115194000D01*
X103712115Y-115194000D01*
X103696876Y-115198475D01*
X103695671Y-115199865D01*
X103694000Y-115207548D01*
X103694000Y-117207885D01*
X103186000Y-117207885D01*
X103186000Y-114667885D01*
X103694000Y-114667885D01*
X103698475Y-114683124D01*
X103699865Y-114684329D01*
X103707548Y-114686000D01*
X104758344Y-114686000D01*
X104771875Y-114682027D01*
X104773180Y-114672947D01*
X104731214Y-114505875D01*
X104727894Y-114496124D01*
X104642972Y-114300814D01*
X104638105Y-114291739D01*
X104522426Y-114112926D01*
X104516136Y-114104757D01*
X104372806Y-113947240D01*
X104365273Y-113940215D01*
X104198139Y-113808222D01*
X104189552Y-113802517D01*
X104152116Y-113781851D01*
X104102146Y-113731419D01*
X104087374Y-113661976D01*
X104112490Y-113595571D01*
X104139842Y-113568964D01*
X104315327Y-113443792D01*
X104323200Y-113437139D01*
X104474052Y-113286812D01*
X104480730Y-113278965D01*
X104605003Y-113106020D01*
X104610313Y-113097183D01*
X104704670Y-112906267D01*
X104708469Y-112896672D01*
X104770377Y-112692910D01*
X104772555Y-112682837D01*
X104773986Y-112671962D01*
X104771775Y-112657778D01*
X104758617Y-112654000D01*
X103712115Y-112654000D01*
X103696876Y-112658475D01*
X103695671Y-112659865D01*
X103694000Y-112667548D01*
X103694000Y-114667885D01*
X103186000Y-114667885D01*
X103186000Y-112127885D01*
X103694000Y-112127885D01*
X103698475Y-112143124D01*
X103699865Y-112144329D01*
X103707548Y-112146000D01*
X104758344Y-112146000D01*
X104771875Y-112142027D01*
X104773180Y-112132947D01*
X104731214Y-111965875D01*
X104727894Y-111956124D01*
X104642972Y-111760814D01*
X104638105Y-111751739D01*
X104522426Y-111572926D01*
X104516136Y-111564757D01*
X104372806Y-111407240D01*
X104365273Y-111400215D01*
X104198139Y-111268222D01*
X104189552Y-111262517D01*
X104152116Y-111241851D01*
X104102146Y-111191419D01*
X104087374Y-111121976D01*
X104112490Y-111055571D01*
X104139842Y-111028964D01*
X104315327Y-110903792D01*
X104323200Y-110897139D01*
X104474052Y-110746812D01*
X104480730Y-110738965D01*
X104605003Y-110566020D01*
X104610313Y-110557183D01*
X104704670Y-110366267D01*
X104708469Y-110356672D01*
X104770377Y-110152910D01*
X104772555Y-110142837D01*
X104773986Y-110131962D01*
X104771775Y-110117778D01*
X104758617Y-110114000D01*
X103712115Y-110114000D01*
X103696876Y-110118475D01*
X103695671Y-110119865D01*
X103694000Y-110127548D01*
X103694000Y-112127885D01*
X103186000Y-112127885D01*
X103186000Y-109587885D01*
X103694000Y-109587885D01*
X103698475Y-109603124D01*
X103699865Y-109604329D01*
X103707548Y-109606000D01*
X104758344Y-109606000D01*
X104771875Y-109602027D01*
X104773180Y-109592947D01*
X104731214Y-109425875D01*
X104727894Y-109416124D01*
X104642972Y-109220814D01*
X104638105Y-109211739D01*
X104522426Y-109032926D01*
X104516136Y-109024757D01*
X104372806Y-108867240D01*
X104365273Y-108860215D01*
X104198139Y-108728222D01*
X104189552Y-108722517D01*
X104152116Y-108701851D01*
X104102146Y-108651419D01*
X104087374Y-108581976D01*
X104112490Y-108515571D01*
X104139842Y-108488964D01*
X104315327Y-108363792D01*
X104323200Y-108357139D01*
X104474052Y-108206812D01*
X104480730Y-108198965D01*
X104605003Y-108026020D01*
X104610313Y-108017183D01*
X104704670Y-107826267D01*
X104708469Y-107816672D01*
X104770377Y-107612910D01*
X104772555Y-107602837D01*
X104773986Y-107591962D01*
X104771775Y-107577778D01*
X104758617Y-107574000D01*
X103712115Y-107574000D01*
X103696876Y-107578475D01*
X103695671Y-107579865D01*
X103694000Y-107587548D01*
X103694000Y-109587885D01*
X103186000Y-109587885D01*
X103186000Y-107047885D01*
X103694000Y-107047885D01*
X103698475Y-107063124D01*
X103699865Y-107064329D01*
X103707548Y-107066000D01*
X104758344Y-107066000D01*
X104771875Y-107062027D01*
X104773180Y-107052947D01*
X104731214Y-106885875D01*
X104727894Y-106876124D01*
X104642972Y-106680814D01*
X104638105Y-106671739D01*
X104522426Y-106492926D01*
X104516136Y-106484757D01*
X104372806Y-106327240D01*
X104365273Y-106320215D01*
X104198139Y-106188222D01*
X104189552Y-106182517D01*
X104152116Y-106161851D01*
X104102146Y-106111419D01*
X104087374Y-106041976D01*
X104112490Y-105975571D01*
X104139842Y-105948964D01*
X104315327Y-105823792D01*
X104323200Y-105817139D01*
X104474052Y-105666812D01*
X104480730Y-105658965D01*
X104605003Y-105486020D01*
X104610313Y-105477183D01*
X104704670Y-105286267D01*
X104708469Y-105276672D01*
X104770377Y-105072910D01*
X104772555Y-105062837D01*
X104773986Y-105051962D01*
X104771775Y-105037778D01*
X104758617Y-105034000D01*
X103712115Y-105034000D01*
X103696876Y-105038475D01*
X103695671Y-105039865D01*
X103694000Y-105047548D01*
X103694000Y-107047885D01*
X103186000Y-107047885D01*
X103186000Y-104507885D01*
X103694000Y-104507885D01*
X103698475Y-104523124D01*
X103699865Y-104524329D01*
X103707548Y-104526000D01*
X104758344Y-104526000D01*
X104771875Y-104522027D01*
X104773180Y-104512947D01*
X104731214Y-104345875D01*
X104727894Y-104336124D01*
X104642972Y-104140814D01*
X104638105Y-104131739D01*
X104522426Y-103952926D01*
X104516136Y-103944757D01*
X104372806Y-103787240D01*
X104365273Y-103780215D01*
X104198139Y-103648222D01*
X104189552Y-103642517D01*
X104152116Y-103621851D01*
X104102146Y-103571419D01*
X104087374Y-103501976D01*
X104112490Y-103435571D01*
X104139842Y-103408964D01*
X104315327Y-103283792D01*
X104323200Y-103277139D01*
X104474052Y-103126812D01*
X104480730Y-103118965D01*
X104605003Y-102946020D01*
X104610313Y-102937183D01*
X104704670Y-102746267D01*
X104708469Y-102736672D01*
X104770377Y-102532910D01*
X104772555Y-102522837D01*
X104773986Y-102511962D01*
X104771775Y-102497778D01*
X104758617Y-102494000D01*
X103712115Y-102494000D01*
X103696876Y-102498475D01*
X103695671Y-102499865D01*
X103694000Y-102507548D01*
X103694000Y-104507885D01*
X103186000Y-104507885D01*
X103186000Y-101967885D01*
X103694000Y-101967885D01*
X103698475Y-101983124D01*
X103699865Y-101984329D01*
X103707548Y-101986000D01*
X104758344Y-101986000D01*
X104771875Y-101982027D01*
X104773180Y-101972947D01*
X104731214Y-101805875D01*
X104727894Y-101796124D01*
X104642972Y-101600814D01*
X104638105Y-101591739D01*
X104522426Y-101412926D01*
X104516136Y-101404757D01*
X104372806Y-101247240D01*
X104365273Y-101240215D01*
X104198139Y-101108222D01*
X104189552Y-101102517D01*
X104152116Y-101081851D01*
X104102146Y-101031419D01*
X104087374Y-100961976D01*
X104112490Y-100895571D01*
X104139842Y-100868964D01*
X104315327Y-100743792D01*
X104323200Y-100737139D01*
X104474052Y-100586812D01*
X104480730Y-100578965D01*
X104605003Y-100406020D01*
X104610313Y-100397183D01*
X104704670Y-100206267D01*
X104708469Y-100196672D01*
X104770377Y-99992910D01*
X104772555Y-99982837D01*
X104773986Y-99971962D01*
X104771775Y-99957778D01*
X104758617Y-99954000D01*
X103712115Y-99954000D01*
X103696876Y-99958475D01*
X103695671Y-99959865D01*
X103694000Y-99967548D01*
X103694000Y-101967885D01*
X103186000Y-101967885D01*
X103186000Y-99427885D01*
X103694000Y-99427885D01*
X103698475Y-99443124D01*
X103699865Y-99444329D01*
X103707548Y-99446000D01*
X104758344Y-99446000D01*
X104771875Y-99442027D01*
X104773180Y-99432947D01*
X104731214Y-99265875D01*
X104727894Y-99256124D01*
X104642972Y-99060814D01*
X104638105Y-99051739D01*
X104522426Y-98872926D01*
X104516136Y-98864757D01*
X104372806Y-98707240D01*
X104365273Y-98700215D01*
X104198139Y-98568222D01*
X104189552Y-98562517D01*
X104152116Y-98541851D01*
X104102146Y-98491419D01*
X104087374Y-98421976D01*
X104112490Y-98355571D01*
X104139842Y-98328964D01*
X104315327Y-98203792D01*
X104323200Y-98197139D01*
X104474052Y-98046812D01*
X104480730Y-98038965D01*
X104605003Y-97866020D01*
X104610313Y-97857183D01*
X104704670Y-97666267D01*
X104708469Y-97656672D01*
X104770377Y-97452910D01*
X104772555Y-97442837D01*
X104773986Y-97431962D01*
X104771775Y-97417778D01*
X104758617Y-97414000D01*
X103712115Y-97414000D01*
X103696876Y-97418475D01*
X103695671Y-97419865D01*
X103694000Y-97427548D01*
X103694000Y-99427885D01*
X103186000Y-99427885D01*
X103186000Y-96887885D01*
X103694000Y-96887885D01*
X103698475Y-96903124D01*
X103699865Y-96904329D01*
X103707548Y-96906000D01*
X104758344Y-96906000D01*
X104771875Y-96902027D01*
X104773180Y-96892947D01*
X104731214Y-96725875D01*
X104727894Y-96716124D01*
X104642972Y-96520814D01*
X104638105Y-96511739D01*
X104522426Y-96332926D01*
X104516136Y-96324757D01*
X104372806Y-96167240D01*
X104365273Y-96160215D01*
X104198139Y-96028222D01*
X104189552Y-96022517D01*
X104152116Y-96001851D01*
X104102146Y-95951419D01*
X104087374Y-95881976D01*
X104112490Y-95815571D01*
X104139842Y-95788964D01*
X104315327Y-95663792D01*
X104323200Y-95657139D01*
X104474052Y-95506812D01*
X104480730Y-95498965D01*
X104605003Y-95326020D01*
X104610313Y-95317183D01*
X104704670Y-95126267D01*
X104708469Y-95116672D01*
X104770377Y-94912910D01*
X104772555Y-94902837D01*
X104773986Y-94891962D01*
X104771775Y-94877778D01*
X104758617Y-94874000D01*
X103712115Y-94874000D01*
X103696876Y-94878475D01*
X103695671Y-94879865D01*
X103694000Y-94887548D01*
X103694000Y-96887885D01*
X103186000Y-96887885D01*
X103186000Y-94347885D01*
X103694000Y-94347885D01*
X103698475Y-94363124D01*
X103699865Y-94364329D01*
X103707548Y-94366000D01*
X104758344Y-94366000D01*
X104771875Y-94362027D01*
X104773180Y-94352947D01*
X104731214Y-94185875D01*
X104727894Y-94176124D01*
X104642972Y-93980814D01*
X104638105Y-93971739D01*
X104522426Y-93792926D01*
X104516136Y-93784757D01*
X104372806Y-93627240D01*
X104365273Y-93620215D01*
X104198139Y-93488222D01*
X104189552Y-93482517D01*
X104152116Y-93461851D01*
X104102146Y-93411419D01*
X104087374Y-93341976D01*
X104112490Y-93275571D01*
X104139842Y-93248964D01*
X104315327Y-93123792D01*
X104323200Y-93117139D01*
X104474052Y-92966812D01*
X104480730Y-92958965D01*
X104605003Y-92786020D01*
X104610313Y-92777183D01*
X104704670Y-92586267D01*
X104708469Y-92576672D01*
X104770377Y-92372910D01*
X104772555Y-92362837D01*
X104773986Y-92351962D01*
X104771775Y-92337778D01*
X104758617Y-92334000D01*
X103712115Y-92334000D01*
X103696876Y-92338475D01*
X103695671Y-92339865D01*
X103694000Y-92347548D01*
X103694000Y-94347885D01*
X103186000Y-94347885D01*
X103186000Y-91807885D01*
X103694000Y-91807885D01*
X103698475Y-91823124D01*
X103699865Y-91824329D01*
X103707548Y-91826000D01*
X104758344Y-91826000D01*
X104771875Y-91822027D01*
X104773180Y-91812947D01*
X104731214Y-91645875D01*
X104727894Y-91636124D01*
X104642972Y-91440814D01*
X104638105Y-91431739D01*
X104522426Y-91252926D01*
X104516136Y-91244757D01*
X104372806Y-91087240D01*
X104365273Y-91080215D01*
X104198139Y-90948222D01*
X104189552Y-90942517D01*
X104152116Y-90921851D01*
X104102146Y-90871419D01*
X104087374Y-90801976D01*
X104112490Y-90735571D01*
X104139842Y-90708964D01*
X104315327Y-90583792D01*
X104323200Y-90577139D01*
X104474052Y-90426812D01*
X104480730Y-90418965D01*
X104605003Y-90246020D01*
X104610313Y-90237183D01*
X104704670Y-90046267D01*
X104708469Y-90036672D01*
X104770377Y-89832910D01*
X104772555Y-89822837D01*
X104773986Y-89811962D01*
X104771775Y-89797778D01*
X104758617Y-89794000D01*
X103712115Y-89794000D01*
X103696876Y-89798475D01*
X103695671Y-89799865D01*
X103694000Y-89807548D01*
X103694000Y-91807885D01*
X103186000Y-91807885D01*
X103186000Y-89267885D01*
X103694000Y-89267885D01*
X103698475Y-89283124D01*
X103699865Y-89284329D01*
X103707548Y-89286000D01*
X104758344Y-89286000D01*
X104771875Y-89282027D01*
X104773180Y-89272947D01*
X104731214Y-89105875D01*
X104727894Y-89096124D01*
X104642972Y-88900814D01*
X104638105Y-88891739D01*
X104522426Y-88712926D01*
X104516136Y-88704757D01*
X104372806Y-88547240D01*
X104365273Y-88540215D01*
X104198139Y-88408222D01*
X104189552Y-88402517D01*
X104152116Y-88381851D01*
X104102146Y-88331419D01*
X104087374Y-88261976D01*
X104112490Y-88195571D01*
X104139842Y-88168964D01*
X104315327Y-88043792D01*
X104323200Y-88037139D01*
X104474052Y-87886812D01*
X104480730Y-87878965D01*
X104605003Y-87706020D01*
X104610313Y-87697183D01*
X104704670Y-87506267D01*
X104708469Y-87496672D01*
X104770377Y-87292910D01*
X104772555Y-87282837D01*
X104773986Y-87271962D01*
X104771775Y-87257778D01*
X104758617Y-87254000D01*
X103712115Y-87254000D01*
X103696876Y-87258475D01*
X103695671Y-87259865D01*
X103694000Y-87267548D01*
X103694000Y-89267885D01*
X103186000Y-89267885D01*
X103186000Y-86727885D01*
X103694000Y-86727885D01*
X103698475Y-86743124D01*
X103699865Y-86744329D01*
X103707548Y-86746000D01*
X104758344Y-86746000D01*
X104771875Y-86742027D01*
X104773180Y-86732947D01*
X104731214Y-86565875D01*
X104727894Y-86556124D01*
X104642972Y-86360814D01*
X104638105Y-86351739D01*
X104522426Y-86172926D01*
X104516136Y-86164757D01*
X104372806Y-86007240D01*
X104365273Y-86000215D01*
X104198139Y-85868222D01*
X104189552Y-85862517D01*
X104003117Y-85759599D01*
X103993705Y-85755369D01*
X103792959Y-85684280D01*
X103782988Y-85681646D01*
X103711837Y-85668972D01*
X103698540Y-85670432D01*
X103694000Y-85684989D01*
X103694000Y-86727885D01*
X103186000Y-86727885D01*
X103186000Y-85683102D01*
X103182082Y-85669758D01*
X103167806Y-85667771D01*
X103129324Y-85673660D01*
X103119288Y-85676051D01*
X102916868Y-85742212D01*
X102907359Y-85746209D01*
X102718463Y-85844542D01*
X102709738Y-85850036D01*
X102539433Y-85977905D01*
X102531726Y-85984748D01*
X102384590Y-86138717D01*
X102378109Y-86146722D01*
X102273498Y-86300074D01*
X102218587Y-86345076D01*
X102148062Y-86353247D01*
X102084315Y-86321993D01*
X102063618Y-86297509D01*
X101982822Y-86172617D01*
X101982820Y-86172614D01*
X101980014Y-86168277D01*
X101829670Y-86003051D01*
X101825619Y-85999852D01*
X101825615Y-85999848D01*
X101658414Y-85867800D01*
X101658410Y-85867798D01*
X101654359Y-85864598D01*
X101645302Y-85859598D01*
X101602136Y-85835769D01*
X101458789Y-85756638D01*
X101453920Y-85754914D01*
X101453916Y-85754912D01*
X101253087Y-85683795D01*
X101253083Y-85683794D01*
X101248212Y-85682069D01*
X101243119Y-85681162D01*
X101243116Y-85681161D01*
X101033373Y-85643800D01*
X101033367Y-85643799D01*
X101028284Y-85642894D01*
X100954452Y-85641992D01*
X100810081Y-85640228D01*
X100810079Y-85640228D01*
X100804911Y-85640165D01*
X100584091Y-85673955D01*
X100371756Y-85743357D01*
X100173607Y-85846507D01*
X100169474Y-85849610D01*
X100169471Y-85849612D01*
X100001624Y-85975635D01*
X99994965Y-85980635D01*
X99840629Y-86142138D01*
X99837715Y-86146410D01*
X99837714Y-86146411D01*
X99798588Y-86203768D01*
X99743677Y-86248771D01*
X99673152Y-86256942D01*
X99609405Y-86225688D01*
X99572675Y-86164931D01*
X99568500Y-86132764D01*
X99568500Y-76975400D01*
X103416500Y-76975400D01*
X103416837Y-76978646D01*
X103416837Y-76978650D01*
X103425827Y-77065289D01*
X103427474Y-77081166D01*
X103429655Y-77087702D01*
X103429655Y-77087704D01*
X103461405Y-77182870D01*
X103483450Y-77248946D01*
X103576522Y-77399348D01*
X103701697Y-77524305D01*
X103707927Y-77528145D01*
X103707928Y-77528146D01*
X103845090Y-77612694D01*
X103852262Y-77617115D01*
X103887938Y-77628948D01*
X104013611Y-77670632D01*
X104013613Y-77670632D01*
X104020139Y-77672797D01*
X104026975Y-77673497D01*
X104026978Y-77673498D01*
X104062663Y-77677154D01*
X104124600Y-77683500D01*
X105425400Y-77683500D01*
X105428646Y-77683163D01*
X105428650Y-77683163D01*
X105524308Y-77673238D01*
X105524312Y-77673237D01*
X105531166Y-77672526D01*
X105537702Y-77670345D01*
X105537704Y-77670345D01*
X105669806Y-77626272D01*
X105698946Y-77616550D01*
X105849348Y-77523478D01*
X105974305Y-77398303D01*
X106064353Y-77252220D01*
X106117124Y-77204727D01*
X106187196Y-77193303D01*
X106252320Y-77221577D01*
X106262782Y-77231364D01*
X106368234Y-77341906D01*
X106376186Y-77348941D01*
X106552525Y-77480141D01*
X106561562Y-77485745D01*
X106757484Y-77585357D01*
X106767335Y-77589357D01*
X106977240Y-77654534D01*
X106987624Y-77656817D01*
X107003043Y-77658861D01*
X107017207Y-77656665D01*
X107021000Y-77643478D01*
X107021000Y-77641192D01*
X107529000Y-77641192D01*
X107532973Y-77654723D01*
X107543580Y-77656248D01*
X107661421Y-77631523D01*
X107671617Y-77628463D01*
X107876029Y-77547737D01*
X107885561Y-77543006D01*
X108073462Y-77428984D01*
X108082052Y-77422720D01*
X108248052Y-77278673D01*
X108255472Y-77271042D01*
X108394826Y-77101089D01*
X108400850Y-77092323D01*
X108416517Y-77064801D01*
X108467600Y-77015496D01*
X108537230Y-77001635D01*
X108603301Y-77027619D01*
X108630538Y-77056768D01*
X108709850Y-77174575D01*
X108716519Y-77182870D01*
X108868228Y-77341900D01*
X108876186Y-77348941D01*
X109052525Y-77480141D01*
X109061562Y-77485745D01*
X109257484Y-77585357D01*
X109267335Y-77589357D01*
X109477240Y-77654534D01*
X109487624Y-77656817D01*
X109503043Y-77658861D01*
X109517207Y-77656665D01*
X109521000Y-77643478D01*
X109521000Y-77641192D01*
X110029000Y-77641192D01*
X110032973Y-77654723D01*
X110043580Y-77656248D01*
X110161421Y-77631523D01*
X110171617Y-77628463D01*
X110376029Y-77547737D01*
X110385561Y-77543006D01*
X110573462Y-77428984D01*
X110582052Y-77422720D01*
X110748052Y-77278673D01*
X110755472Y-77271042D01*
X110894826Y-77101089D01*
X110900848Y-77092326D01*
X110916238Y-77065289D01*
X110967320Y-77015982D01*
X111036951Y-77002120D01*
X111103022Y-77028103D01*
X111130261Y-77057253D01*
X111159773Y-77101089D01*
X111212441Y-77179319D01*
X111371576Y-77346135D01*
X111556542Y-77483754D01*
X111561293Y-77486170D01*
X111561297Y-77486172D01*
X111624481Y-77518296D01*
X111762051Y-77588240D01*
X111767145Y-77589822D01*
X111767148Y-77589823D01*
X111932583Y-77641192D01*
X111982227Y-77656607D01*
X111987516Y-77657308D01*
X112205489Y-77686198D01*
X112205494Y-77686198D01*
X112210774Y-77686898D01*
X112216103Y-77686698D01*
X112216105Y-77686698D01*
X112325966Y-77682573D01*
X112441158Y-77678249D01*
X112463802Y-77673498D01*
X112661572Y-77632002D01*
X112666791Y-77630907D01*
X112671750Y-77628949D01*
X112671752Y-77628948D01*
X112876256Y-77548185D01*
X112876258Y-77548184D01*
X112881221Y-77546224D01*
X112886525Y-77543006D01*
X113073757Y-77429390D01*
X113073756Y-77429390D01*
X113078317Y-77426623D01*
X113118134Y-77392072D01*
X113248412Y-77279023D01*
X113248414Y-77279021D01*
X113252445Y-77275523D01*
X113319861Y-77193303D01*
X113395240Y-77101373D01*
X113395244Y-77101367D01*
X113398624Y-77097245D01*
X113416815Y-77065289D01*
X113510032Y-76901529D01*
X113512675Y-76896886D01*
X113591337Y-76680175D01*
X113592287Y-76674923D01*
X113631623Y-76457392D01*
X113631624Y-76457385D01*
X113632361Y-76453308D01*
X113633500Y-76429156D01*
X113633500Y-76235987D01*
X128188390Y-76235987D01*
X128197217Y-76247605D01*
X128419950Y-76409430D01*
X128426630Y-76413670D01*
X128696241Y-76561890D01*
X128703376Y-76565247D01*
X128989439Y-76678508D01*
X128996965Y-76680953D01*
X129294948Y-76757462D01*
X129302719Y-76758945D01*
X129607947Y-76797503D01*
X129615838Y-76798000D01*
X129923500Y-76798000D01*
X129931391Y-76797503D01*
X130236619Y-76758945D01*
X130244390Y-76757462D01*
X130542373Y-76680953D01*
X130549899Y-76678508D01*
X130835962Y-76565247D01*
X130843097Y-76561890D01*
X131112708Y-76413670D01*
X131119388Y-76409430D01*
X131342492Y-76247336D01*
X131350915Y-76236413D01*
X131344011Y-76223552D01*
X129782481Y-74662022D01*
X129768537Y-74654408D01*
X129766704Y-74654539D01*
X129760089Y-74658790D01*
X128195003Y-76223876D01*
X128188390Y-76235987D01*
X113633500Y-76235987D01*
X113633500Y-76017110D01*
X113625929Y-75927885D01*
X113619371Y-75850591D01*
X113619370Y-75850587D01*
X113618920Y-75845280D01*
X113617582Y-75840125D01*
X113617581Y-75840119D01*
X113562343Y-75627297D01*
X113562342Y-75627293D01*
X113561001Y-75622128D01*
X113466312Y-75411925D01*
X113337559Y-75220681D01*
X113320212Y-75202496D01*
X113182103Y-75057722D01*
X113178424Y-75053865D01*
X112993458Y-74916246D01*
X112988707Y-74913830D01*
X112988703Y-74913828D01*
X112870588Y-74853776D01*
X112787949Y-74811760D01*
X112782855Y-74810178D01*
X112782852Y-74810177D01*
X112572871Y-74744976D01*
X112567773Y-74743393D01*
X112562484Y-74742692D01*
X112344511Y-74713802D01*
X112344506Y-74713802D01*
X112339226Y-74713102D01*
X112333897Y-74713302D01*
X112333895Y-74713302D01*
X112224034Y-74717426D01*
X112108842Y-74721751D01*
X112103623Y-74722846D01*
X112081566Y-74727474D01*
X111883209Y-74769093D01*
X111878250Y-74771051D01*
X111878248Y-74771052D01*
X111673744Y-74851815D01*
X111673742Y-74851816D01*
X111668779Y-74853776D01*
X111664220Y-74856543D01*
X111664217Y-74856544D01*
X111569113Y-74914255D01*
X111471683Y-74973377D01*
X111467653Y-74976874D01*
X111374484Y-75057722D01*
X111297555Y-75124477D01*
X111293881Y-75128958D01*
X111154760Y-75298627D01*
X111154756Y-75298633D01*
X111151376Y-75302755D01*
X111148733Y-75307398D01*
X111133171Y-75334735D01*
X111082088Y-75384041D01*
X111012458Y-75397902D01*
X110946387Y-75371918D01*
X110919149Y-75342768D01*
X110840148Y-75225422D01*
X110833481Y-75217130D01*
X110681772Y-75058100D01*
X110673814Y-75051059D01*
X110497475Y-74919859D01*
X110488438Y-74914255D01*
X110292516Y-74814643D01*
X110282665Y-74810643D01*
X110072760Y-74745466D01*
X110062376Y-74743183D01*
X110046957Y-74741139D01*
X110032793Y-74743335D01*
X110029000Y-74756522D01*
X110029000Y-77641192D01*
X109521000Y-77641192D01*
X109521000Y-76472115D01*
X109516525Y-76456876D01*
X109515135Y-76455671D01*
X109507452Y-76454000D01*
X107547115Y-76454000D01*
X107531876Y-76458475D01*
X107530671Y-76459865D01*
X107529000Y-76467548D01*
X107529000Y-77641192D01*
X107021000Y-77641192D01*
X107021000Y-75927885D01*
X107529000Y-75927885D01*
X107533475Y-75943124D01*
X107534865Y-75944329D01*
X107542548Y-75946000D01*
X109502885Y-75946000D01*
X109518124Y-75941525D01*
X109519329Y-75940135D01*
X109521000Y-75932452D01*
X109521000Y-74758808D01*
X109517027Y-74745277D01*
X109506420Y-74743752D01*
X109388579Y-74768477D01*
X109378383Y-74771537D01*
X109173971Y-74852263D01*
X109164439Y-74856994D01*
X108976538Y-74971016D01*
X108967948Y-74977280D01*
X108801948Y-75121327D01*
X108794528Y-75128958D01*
X108655174Y-75298911D01*
X108649150Y-75307677D01*
X108633483Y-75335199D01*
X108582400Y-75384504D01*
X108512770Y-75398365D01*
X108446699Y-75372381D01*
X108419462Y-75343232D01*
X108340150Y-75225425D01*
X108333481Y-75217130D01*
X108181772Y-75058100D01*
X108173814Y-75051059D01*
X107997475Y-74919859D01*
X107988438Y-74914255D01*
X107792516Y-74814643D01*
X107782665Y-74810643D01*
X107572760Y-74745466D01*
X107562376Y-74743183D01*
X107546957Y-74741139D01*
X107532793Y-74743335D01*
X107529000Y-74756522D01*
X107529000Y-75927885D01*
X107021000Y-75927885D01*
X107021000Y-74758808D01*
X107017027Y-74745277D01*
X107006420Y-74743752D01*
X106888579Y-74768477D01*
X106878383Y-74771537D01*
X106673971Y-74852263D01*
X106664439Y-74856994D01*
X106476538Y-74971016D01*
X106467948Y-74977280D01*
X106301948Y-75121327D01*
X106294530Y-75128956D01*
X106268609Y-75160569D01*
X106209949Y-75200564D01*
X106138979Y-75202496D01*
X106078230Y-75165752D01*
X106064030Y-75146982D01*
X106052877Y-75128958D01*
X105973478Y-75000652D01*
X105848303Y-74875695D01*
X105817965Y-74856994D01*
X105703968Y-74786725D01*
X105703966Y-74786724D01*
X105697738Y-74782885D01*
X105584353Y-74745277D01*
X105536389Y-74729368D01*
X105536387Y-74729368D01*
X105529861Y-74727203D01*
X105523025Y-74726503D01*
X105523022Y-74726502D01*
X105479969Y-74722091D01*
X105425400Y-74716500D01*
X104124600Y-74716500D01*
X104121354Y-74716837D01*
X104121350Y-74716837D01*
X104025692Y-74726762D01*
X104025688Y-74726763D01*
X104018834Y-74727474D01*
X104012298Y-74729655D01*
X104012296Y-74729655D01*
X103880194Y-74773728D01*
X103851054Y-74783450D01*
X103700652Y-74876522D01*
X103575695Y-75001697D01*
X103571855Y-75007927D01*
X103571854Y-75007928D01*
X103497466Y-75128608D01*
X103482885Y-75152262D01*
X103427203Y-75320139D01*
X103426503Y-75326975D01*
X103426502Y-75326978D01*
X103425660Y-75335199D01*
X103416500Y-75424600D01*
X103416500Y-76975400D01*
X99568500Y-76975400D01*
X99568500Y-74293958D01*
X127256959Y-74293958D01*
X127276276Y-74600994D01*
X127277269Y-74608855D01*
X127334915Y-74911046D01*
X127336886Y-74918723D01*
X127431953Y-75211309D01*
X127434868Y-75218672D01*
X127565858Y-75497041D01*
X127569670Y-75503974D01*
X127734520Y-75763736D01*
X127739164Y-75770129D01*
X127814166Y-75860790D01*
X127826683Y-75869245D01*
X127837421Y-75863038D01*
X129397647Y-74302812D01*
X129404025Y-74291132D01*
X130134077Y-74291132D01*
X130134208Y-74292965D01*
X130138459Y-74299580D01*
X131700814Y-75861935D01*
X131714076Y-75869177D01*
X131724181Y-75861988D01*
X131800174Y-75770129D01*
X131804818Y-75763736D01*
X131969668Y-75503974D01*
X131973480Y-75497041D01*
X132104470Y-75218672D01*
X132107385Y-75211309D01*
X132202452Y-74918723D01*
X132204423Y-74911046D01*
X132262069Y-74608855D01*
X132263062Y-74600994D01*
X132282379Y-74293958D01*
X132282379Y-74286042D01*
X132263062Y-73979006D01*
X132262069Y-73971145D01*
X132204423Y-73668954D01*
X132202452Y-73661277D01*
X132107385Y-73368691D01*
X132104470Y-73361328D01*
X131973480Y-73082959D01*
X131969668Y-73076026D01*
X131804818Y-72816264D01*
X131800174Y-72809871D01*
X131725172Y-72719210D01*
X131712655Y-72710755D01*
X131701917Y-72716962D01*
X130141691Y-74277188D01*
X130134077Y-74291132D01*
X129404025Y-74291132D01*
X129405261Y-74288868D01*
X129405130Y-74287035D01*
X129400879Y-74280420D01*
X127838524Y-72718065D01*
X127825262Y-72710823D01*
X127815157Y-72718012D01*
X127739164Y-72809871D01*
X127734520Y-72816264D01*
X127569670Y-73076026D01*
X127565858Y-73082959D01*
X127434868Y-73361328D01*
X127431953Y-73368691D01*
X127336886Y-73661277D01*
X127334915Y-73668954D01*
X127277269Y-73971145D01*
X127276276Y-73979006D01*
X127256959Y-74286042D01*
X127256959Y-74293958D01*
X99568500Y-74293958D01*
X99568500Y-72443250D01*
X99570246Y-72422345D01*
X99572770Y-72407344D01*
X99572770Y-72407341D01*
X99573576Y-72402552D01*
X99573729Y-72390000D01*
X99572788Y-72383429D01*
X99572123Y-72353218D01*
X99581916Y-72253789D01*
X99586733Y-72229568D01*
X99622866Y-72110454D01*
X99632315Y-72087645D01*
X99690987Y-71977876D01*
X99704705Y-71957345D01*
X99783671Y-71861124D01*
X99801124Y-71843671D01*
X99897345Y-71764705D01*
X99917876Y-71750987D01*
X100027645Y-71692315D01*
X100050454Y-71682866D01*
X100169568Y-71646733D01*
X100193789Y-71641916D01*
X100289809Y-71632459D01*
X100305868Y-71632909D01*
X100305877Y-71632200D01*
X100314853Y-71632310D01*
X100323724Y-71633691D01*
X100332626Y-71632527D01*
X100332628Y-71632527D01*
X100347677Y-71630559D01*
X100355286Y-71629564D01*
X100371621Y-71628500D01*
X129053286Y-71628500D01*
X129121407Y-71648502D01*
G37*
G04 #@! TD.AperFunction*
M02*
