M48
; DRILL file {KiCad 6.0.11+dfsg-1} date Fri Mar 29 12:08:10 2024
; FORMAT={-:-/ absolute / metric / decimal}
; #@! TF.CreationDate,2024-03-29T12:08:10-05:00
; #@! TF.GenerationSoftware,Kicad,Pcbnew,6.0.11+dfsg-1
; #@! TF.FileFunction,MixedPlating,1,2
FMAT,2
METRIC
; #@! TA.AperFunction,Plated,PTH,ViaDrill
T1C0.400
; #@! TA.AperFunction,Plated,PTH,ComponentDrill
T2C0.950
; #@! TA.AperFunction,Plated,PTH,ComponentDrill
T3C1.000
; #@! TA.AperFunction,Plated,PTH,ComponentDrill
T4C3.200
%
G90
G05
T1
X107.315Y-84.455
X107.315Y-86.995
X107.315Y-89.535
X107.315Y-92.075
X107.315Y-94.615
X107.315Y-97.155
X107.315Y-99.695
X107.315Y-102.235
X107.315Y-104.775
X107.315Y-107.315
X107.315Y-109.855
X107.315Y-112.395
X107.315Y-114.935
X107.315Y-117.475
X107.315Y-120.015
X107.315Y-122.555
X107.315Y-125.095
X107.315Y-127.635
X120.65Y-90.805
T2
X104.775Y-76.2
X107.275Y-76.2
X109.775Y-76.2
X112.275Y-76.2
T3
X100.9Y-87.0
X100.9Y-89.54
X100.9Y-92.08
X100.9Y-94.62
X100.9Y-97.16
X100.9Y-99.7
X100.9Y-102.24
X100.9Y-104.78
X100.9Y-107.32
X100.9Y-109.86
X100.9Y-112.4
X100.9Y-114.94
X100.9Y-117.48
X100.9Y-120.02
X100.9Y-122.56
X100.9Y-125.1
X100.9Y-127.64
X103.44Y-87.0
X103.44Y-89.54
X103.44Y-92.08
X103.44Y-94.62
X103.44Y-97.16
X103.44Y-99.7
X103.44Y-102.24
X103.44Y-104.78
X103.44Y-107.32
X103.44Y-109.86
X103.44Y-112.4
X103.44Y-114.94
X103.44Y-117.48
X103.44Y-120.02
X103.44Y-122.56
X103.44Y-125.1
X103.44Y-127.64
X111.125Y-86.995
X111.125Y-89.535
X111.125Y-92.075
X111.125Y-94.615
X111.125Y-97.155
X111.125Y-99.695
X111.125Y-102.235
X111.125Y-104.775
X111.125Y-107.315
X111.125Y-109.855
X111.125Y-112.395
X111.125Y-114.935
X111.125Y-117.475
X111.125Y-120.015
X111.125Y-122.555
X111.125Y-125.095
X111.125Y-127.635
X113.665Y-86.995
X113.665Y-89.535
X113.665Y-92.075
X113.665Y-94.615
X113.665Y-97.155
X113.665Y-99.695
X113.665Y-102.235
X113.665Y-104.775
X113.665Y-107.315
X113.665Y-109.855
X113.665Y-112.395
X113.665Y-114.935
X113.665Y-117.475
X113.665Y-120.015
X113.665Y-122.555
X113.665Y-125.095
X113.665Y-127.635
X128.35Y-81.11
X128.35Y-83.88
X128.35Y-86.65
X128.35Y-89.42
X128.35Y-92.19
X128.35Y-94.96
X128.35Y-97.73
X128.35Y-100.5
X128.35Y-103.27
X128.35Y-106.04
X128.35Y-108.81
X128.35Y-111.58
X128.35Y-114.35
X128.35Y-117.12
X128.35Y-119.89
X128.35Y-122.66
X128.35Y-125.43
X128.35Y-128.2
X128.35Y-130.97
X131.19Y-82.495
X131.19Y-85.265
X131.19Y-88.035
X131.19Y-90.805
X131.19Y-93.575
X131.19Y-96.345
X131.19Y-99.115
X131.19Y-101.885
X131.19Y-104.655
X131.19Y-107.425
X131.19Y-110.195
X131.19Y-112.965
X131.19Y-115.735
X131.19Y-118.505
X131.19Y-121.275
X131.19Y-124.045
X131.19Y-126.815
X131.19Y-129.585
T4
X129.77Y-74.29
X129.77Y-137.79
T0
M30
